G04 #@! TF.FileFunction,Soldermask,Top*
%FSLAX46Y46*%
G04 Gerber Fmt 4.6, Leading zero omitted, Abs format (unit mm)*
G04 Created by KiCad (PCBNEW (2015-08-16 BZR 6097, Git b384c94)-product) date 22.08.2015 13:39:35*
%MOMM*%
G01*
G04 APERTURE LIST*
%ADD10C,0.150000*%
%ADD11C,1.100000*%
%ADD12R,1.343000X1.597000*%
%ADD13R,1.216000X1.089000*%
%ADD14R,1.089000X1.216000*%
%ADD15R,1.597000X1.343000*%
%ADD16R,1.300000X0.835000*%
%ADD17O,1.300000X0.835000*%
%ADD18R,0.470000X1.400000*%
%ADD19O,0.470000X1.400000*%
%ADD20O,1.400000X0.470000*%
%ADD21R,1.200000X1.300000*%
%ADD22R,1.100000X1.300000*%
%ADD23C,6.200000*%
%ADD24R,0.800000X0.800000*%
%ADD25R,0.835000X1.299820*%
%ADD26O,0.835000X1.299820*%
%ADD27R,1.200000X1.100000*%
%ADD28R,1.100000X1.200000*%
%ADD29C,1.200000*%
%ADD30R,1.700000X1.700000*%
%ADD31C,1.700000*%
%ADD32R,1.700000X2.700000*%
%ADD33R,2.700000X1.700000*%
%ADD34R,0.600000X1.450000*%
%ADD35R,2.099920X1.398880*%
%ADD36R,1.500000X0.470000*%
%ADD37O,1.500000X0.470000*%
G04 APERTURE END LIST*
D10*
D11*
X132300000Y-107400000D02*
X133300000Y-107400000D01*
D12*
X141816000Y-112000000D03*
X139784000Y-112000000D03*
D13*
X155600000Y-101038000D03*
X155600000Y-102562000D03*
D14*
X141962000Y-117800000D03*
X140438000Y-117800000D03*
D13*
X155400000Y-121038000D03*
X155400000Y-122562000D03*
X154400000Y-128562000D03*
X154400000Y-127038000D03*
X147200000Y-102562000D03*
X147200000Y-101038000D03*
X144600000Y-127038000D03*
X144600000Y-128562000D03*
D14*
X157838000Y-107800000D03*
X159362000Y-107800000D03*
X141962000Y-110200000D03*
X140438000Y-110200000D03*
X147362000Y-104400000D03*
X145838000Y-104400000D03*
X153838000Y-104400000D03*
X155362000Y-104400000D03*
X144438000Y-125400000D03*
X145962000Y-125400000D03*
X144438000Y-123800000D03*
X145962000Y-123800000D03*
D13*
X129400000Y-110962000D03*
X129400000Y-109438000D03*
X129374000Y-105387000D03*
X129374000Y-103863000D03*
X136000000Y-110962000D03*
X136000000Y-109438000D03*
X135974000Y-105387000D03*
X135974000Y-103863000D03*
D14*
X134762000Y-91800000D03*
X133238000Y-91800000D03*
X134962000Y-96000000D03*
X133438000Y-96000000D03*
D13*
X139200000Y-99238000D03*
X139200000Y-100762000D03*
D14*
X156762000Y-91800000D03*
X155238000Y-91800000D03*
X156762000Y-96000000D03*
X155238000Y-96000000D03*
D13*
X161000000Y-99238000D03*
X161000000Y-100762000D03*
D14*
X134962000Y-97600000D03*
X133438000Y-97600000D03*
D15*
X141000000Y-99384000D03*
X141000000Y-101416000D03*
D14*
X156762000Y-97600000D03*
X155238000Y-97600000D03*
D15*
X162800000Y-99384000D03*
X162800000Y-101416000D03*
D14*
X139638000Y-88600000D03*
X141162000Y-88600000D03*
X134762000Y-93400000D03*
X133238000Y-93400000D03*
X161438000Y-88600000D03*
X162962000Y-88600000D03*
X156762000Y-93400000D03*
X155238000Y-93400000D03*
D15*
X131400000Y-94016000D03*
X131400000Y-91984000D03*
X153400000Y-94016000D03*
X153400000Y-91984000D03*
D13*
X128000000Y-117838000D03*
X128000000Y-119362000D03*
X140800000Y-132238000D03*
X140800000Y-133762000D03*
D14*
X142162000Y-86800000D03*
X140638000Y-86800000D03*
D13*
X129200000Y-95962000D03*
X129200000Y-94438000D03*
X172073400Y-100762000D03*
X172073400Y-99238000D03*
X156400000Y-84562000D03*
X156400000Y-83038000D03*
D14*
X173838000Y-115600000D03*
X175362000Y-115600000D03*
D13*
X165200000Y-130438000D03*
X165200000Y-131962000D03*
D15*
X126200000Y-114184000D03*
X126200000Y-116216000D03*
X137200000Y-129984000D03*
X137200000Y-132016000D03*
D12*
X145016000Y-85000000D03*
X142984000Y-85000000D03*
D15*
X127400000Y-99616000D03*
X127400000Y-97584000D03*
X173873400Y-104416000D03*
X173873400Y-102384000D03*
D12*
X159984000Y-86400000D03*
X162016000Y-86400000D03*
D15*
X172400000Y-118984000D03*
X172400000Y-121016000D03*
D12*
X161816000Y-130000000D03*
X159784000Y-130000000D03*
D14*
X140438000Y-116200000D03*
X141962000Y-116200000D03*
D13*
X153800000Y-122562000D03*
X153800000Y-121038000D03*
D14*
X136038000Y-119600000D03*
X137562000Y-119600000D03*
D13*
X126200000Y-124562000D03*
X126200000Y-123038000D03*
X142400000Y-135238000D03*
X142400000Y-136762000D03*
D14*
X134838000Y-85000000D03*
X136362000Y-85000000D03*
D13*
X123200000Y-105162000D03*
X123200000Y-103638000D03*
X174000000Y-93838000D03*
X174000000Y-95362000D03*
D14*
X154438000Y-81400000D03*
X155962000Y-81400000D03*
D13*
X177000000Y-113638000D03*
X177000000Y-115162000D03*
X157400000Y-135838000D03*
X157400000Y-137362000D03*
D16*
X131500000Y-109250000D03*
D17*
X131500000Y-110200000D03*
X131500000Y-111150000D03*
X134100000Y-111150000D03*
X134100000Y-109250000D03*
D16*
X131474000Y-103675000D03*
D17*
X131474000Y-104625000D03*
X131474000Y-105575000D03*
X134074000Y-105575000D03*
X134074000Y-103675000D03*
D18*
X153750000Y-107250000D03*
D19*
X153250000Y-107250000D03*
X152750000Y-107250000D03*
X152250000Y-107250000D03*
X151750000Y-107250000D03*
X151250000Y-107250000D03*
X150750000Y-107250000D03*
X150250000Y-107250000D03*
X149750000Y-107250000D03*
X149250000Y-107250000D03*
X148750000Y-107250000D03*
X148250000Y-107250000D03*
X147750000Y-107250000D03*
X147250000Y-107250000D03*
X146750000Y-107250000D03*
X146250000Y-107250000D03*
D20*
X144250000Y-109250000D03*
X144250000Y-109750000D03*
X144250000Y-110250000D03*
X144250000Y-110750000D03*
X144250000Y-111250000D03*
X144250000Y-111750000D03*
X144250000Y-112250000D03*
X144250000Y-112750000D03*
D19*
X146250000Y-118750000D03*
X146750000Y-118750000D03*
X147250000Y-118750000D03*
X147750000Y-118750000D03*
D20*
X144250000Y-113250000D03*
X144250000Y-113750000D03*
X144250000Y-114250000D03*
X144250000Y-114750000D03*
X144250000Y-115250000D03*
X144250000Y-115750000D03*
X144250000Y-116250000D03*
X144250000Y-116750000D03*
D19*
X148250000Y-118750000D03*
X148750000Y-118750000D03*
X149250000Y-118750000D03*
X149750000Y-118750000D03*
X150250000Y-118750000D03*
X150750000Y-118750000D03*
X151250000Y-118750000D03*
X151750000Y-118750000D03*
X152250000Y-118750000D03*
X152750000Y-118750000D03*
X153250000Y-118750000D03*
X153750000Y-118750000D03*
D20*
X155750000Y-116750000D03*
X155750000Y-116250000D03*
X155750000Y-115750000D03*
X155750000Y-115250000D03*
X155750000Y-114750000D03*
X155750000Y-114250000D03*
X155750000Y-113750000D03*
X155750000Y-113250000D03*
X155750000Y-112750000D03*
X155750000Y-112250000D03*
X155750000Y-111750000D03*
X155750000Y-111250000D03*
X155750000Y-110750000D03*
X155750000Y-110250000D03*
X155750000Y-109750000D03*
X155750000Y-109250000D03*
D21*
X132050000Y-107400000D03*
D22*
X133600000Y-107400000D03*
D23*
X150000000Y-82500000D03*
X169000000Y-128000000D03*
X131000000Y-128000000D03*
D24*
X146000000Y-126900000D03*
X146000000Y-127900000D03*
X153000000Y-126900000D03*
X153000000Y-127900000D03*
D25*
X149450040Y-128300480D03*
D26*
X150400000Y-128300480D03*
X151349960Y-128300480D03*
X151349960Y-125699520D03*
X150400000Y-125699520D03*
X149450040Y-125699520D03*
D27*
X156000000Y-128550000D03*
X156000000Y-127050000D03*
D28*
X150550000Y-104400000D03*
X149050000Y-104400000D03*
X137550000Y-117800000D03*
X136050000Y-117800000D03*
D27*
X128000000Y-123050000D03*
X128000000Y-124550000D03*
X142400000Y-132250000D03*
X142400000Y-133750000D03*
D28*
X136350000Y-86600000D03*
X134850000Y-86600000D03*
D27*
X125000000Y-103650000D03*
X125000000Y-105150000D03*
X172400000Y-95350000D03*
X172400000Y-93850000D03*
X154400000Y-84550000D03*
X154400000Y-83050000D03*
X177000000Y-110650000D03*
X177000000Y-112150000D03*
X157400000Y-132850000D03*
X157400000Y-134350000D03*
X128000000Y-114850000D03*
X128000000Y-116350000D03*
X139000000Y-130650000D03*
X139000000Y-132150000D03*
D28*
X145150000Y-86800000D03*
X143650000Y-86800000D03*
D27*
X129200000Y-98950000D03*
X129200000Y-97450000D03*
X172073400Y-103750000D03*
X172073400Y-102250000D03*
D28*
X158350000Y-86200000D03*
X156850000Y-86200000D03*
D27*
X172200000Y-117350000D03*
X172200000Y-115850000D03*
X163600000Y-131950000D03*
X163600000Y-130450000D03*
X124400000Y-115550000D03*
X124400000Y-114050000D03*
D28*
X135350000Y-131600000D03*
X133850000Y-131600000D03*
X143650000Y-83200000D03*
X145150000Y-83200000D03*
D27*
X127600000Y-95950000D03*
X127600000Y-94450000D03*
X175673400Y-103050000D03*
X175673400Y-104550000D03*
D28*
X163650000Y-86600000D03*
X165150000Y-86600000D03*
D27*
X172200000Y-122650000D03*
X172200000Y-124150000D03*
D28*
X159050000Y-131800000D03*
X160550000Y-131800000D03*
D27*
X122800000Y-115550000D03*
X122800000Y-114050000D03*
D28*
X135350000Y-133200000D03*
X133850000Y-133200000D03*
X143650000Y-81600000D03*
X145150000Y-81600000D03*
D27*
X126000000Y-95950000D03*
X126000000Y-94450000D03*
X177273400Y-103050000D03*
X177273400Y-104550000D03*
D28*
X163650000Y-85000000D03*
X165150000Y-85000000D03*
D27*
X173800000Y-122650000D03*
X173800000Y-124150000D03*
D28*
X159050000Y-133400000D03*
X160550000Y-133400000D03*
D29*
X149400000Y-120800000D03*
X149400000Y-122200000D03*
X137400000Y-98400000D03*
X143400000Y-98600000D03*
X145000000Y-98600000D03*
X146600000Y-98600000D03*
X146000000Y-92000000D03*
X147200000Y-92800000D03*
X146000000Y-93600000D03*
X147200000Y-94400000D03*
X146000000Y-95200000D03*
X147200000Y-96000000D03*
X146000000Y-96800000D03*
X165200000Y-98800000D03*
X166800000Y-98800000D03*
X168400000Y-98800000D03*
X168600000Y-92400000D03*
X169800000Y-94400000D03*
X168400000Y-95000000D03*
X169800000Y-95800000D03*
D30*
X162200000Y-110800000D03*
D31*
X162200000Y-113340000D03*
X162200000Y-115880000D03*
D32*
X144850000Y-137850000D03*
X155150000Y-137850000D03*
X144850000Y-133650000D03*
X155150000Y-133650000D03*
D33*
X147800000Y-131450000D03*
X152200000Y-131450000D03*
D34*
X148700000Y-133325000D03*
X149350000Y-133325000D03*
X150000000Y-133325000D03*
X150650000Y-133325000D03*
X151300000Y-133325000D03*
D30*
X164800000Y-110800000D03*
D31*
X164800000Y-113340000D03*
X164800000Y-115880000D03*
X164800000Y-118420000D03*
D35*
X153249120Y-100300180D03*
X149550880Y-100300180D03*
X149550880Y-102499820D03*
X153249120Y-102499820D03*
D36*
X137400000Y-90100000D03*
D37*
X137400000Y-90600000D03*
X137400000Y-91100000D03*
X137400000Y-91600000D03*
X137400000Y-92100000D03*
X137400000Y-92600000D03*
X137400000Y-93100000D03*
X137400000Y-93600000D03*
X137400000Y-94100000D03*
X137400000Y-94600000D03*
X137400000Y-95100000D03*
X137400000Y-95600000D03*
X137400000Y-96100000D03*
X137400000Y-96600000D03*
X137400000Y-97100000D03*
X143400000Y-97100000D03*
X143400000Y-96600000D03*
X143400000Y-96100000D03*
X143400000Y-95600000D03*
X143400000Y-95100000D03*
X143400000Y-94600000D03*
X143400000Y-94100000D03*
X143400000Y-93600000D03*
X143400000Y-93100000D03*
X143400000Y-92600000D03*
X143400000Y-92100000D03*
X143400000Y-91600000D03*
X143400000Y-91100000D03*
X143400000Y-90600000D03*
X143400000Y-90100000D03*
D36*
X159200000Y-90100000D03*
D37*
X159200000Y-90600000D03*
X159200000Y-91100000D03*
X159200000Y-91600000D03*
X159200000Y-92100000D03*
X159200000Y-92600000D03*
X159200000Y-93100000D03*
X159200000Y-93600000D03*
X159200000Y-94100000D03*
X159200000Y-94600000D03*
X159200000Y-95100000D03*
X159200000Y-95600000D03*
X159200000Y-96100000D03*
X159200000Y-96600000D03*
X159200000Y-97100000D03*
X165200000Y-97100000D03*
X165200000Y-96600000D03*
X165200000Y-96100000D03*
X165200000Y-95600000D03*
X165200000Y-95100000D03*
X165200000Y-94600000D03*
X165200000Y-94100000D03*
X165200000Y-93600000D03*
X165200000Y-93100000D03*
X165200000Y-92600000D03*
X165200000Y-92100000D03*
X165200000Y-91600000D03*
X165200000Y-91100000D03*
X165200000Y-90600000D03*
X165200000Y-90100000D03*
D10*
G36*
X122493478Y-117730309D02*
X124069691Y-117093478D01*
X124706522Y-118669691D01*
X123130309Y-119306522D01*
X122493478Y-117730309D01*
X122493478Y-117730309D01*
G37*
D31*
X124551501Y-120555047D03*
D10*
G36*
X136256753Y-135371464D02*
X137028536Y-133856753D01*
X138543247Y-134628536D01*
X137771464Y-136143247D01*
X136256753Y-135371464D01*
X136256753Y-135371464D01*
G37*
D31*
X139663157Y-136153136D03*
D10*
G36*
X141469691Y-81493478D02*
X142106522Y-83069691D01*
X140530309Y-83706522D01*
X139893478Y-82130309D01*
X141469691Y-81493478D01*
X141469691Y-81493478D01*
G37*
D31*
X138644953Y-83551501D03*
D10*
G36*
X123949692Y-96885449D02*
X125514551Y-97549692D01*
X124850308Y-99114551D01*
X123285449Y-98450308D01*
X123949692Y-96885449D01*
X123949692Y-96885449D01*
G37*
D31*
X123407543Y-100338082D03*
D10*
G36*
X177506522Y-100669691D02*
X175930309Y-101306522D01*
X175293478Y-99730309D01*
X176869691Y-99093478D01*
X177506522Y-100669691D01*
X177506522Y-100669691D01*
G37*
D31*
X175448499Y-97844953D03*
D10*
G36*
X162514551Y-83149692D02*
X161850308Y-84714551D01*
X160285449Y-84050308D01*
X160949692Y-82485449D01*
X162514551Y-83149692D01*
X162514551Y-83149692D01*
G37*
D31*
X159061918Y-82607543D03*
D10*
G36*
X175850308Y-121514551D02*
X174285449Y-120850308D01*
X174949692Y-119285449D01*
X176514551Y-119949692D01*
X175850308Y-121514551D01*
X175850308Y-121514551D01*
G37*
D31*
X176392457Y-118061918D03*
D10*
G36*
X160448545Y-137149556D02*
X159650444Y-135648545D01*
X161151455Y-134850444D01*
X161949556Y-136351455D01*
X160448545Y-137149556D01*
X160448545Y-137149556D01*
G37*
D31*
X163042687Y-134807542D03*
M02*
