G04 #@! TF.FileFunction,Copper,L2,Bot,Signal*
%FSLAX46Y46*%
G04 Gerber Fmt 4.6, Leading zero omitted, Abs format (unit mm)*
G04 Created by KiCad (PCBNEW (2015-08-16 BZR 6097, Git b384c94)-product) date 22.08.2015 13:39:35*
%MOMM*%
G01*
G04 APERTURE LIST*
%ADD10C,0.150000*%
%ADD11C,6.000000*%
%ADD12R,1.500000X1.500000*%
%ADD13C,1.500000*%
%ADD14C,0.800000*%
%ADD15C,0.500000*%
%ADD16C,0.200000*%
%ADD17C,0.400000*%
G04 APERTURE END LIST*
D10*
D11*
X150000000Y-82500000D03*
X169000000Y-128000000D03*
X131000000Y-128000000D03*
D12*
X162200000Y-110800000D03*
D13*
X162200000Y-113340000D03*
X162200000Y-115880000D03*
D12*
X164800000Y-110800000D03*
D13*
X164800000Y-113340000D03*
X164800000Y-115880000D03*
X164800000Y-118420000D03*
D10*
G36*
X122623657Y-117785567D02*
X124014433Y-117223657D01*
X124576343Y-118614433D01*
X123185567Y-119176343D01*
X122623657Y-117785567D01*
X122623657Y-117785567D01*
G37*
D13*
X124551501Y-120555047D03*
D10*
G36*
X136391252Y-135327762D02*
X137072238Y-133991252D01*
X138408748Y-134672238D01*
X137727762Y-136008748D01*
X136391252Y-135327762D01*
X136391252Y-135327762D01*
G37*
D13*
X139663157Y-136153136D03*
D10*
G36*
X141414433Y-81623657D02*
X141976343Y-83014433D01*
X140585567Y-83576343D01*
X140023657Y-82185567D01*
X141414433Y-81623657D01*
X141414433Y-81623657D01*
G37*
D13*
X138644953Y-83551501D03*
D10*
G36*
X124002670Y-97016573D02*
X125383427Y-97602670D01*
X124797330Y-98983427D01*
X123416573Y-98397330D01*
X124002670Y-97016573D01*
X124002670Y-97016573D01*
G37*
D13*
X123407543Y-100338082D03*
D10*
G36*
X177376343Y-100614433D02*
X175985567Y-101176343D01*
X175423657Y-99785567D01*
X176814433Y-99223657D01*
X177376343Y-100614433D01*
X177376343Y-100614433D01*
G37*
D13*
X175448499Y-97844953D03*
D10*
G36*
X162383427Y-83202670D02*
X161797330Y-84583427D01*
X160416573Y-83997330D01*
X161002670Y-82616573D01*
X162383427Y-83202670D01*
X162383427Y-83202670D01*
G37*
D13*
X159061918Y-82607543D03*
D10*
G36*
X175797330Y-121383427D02*
X174416573Y-120797330D01*
X175002670Y-119416573D01*
X176383427Y-120002670D01*
X175797330Y-121383427D01*
X175797330Y-121383427D01*
G37*
D13*
X176392457Y-118061918D03*
D10*
G36*
X160489893Y-137014314D02*
X159785686Y-135689893D01*
X161110107Y-134985686D01*
X161814314Y-136310107D01*
X160489893Y-137014314D01*
X160489893Y-137014314D01*
G37*
D13*
X163042687Y-134807542D03*
D14*
X142614400Y-114078600D03*
X143775300Y-117504800D03*
X150500800Y-117593500D03*
X154875500Y-118921200D03*
X150199100Y-105500500D03*
X153001400Y-105362100D03*
X156370400Y-107921000D03*
X150247000Y-127163400D03*
X152459800Y-126050200D03*
X151382100Y-101091700D03*
X156313000Y-103570400D03*
X156906500Y-109999200D03*
X156508400Y-121747900D03*
X141199900Y-108430300D03*
X139406600Y-109816900D03*
X143557700Y-126320400D03*
X134511800Y-108343100D03*
X132956500Y-111259000D03*
X146960900Y-106073800D03*
X147899900Y-108435100D03*
X150814100Y-109813300D03*
X153810900Y-110746900D03*
X139583700Y-119451300D03*
X139445400Y-113524500D03*
X139393500Y-116195300D03*
X162242600Y-109214100D03*
X151500000Y-115500000D03*
X150000000Y-111000000D03*
X152500000Y-108500000D03*
X149139200Y-116472200D03*
X147500000Y-120500000D03*
X143500000Y-119000000D03*
X141500000Y-120500000D03*
X140000000Y-107500000D03*
X143500000Y-108000000D03*
X151000000Y-113000000D03*
X154000000Y-116500000D03*
X157000000Y-119000000D03*
X164500000Y-121000000D03*
X161500000Y-122500000D03*
X158500000Y-124000000D03*
X147500000Y-125500000D03*
X147500000Y-129000000D03*
X152000000Y-129500000D03*
X145000000Y-120500000D03*
X145249000Y-131800000D03*
X147899500Y-132800000D03*
X152198400Y-132726300D03*
X154751000Y-131800000D03*
X146993400Y-123416900D03*
X150391400Y-124549700D03*
X130227500Y-108485600D03*
X173425100Y-125186900D03*
X177024900Y-105586900D03*
X138606500Y-94849200D03*
X126800000Y-93470100D03*
X146186900Y-81224900D03*
X123175100Y-113013100D03*
X132813100Y-132824900D03*
X132469300Y-96800000D03*
X137873300Y-101810600D03*
X165394000Y-87821400D03*
X160463200Y-93093100D03*
X154285400Y-95231800D03*
X154363100Y-90874000D03*
X158689000Y-136341000D03*
X158881300Y-99835400D03*
X156993300Y-98989500D03*
X135500000Y-129500000D03*
X139500000Y-133500000D03*
X141500000Y-131000000D03*
X142000000Y-129000000D03*
X140000000Y-128000000D03*
X137000000Y-127000000D03*
X135000000Y-126000000D03*
X134500000Y-123500000D03*
X130500000Y-123500000D03*
X127000000Y-126500000D03*
X138000000Y-123500000D03*
X133000000Y-120500000D03*
X128000000Y-121000000D03*
X126500000Y-118000000D03*
X130500000Y-119000000D03*
X130000000Y-114500000D03*
X134500000Y-115500000D03*
X127000000Y-112000000D03*
X124500000Y-111000000D03*
X123500000Y-107000000D03*
X127000000Y-108000000D03*
X125500000Y-101500000D03*
X128500000Y-101500000D03*
X131500000Y-101000000D03*
X134000000Y-99500000D03*
X127500000Y-90000000D03*
X130000000Y-87500000D03*
X133000000Y-85500000D03*
X131500000Y-89500000D03*
X134500000Y-88500000D03*
X140500000Y-91000000D03*
X146500000Y-87000000D03*
X150360400Y-91909900D03*
X150500000Y-87000000D03*
X153500000Y-80000000D03*
X158000000Y-84500000D03*
X155828300Y-88653800D03*
X158422800Y-88670300D03*
X167500000Y-86000000D03*
X170500000Y-87500000D03*
X174000000Y-92500000D03*
X171000000Y-91500000D03*
X167500000Y-89500000D03*
X173500000Y-101000000D03*
X160000000Y-102000000D03*
X138000000Y-105500000D03*
X141000000Y-103000000D03*
X177000000Y-109500000D03*
X172000000Y-105500000D03*
X172000000Y-108500000D03*
X175500000Y-108500000D03*
X175500000Y-114000000D03*
X174500000Y-111500000D03*
X173500000Y-117500000D03*
X170500000Y-118500000D03*
X170000000Y-122500000D03*
X170500000Y-113500000D03*
X169000000Y-132000000D03*
X166500000Y-131500000D03*
X164500000Y-126000000D03*
X161500000Y-128000000D03*
X159000000Y-128000000D03*
X167000000Y-124000000D03*
X158000000Y-130500000D03*
X164358600Y-101047500D03*
X154480900Y-86849400D03*
X136549900Y-88326000D03*
X141446100Y-92757300D03*
X134565100Y-94508000D03*
X160864200Y-94074700D03*
X156694600Y-94508000D03*
X152113000Y-93577400D03*
X128389800Y-93474600D03*
X130101000Y-91618900D03*
X139604400Y-87470200D03*
X146113100Y-84011100D03*
X134229400Y-130210700D03*
X125205300Y-113076000D03*
X161600000Y-131299000D03*
X171179600Y-123401200D03*
X174862300Y-105513100D03*
X164050000Y-87698400D03*
X135727100Y-90992800D03*
X128874000Y-112479400D03*
X140110500Y-131194300D03*
X136182000Y-91883900D03*
X142207000Y-88348100D03*
X138647900Y-90015200D03*
X134773000Y-90691500D03*
X130308000Y-95827600D03*
X145388000Y-90286200D03*
X163107700Y-90303300D03*
X156471700Y-87299300D03*
X144570600Y-89709000D03*
X163990700Y-89779300D03*
X144844400Y-91652700D03*
X163947600Y-91726800D03*
X170913700Y-109982300D03*
X146173200Y-90913100D03*
X162492600Y-91092300D03*
X156082400Y-125189800D03*
X152000100Y-117593300D03*
X149300800Y-108448700D03*
X149057000Y-99100300D03*
X143609500Y-88347300D03*
X137899100Y-87572500D03*
X154593300Y-112499900D03*
X163154400Y-97927900D03*
X166439300Y-95724800D03*
X156950500Y-112748800D03*
X155188700Y-105893600D03*
X163480300Y-93072300D03*
X143045000Y-110668100D03*
X141074700Y-97755400D03*
X147962700Y-93606500D03*
X161961800Y-94118700D03*
X145406700Y-109999900D03*
X142326800Y-100283000D03*
X145439300Y-111625200D03*
X141776800Y-95850000D03*
X148241100Y-94781200D03*
X161773100Y-95140900D03*
X141667500Y-94662300D03*
X145439900Y-112625700D03*
X162801700Y-94662300D03*
X143091800Y-112733800D03*
X130214100Y-102887100D03*
X147257200Y-117078400D03*
X148084900Y-99393700D03*
X172025200Y-96402300D03*
X170660700Y-98344900D03*
X168812600Y-101408600D03*
X164533000Y-104527100D03*
X145547900Y-114022500D03*
X147253400Y-99986100D03*
X137402500Y-99509200D03*
X147832200Y-114829200D03*
X150301300Y-108448200D03*
X150520300Y-99097000D03*
X168991800Y-108718000D03*
X163379200Y-107531800D03*
X159015900Y-113256000D03*
X165696800Y-102591000D03*
X167073800Y-100826100D03*
X157257400Y-114701500D03*
X167600300Y-99555400D03*
X157257600Y-113701000D03*
D15*
X143775300Y-117504800D02*
X142614400Y-114078600D01*
X152572800Y-116568100D02*
X154875500Y-118921200D01*
X153774200Y-112270900D02*
X152572800Y-116568100D01*
X153797200Y-112189000D02*
X153774200Y-112270900D01*
X153873600Y-112039000D02*
X153797200Y-112189000D01*
X153926200Y-111972400D02*
X153873600Y-112039000D01*
X154478000Y-111274400D02*
X153926200Y-111972400D01*
X154536300Y-111192000D02*
X154552700Y-111162800D01*
X154499200Y-111247600D02*
X154536300Y-111192000D01*
X154478000Y-111274400D02*
X154499200Y-111247600D01*
X156370400Y-107921000D02*
X154552700Y-111162800D01*
X150199100Y-105500500D02*
X153001400Y-105362100D01*
X151788500Y-116769500D02*
X152572800Y-116568100D01*
X151579600Y-116850200D02*
X151517500Y-116892900D01*
X151716400Y-116788000D02*
X151579600Y-116850200D01*
X151788500Y-116769500D02*
X151716400Y-116788000D01*
X150500800Y-117593500D02*
X151517500Y-116892900D01*
X147345900Y-117924300D02*
X150500800Y-117593500D01*
X147298100Y-117929300D02*
X147345900Y-117924300D01*
X147201500Y-117928500D02*
X147298100Y-117929300D01*
X147152800Y-117922500D02*
X147201500Y-117928500D01*
X143775300Y-117504800D02*
X147152800Y-117922500D01*
X153001400Y-105362100D02*
X156370400Y-107921000D01*
X161500000Y-122500000D02*
X164500000Y-121000000D01*
X158500000Y-124000000D02*
X161500000Y-122500000D01*
X156508400Y-121747900D02*
X158500000Y-124000000D01*
X157000000Y-119000000D02*
X156508400Y-121747900D01*
X151000000Y-113000000D02*
X150000000Y-111000000D01*
X145000000Y-120500000D02*
X143500000Y-119000000D01*
X145000000Y-120500000D02*
X147500000Y-120500000D01*
X147500000Y-125500000D02*
X147650800Y-126836200D01*
X151247900Y-126659900D02*
X152459800Y-126050200D01*
X152000000Y-129500000D02*
X151247900Y-126659900D01*
X147650800Y-126836200D02*
X143557700Y-126320400D01*
X147500000Y-129000000D02*
X147650800Y-126836200D01*
X163400500Y-110044500D02*
X163463100Y-115129900D01*
X163259900Y-109698500D02*
X163143700Y-109643300D01*
X163398800Y-109915300D02*
X163259900Y-109698500D01*
X163400500Y-110044500D02*
X163398800Y-109915300D01*
X162242600Y-109214100D02*
X163143700Y-109643300D01*
X164800000Y-115880000D02*
X163463100Y-115129900D01*
X139583700Y-119451300D02*
X143557700Y-126320400D01*
X162200000Y-115880000D02*
X156508400Y-121747900D01*
X141199900Y-108430300D02*
X139406600Y-109816900D01*
X151382100Y-101091700D02*
X156313000Y-103570400D01*
X162200000Y-115880000D02*
X163463100Y-115129900D01*
X139393500Y-116195300D02*
X139445400Y-113524500D01*
X134511800Y-108343100D02*
X132956500Y-111259000D01*
X150247000Y-127163400D02*
X151247900Y-126659900D01*
X150247000Y-127163400D02*
X147650800Y-126836200D01*
X146960900Y-106073800D02*
X147899900Y-108435100D01*
X150814100Y-109813300D02*
X153810900Y-110746900D01*
X152198400Y-132726300D02*
X154751000Y-131800000D01*
X147899500Y-132800000D02*
X152198400Y-132726300D01*
X145249000Y-131800000D02*
X147899500Y-132800000D01*
X132429700Y-111926700D02*
X146993400Y-123416900D01*
X132372200Y-111881500D02*
X132429700Y-111926700D01*
X132273900Y-111771700D02*
X132372200Y-111881500D01*
X132234500Y-111708600D02*
X132273900Y-111771700D01*
X130227500Y-108485600D02*
X132234500Y-111708600D01*
X146993400Y-123416900D02*
X150391400Y-124549700D01*
X155565000Y-93026100D02*
X154285400Y-95231800D01*
X137309300Y-85689100D02*
X138645000Y-83551500D01*
X136549900Y-88326000D02*
X137309300Y-85689100D01*
X150500000Y-87000000D02*
X154480900Y-86849400D01*
X165238900Y-84860900D02*
X165394000Y-87821400D01*
X167500000Y-86000000D02*
X165238900Y-84860900D01*
X170500000Y-87500000D02*
X171000000Y-91500000D01*
X170918400Y-93088900D02*
X171000000Y-91500000D01*
X170918400Y-93088900D02*
X167500000Y-89500000D01*
X158689000Y-136341000D02*
X158000000Y-130500000D01*
X167000000Y-124000000D02*
X170000000Y-122500000D01*
X164500000Y-126000000D02*
X161500000Y-128000000D01*
X164500000Y-126000000D02*
X167000000Y-124000000D01*
X159000000Y-128000000D02*
X161500000Y-128000000D01*
X158000000Y-130500000D02*
X159000000Y-128000000D01*
X130500000Y-123500000D02*
X127000000Y-126500000D01*
X172310000Y-128974500D02*
X173425100Y-125186900D01*
X172209200Y-129317000D02*
X172310000Y-128974500D01*
X171872100Y-129945400D02*
X172209200Y-129317000D01*
X171413600Y-130491600D02*
X171872100Y-129945400D01*
X170853000Y-130932500D02*
X171413600Y-130491600D01*
X170533600Y-131091000D02*
X170853000Y-130932500D01*
X169000000Y-132000000D02*
X170533600Y-131091000D01*
X177000000Y-109500000D02*
X177024900Y-105586900D01*
X167500000Y-89500000D02*
X165394000Y-87821400D01*
X123500000Y-107000000D02*
X123407500Y-100338100D01*
X132646100Y-133061500D02*
X132813100Y-132824900D01*
X129246100Y-131300500D02*
X132646100Y-133061500D01*
X128960500Y-131152300D02*
X129246100Y-131300500D01*
X128460500Y-130762200D02*
X128960500Y-131152300D01*
X128036400Y-130282700D02*
X128460500Y-130762200D01*
X127710300Y-129738800D02*
X128036400Y-130282700D01*
X127598700Y-129438800D02*
X127710300Y-129738800D01*
X126833000Y-126736600D02*
X127598700Y-129438800D01*
X127000000Y-126500000D02*
X126833000Y-126736600D01*
X174999600Y-99937600D02*
X177024900Y-105586900D01*
X174977000Y-99874400D02*
X174999600Y-99937600D01*
X174970500Y-99740700D02*
X174977000Y-99874400D01*
X174986900Y-99675400D02*
X174970500Y-99740700D01*
X175448500Y-97845000D02*
X174986900Y-99675400D01*
X155565000Y-93026100D02*
X154363100Y-90874000D01*
X137146200Y-133546900D02*
X132813100Y-132824900D01*
X137180000Y-133552500D02*
X137146200Y-133546900D01*
X137245800Y-133574200D02*
X137180000Y-133552500D01*
X137276700Y-133589900D02*
X137245800Y-133574200D01*
X138613200Y-134270800D02*
X137276700Y-133589900D01*
X138677200Y-134303500D02*
X138613200Y-134270800D01*
X138778400Y-134405100D02*
X138677200Y-134303500D01*
X138810600Y-134468800D02*
X138778400Y-134405100D01*
X139663200Y-136153100D02*
X138810600Y-134468800D01*
X125822300Y-97704100D02*
X126800000Y-93470100D01*
X125817900Y-97723200D02*
X125822300Y-97704100D01*
X125805800Y-97760600D02*
X125817900Y-97723200D01*
X125798100Y-97778700D02*
X125805800Y-97760600D01*
X125212000Y-99159400D02*
X125798100Y-97778700D01*
X125183900Y-99225500D02*
X125212000Y-99159400D01*
X125089600Y-99333700D02*
X125183900Y-99225500D01*
X125028300Y-99370200D02*
X125089600Y-99333700D01*
X123407500Y-100338100D02*
X125028300Y-99370200D01*
X175448500Y-97845000D02*
X170918400Y-93088900D01*
X125003500Y-118471300D02*
X123175100Y-113013100D01*
X125024000Y-118532700D02*
X125003500Y-118471300D01*
X125028900Y-118661700D02*
X125024000Y-118532700D01*
X125013100Y-118724600D02*
X125028900Y-118661700D01*
X124551500Y-120555000D02*
X125013100Y-118724600D01*
X132469300Y-96800000D02*
X137873300Y-101810600D01*
X160463200Y-93093100D02*
X155565000Y-93026100D01*
X159433700Y-135408700D02*
X158689000Y-136341000D01*
X159462500Y-135372600D02*
X159433700Y-135408700D01*
X159533600Y-135313700D02*
X159462500Y-135372600D01*
X159574000Y-135292200D02*
X159533600Y-135313700D01*
X159702100Y-135224000D02*
X159574000Y-135292200D01*
X159702300Y-135223900D02*
X159702100Y-135224000D01*
X160898600Y-134587900D02*
X159702300Y-135223900D01*
X160962000Y-134554300D02*
X160898600Y-134587900D01*
X161103400Y-134529600D02*
X160962000Y-134554300D01*
X161174000Y-134539800D02*
X161103400Y-134529600D01*
X163042700Y-134807500D02*
X161174000Y-134539800D01*
X176392500Y-118061900D02*
X177000000Y-109500000D01*
X163042700Y-134807500D02*
X169000000Y-132000000D01*
X123175100Y-113013100D02*
X123500000Y-107000000D01*
X173969400Y-120742500D02*
X173425100Y-125186900D01*
X173973300Y-120711200D02*
X173969400Y-120742500D01*
X173989600Y-120650300D02*
X173973300Y-120711200D01*
X174001900Y-120621300D02*
X173989600Y-120650300D01*
X174588000Y-119240600D02*
X174001900Y-120621300D01*
X174616100Y-119174500D02*
X174588000Y-119240600D01*
X174710400Y-119066300D02*
X174616100Y-119174500D01*
X174771700Y-119029800D02*
X174710400Y-119066300D01*
X176392500Y-118061900D02*
X174771700Y-119029800D01*
X132469300Y-96800000D02*
X138606500Y-94849200D01*
X124551500Y-120555000D02*
X127000000Y-126500000D01*
X156993300Y-98989500D02*
X158881300Y-99835400D01*
X160029800Y-84228300D02*
X159061900Y-82607500D01*
X160136800Y-84354800D02*
X160184600Y-84383400D01*
X160058100Y-84275800D02*
X160136800Y-84354800D01*
X160029800Y-84228300D02*
X160058100Y-84275800D01*
X164488100Y-86969400D02*
X160184600Y-84383400D01*
X164530000Y-86994500D02*
X164488100Y-86969400D01*
X164608800Y-87055300D02*
X164530000Y-86994500D01*
X164643900Y-87089600D02*
X164608800Y-87055300D01*
X165394000Y-87821400D02*
X164643900Y-87089600D01*
X142192500Y-83409600D02*
X146186900Y-81224900D01*
X142180900Y-83416000D02*
X142192500Y-83409600D01*
X142157500Y-83427100D02*
X142180900Y-83416000D01*
X142145100Y-83432100D02*
X142157500Y-83427100D01*
X140754400Y-83994000D02*
X142145100Y-83432100D01*
X140687700Y-84020900D02*
X140754400Y-83994000D01*
X140544600Y-84030600D02*
X140687700Y-84020900D01*
X140475400Y-84013100D02*
X140544600Y-84030600D01*
X138645000Y-83551500D02*
X140475400Y-84013100D01*
X147962500Y-92756000D02*
X141446100Y-92757300D01*
X148004600Y-92755900D02*
X147962500Y-92756000D01*
X148088900Y-92764300D02*
X148004600Y-92755900D01*
X148131100Y-92772800D02*
X148088900Y-92764300D01*
X152113000Y-93577400D02*
X148131100Y-92772800D01*
X141446100Y-92757300D02*
X134565100Y-94508000D01*
X160864200Y-94074700D02*
X156694600Y-94508000D01*
D16*
X166544700Y-125794400D02*
X161600000Y-131299000D01*
X166774800Y-125538200D02*
X166544700Y-125794400D01*
X167330200Y-125132200D02*
X166774800Y-125538200D01*
X167646500Y-124989800D02*
X167330200Y-125132200D01*
X171179600Y-123401200D02*
X167646500Y-124989800D01*
X133764300Y-126196700D02*
X125205300Y-113076000D01*
X133903200Y-126409800D02*
X133764300Y-126196700D01*
X134110300Y-126867300D02*
X133903200Y-126409800D01*
X134247000Y-127356400D02*
X134110300Y-126867300D01*
X134307000Y-127855000D02*
X134247000Y-127356400D01*
X134298700Y-128108800D02*
X134307000Y-127855000D01*
X134229400Y-130210700D02*
X134298700Y-128108800D01*
X171179600Y-123401200D02*
X174862300Y-105513100D01*
X154593500Y-86158000D02*
X164050000Y-87698400D01*
X154548700Y-86152000D02*
X154533400Y-86150900D01*
X154579000Y-86155600D02*
X154548700Y-86152000D01*
X154593500Y-86158000D02*
X154579000Y-86155600D01*
X149752400Y-85791200D02*
X154533400Y-86150900D01*
X149367300Y-85762400D02*
X149752400Y-85791200D01*
X148628500Y-85527000D02*
X149367300Y-85762400D01*
X148296400Y-85326900D02*
X148628500Y-85527000D01*
X146113100Y-84011100D02*
X148296400Y-85326900D01*
X125205300Y-113076000D02*
X128389800Y-93474600D01*
X170045900Y-98680600D02*
X164050000Y-87698400D01*
X170076600Y-98732000D02*
X170088400Y-98748800D01*
X170055300Y-98697800D02*
X170076600Y-98732000D01*
X170045900Y-98680600D02*
X170055300Y-98697800D01*
X174862300Y-105513100D02*
X170088400Y-98748800D01*
X128389800Y-93474600D02*
X130101000Y-91618900D01*
X139604400Y-87470200D02*
X146113100Y-84011100D01*
X129113400Y-102859700D02*
X128874000Y-112479400D01*
X129115700Y-102769100D02*
X129113400Y-102859700D01*
X129150200Y-102589500D02*
X129115700Y-102769100D01*
X129181700Y-102504600D02*
X129150200Y-102589500D01*
X131436900Y-96417500D02*
X129181700Y-102504600D01*
X131467500Y-96334800D02*
X131436900Y-96417500D01*
X131555900Y-96179000D02*
X131467500Y-96334800D01*
X131611400Y-96110000D02*
X131555900Y-96179000D01*
X135727100Y-90992800D02*
X131611400Y-96110000D01*
X129593400Y-108783200D02*
X140110500Y-131194300D01*
X129561000Y-108714300D02*
X129593400Y-108783200D01*
X129527300Y-108564600D02*
X129561000Y-108714300D01*
X129527000Y-108487300D02*
X129527300Y-108564600D01*
X129513600Y-102888800D02*
X129527000Y-108487300D01*
X129513400Y-102826600D02*
X129513600Y-102888800D01*
X129535500Y-102702300D02*
X129513400Y-102826600D01*
X129557200Y-102643700D02*
X129535500Y-102702300D01*
X131812400Y-96556600D02*
X129557200Y-102643700D01*
X131835900Y-96493300D02*
X131812400Y-96556600D01*
X131906800Y-96377100D02*
X131835900Y-96493300D01*
X131952300Y-96327300D02*
X131906800Y-96377100D01*
X134048100Y-94035300D02*
X131952300Y-96327300D01*
X134067800Y-94014600D02*
X134048100Y-94035300D01*
X136182000Y-91883900D02*
X134067800Y-94014600D01*
X142207000Y-88348100D02*
X138647900Y-90015200D01*
X134773000Y-90691500D02*
X130308000Y-95827600D01*
X154209700Y-89380400D02*
X145388000Y-90286200D01*
X154287900Y-89372300D02*
X154209700Y-89380400D01*
X154445300Y-89372700D02*
X154287900Y-89372300D01*
X154523500Y-89381100D02*
X154445300Y-89372700D01*
X163107700Y-90303300D02*
X154523500Y-89381100D01*
X158639400Y-88004100D02*
X156471700Y-87299300D01*
X158643400Y-88005400D02*
X158639400Y-88004100D01*
X163990700Y-89779300D02*
X158643400Y-88005400D01*
X156471700Y-87299300D02*
X144570600Y-89709000D01*
X169504100Y-101296400D02*
X170913700Y-109982300D01*
X169474800Y-101176500D02*
X169459000Y-101138700D01*
X169497400Y-101255300D02*
X169474800Y-101176500D01*
X169504100Y-101296400D02*
X169497400Y-101255300D01*
X167085700Y-95454900D02*
X169459000Y-101138700D01*
X167007300Y-95311200D02*
X166972100Y-95270000D01*
X167064400Y-95404000D02*
X167007300Y-95311200D01*
X167085700Y-95454900D02*
X167064400Y-95404000D01*
X163947600Y-91726800D02*
X166972100Y-95270000D01*
X146193600Y-91613300D02*
X144844400Y-91652700D01*
X146270400Y-91607300D02*
X146296300Y-91602700D01*
X146219300Y-91612600D02*
X146270400Y-91607300D01*
X146193600Y-91613300D02*
X146219300Y-91612600D01*
X154240000Y-90184400D02*
X146296300Y-91602700D01*
X154305000Y-90172800D02*
X154240000Y-90184400D01*
X154437400Y-90174300D02*
X154305000Y-90172800D01*
X154502300Y-90187500D02*
X154437400Y-90174300D01*
X162353400Y-91778800D02*
X154502300Y-90187500D01*
X162482000Y-91794000D02*
X162524700Y-91792100D01*
X162395400Y-91787300D02*
X162482000Y-91794000D01*
X162353400Y-91778800D02*
X162395400Y-91787300D01*
X163947600Y-91726800D02*
X162524700Y-91792100D01*
X154209900Y-89783700D02*
X146173200Y-90913100D01*
X154292200Y-89772100D02*
X154209900Y-89783700D01*
X154459700Y-89774100D02*
X154292200Y-89772100D01*
X154541400Y-89787500D02*
X154459700Y-89774100D01*
X162492600Y-91092300D02*
X154541400Y-89787500D01*
X156082400Y-125189800D02*
X152000100Y-117593300D01*
X149098100Y-105507600D02*
X149057000Y-99100300D01*
X149098100Y-105507600D02*
X149100800Y-105577000D01*
X149300800Y-108448700D02*
X149100800Y-105577000D01*
X139355900Y-88125200D02*
X137899100Y-87572500D01*
X139651600Y-88176400D02*
X139750400Y-88155300D01*
X139450300Y-88161000D02*
X139651600Y-88176400D01*
X139355900Y-88125200D02*
X139450300Y-88161000D01*
X142061000Y-87663000D02*
X139750400Y-88155300D01*
X142187500Y-87635900D02*
X142061000Y-87663000D01*
X142444000Y-87676200D02*
X142187500Y-87635900D01*
X142556500Y-87741000D02*
X142444000Y-87676200D01*
X143609500Y-88347300D02*
X142556500Y-87741000D01*
X157544400Y-110288700D02*
X163154400Y-97927900D01*
X157506200Y-110373000D02*
X157544400Y-110288700D01*
X157388100Y-110516400D02*
X157506200Y-110373000D01*
X157311900Y-110570500D02*
X157388100Y-110516400D01*
X154593300Y-112499900D02*
X157311900Y-110570500D01*
X166439300Y-95724800D02*
X156950500Y-112748800D01*
X163502100Y-94652600D02*
X163480300Y-93072300D01*
X163503600Y-94766800D02*
X163502100Y-94652600D01*
X163434700Y-94983000D02*
X163503600Y-94766800D01*
X163367900Y-95074700D02*
X163434700Y-94983000D01*
X156879200Y-103982800D02*
X163367900Y-95074700D01*
X156869200Y-103996700D02*
X156879200Y-103982800D01*
X156848500Y-104022400D02*
X156869200Y-103996700D01*
X156837100Y-104035200D02*
X156848500Y-104022400D01*
X155188700Y-105893600D02*
X156837100Y-104035200D01*
X143045000Y-110668100D02*
X141074700Y-97755400D01*
X154039200Y-95887600D02*
X147962700Y-93606500D01*
X154314000Y-95938000D02*
X154406700Y-95921700D01*
X154126700Y-95920500D02*
X154314000Y-95938000D01*
X154039200Y-95887600D02*
X154126700Y-95920500D01*
X160985500Y-94764600D02*
X154406700Y-95921700D01*
X161244600Y-94670100D02*
X161315200Y-94610700D01*
X161076300Y-94748700D02*
X161244600Y-94670100D01*
X160985500Y-94764600D02*
X161076300Y-94748700D01*
X161322100Y-94604900D02*
X161315200Y-94610700D01*
X161349900Y-94582700D02*
X161322100Y-94604900D01*
X161961800Y-94118700D02*
X161349900Y-94582700D01*
X142326800Y-100283000D02*
X145406700Y-109999900D01*
X146076100Y-109793500D02*
X141776800Y-95850000D01*
X146114000Y-109916500D02*
X146076100Y-109793500D01*
X146097800Y-110171900D02*
X146114000Y-109916500D01*
X146044800Y-110289000D02*
X146097800Y-110171900D01*
X145439300Y-111625200D02*
X146044800Y-110289000D01*
X154460500Y-96318800D02*
X161773100Y-95140900D01*
X154346700Y-96337100D02*
X154460500Y-96318800D01*
X154117400Y-96326000D02*
X154346700Y-96337100D01*
X154005500Y-96296600D02*
X154117400Y-96326000D01*
X148241100Y-94781200D02*
X154005500Y-96296600D01*
X147861400Y-98729800D02*
X146699600Y-99120900D01*
X147882500Y-98723100D02*
X147861400Y-98729800D01*
X148854600Y-98429700D02*
X147882500Y-98723100D01*
X148870300Y-98425000D02*
X148854600Y-98429700D01*
X148903500Y-98416600D02*
X148870300Y-98425000D01*
X148920300Y-98413300D02*
X148903500Y-98416600D01*
X161909800Y-95827900D02*
X148920300Y-98413300D01*
X162324900Y-95601400D02*
X162397700Y-95458000D01*
X162068400Y-95796200D02*
X162324900Y-95601400D01*
X161909800Y-95827900D02*
X162068400Y-95796200D01*
X162801700Y-94662300D02*
X162397700Y-95458000D01*
X146564300Y-99860000D02*
X146699600Y-99120900D01*
X146564300Y-99860000D02*
X146557400Y-99906600D01*
X145867000Y-105948800D02*
X146557400Y-99906600D01*
X145862700Y-106185000D02*
X145876100Y-106261900D01*
X145858100Y-106027200D02*
X145862700Y-106185000D01*
X145867000Y-105948800D02*
X145858100Y-106027200D01*
X146491500Y-109811800D02*
X145876100Y-106261900D01*
X146510400Y-109921000D02*
X146491500Y-109811800D01*
X146504000Y-110142700D02*
X146510400Y-109921000D01*
X146479000Y-110249700D02*
X146504000Y-110142700D01*
X146121500Y-111784100D02*
X146479000Y-110249700D01*
X146099800Y-111877600D02*
X146121500Y-111784100D01*
X146006900Y-112046900D02*
X146099800Y-111877600D01*
X145939700Y-112115400D02*
X146006900Y-112046900D01*
X145439900Y-112625700D02*
X145939700Y-112115400D01*
X146699600Y-99120900D02*
X141667500Y-94662300D01*
X139058600Y-110424800D02*
X143091800Y-112733800D01*
X139029900Y-110408400D02*
X139058600Y-110424800D01*
X138976800Y-110371000D02*
X139029900Y-110408400D01*
X138951700Y-110349600D02*
X138976800Y-110371000D01*
X130214100Y-102887100D02*
X138951700Y-110349600D01*
X148599300Y-108395100D02*
X148084900Y-99393700D01*
X148600400Y-108442500D02*
X148599300Y-108395100D01*
X148532700Y-114836600D02*
X148600400Y-108442500D01*
X148531700Y-114932500D02*
X148532700Y-114836600D01*
X148477600Y-115118000D02*
X148531700Y-114932500D01*
X148426900Y-115199400D02*
X148477600Y-115118000D01*
X147257200Y-117078400D02*
X148426900Y-115199400D01*
X172025200Y-96402300D02*
X170660700Y-98344900D01*
X168812600Y-101408600D02*
X164533000Y-104527100D01*
X146269700Y-105960000D02*
X147253400Y-99986100D01*
X146260700Y-106135700D02*
X146270700Y-106193500D01*
X146260100Y-106018000D02*
X146260700Y-106135700D01*
X146269700Y-105960000D02*
X146260100Y-106018000D01*
X146886100Y-109743400D02*
X146270700Y-106193500D01*
X146911900Y-109892400D02*
X146886100Y-109743400D01*
X146903100Y-110194700D02*
X146911900Y-109892400D01*
X146869000Y-110340600D02*
X146903100Y-110194700D01*
X146511600Y-111875000D02*
X146869000Y-110340600D01*
X146500000Y-111924600D02*
X146511600Y-111875000D01*
X146468500Y-112019500D02*
X146500000Y-111924600D01*
X146448500Y-112065300D02*
X146468500Y-112019500D01*
X146082000Y-112905700D02*
X146448500Y-112065300D01*
X146071700Y-112928100D02*
X146082000Y-112905700D01*
X145547900Y-114022500D02*
X146071700Y-112928100D01*
X138486500Y-101471900D02*
X137402500Y-99509200D01*
X138499200Y-101496100D02*
X138486500Y-101471900D01*
X141825800Y-108115800D02*
X138499200Y-101496100D01*
X141848100Y-108160200D02*
X141825800Y-108115800D01*
X141879400Y-108253100D02*
X141848100Y-108160200D01*
X141888400Y-108301200D02*
X141879400Y-108253100D01*
X142356500Y-110797200D02*
X141888400Y-108301200D01*
X142469500Y-111080400D02*
X142541000Y-111154600D01*
X142375300Y-110897700D02*
X142469500Y-111080400D01*
X142356500Y-110797200D02*
X142375300Y-110897700D01*
X143595800Y-112247300D02*
X142541000Y-111154600D01*
X143621400Y-112273800D02*
X143595800Y-112247300D01*
X143666600Y-112331700D02*
X143621400Y-112273800D01*
X143686000Y-112362800D02*
X143666600Y-112331700D01*
X144953700Y-114393500D02*
X143686000Y-112362800D01*
X145342700Y-114714200D02*
X145515600Y-114722300D01*
X145044700Y-114539500D02*
X145342700Y-114714200D01*
X144953700Y-114393500D02*
X145044700Y-114539500D01*
X147832200Y-114829200D02*
X145515600Y-114722300D01*
X149507500Y-105389200D02*
X150520300Y-99097000D01*
X149504000Y-105616300D02*
X149524800Y-105690300D01*
X149495400Y-105464300D02*
X149504000Y-105616300D01*
X149507500Y-105389200D02*
X149495400Y-105464300D01*
X150301300Y-108448200D02*
X149524800Y-105690300D01*
X168991800Y-108718000D02*
X163379200Y-107531800D01*
X164074100Y-103997800D02*
X165696800Y-102591000D01*
X163947000Y-104138100D02*
X163916800Y-104193900D01*
X164026000Y-104039600D02*
X163947000Y-104138100D01*
X164074100Y-103997800D02*
X164026000Y-104039600D01*
X159015900Y-113256000D02*
X163916800Y-104193900D01*
X157757700Y-114191600D02*
X157257400Y-114701500D01*
X157866100Y-114053100D02*
X157891300Y-113999500D01*
X157798900Y-114149600D02*
X157866100Y-114053100D01*
X157757700Y-114191600D02*
X157798900Y-114149600D01*
X158382200Y-112957500D02*
X157891300Y-113999500D01*
X158388700Y-112943700D02*
X158382200Y-112957500D01*
X158402300Y-112917700D02*
X158388700Y-112943700D01*
X158409700Y-112905000D02*
X158402300Y-112917700D01*
X163580200Y-103975400D02*
X158409700Y-112905000D01*
X163606700Y-103929600D02*
X163580200Y-103975400D01*
X163669400Y-103842100D02*
X163606700Y-103929600D01*
X163704900Y-103801600D02*
X163669400Y-103842100D01*
X165169900Y-102129400D02*
X163704900Y-103801600D01*
X165200400Y-102094600D02*
X165169900Y-102129400D01*
X165269400Y-102034100D02*
X165200400Y-102094600D01*
X165307100Y-102008900D02*
X165269400Y-102034100D01*
X167073800Y-100826100D02*
X165307100Y-102008900D01*
X163246600Y-103752700D02*
X157257600Y-113701000D01*
X163281400Y-103694800D02*
X163246600Y-103752700D01*
X163360400Y-103586900D02*
X163281400Y-103694800D01*
X163403600Y-103537600D02*
X163360400Y-103586900D01*
X164868700Y-101865500D02*
X163403600Y-103537600D01*
X164890800Y-101840300D02*
X164868700Y-101865500D01*
X164938100Y-101792400D02*
X164890800Y-101840300D01*
X164963900Y-101769400D02*
X164938100Y-101792400D01*
X166607500Y-100303300D02*
X164963900Y-101769400D01*
X166618900Y-100293200D02*
X166607500Y-100303300D01*
X166641700Y-100274600D02*
X166618900Y-100293200D01*
X166653400Y-100265800D02*
X166641700Y-100274600D01*
X167600300Y-99555400D02*
X166653400Y-100265800D01*
D17*
G36*
X158711460Y-81606658D02*
X159079978Y-82518770D01*
X159076059Y-82522689D01*
X159085292Y-82531922D01*
X159089547Y-82542453D01*
X159094017Y-82540647D01*
X159146772Y-82593402D01*
X159271055Y-82469119D01*
X160062337Y-82149421D01*
X160653272Y-82386850D01*
X160614188Y-82451672D01*
X160028091Y-83832429D01*
X160006867Y-83896079D01*
X159994879Y-84014229D01*
X160016283Y-84131041D01*
X160069382Y-84237266D01*
X160149972Y-84324492D01*
X160251672Y-84385812D01*
X161632429Y-84971909D01*
X161696079Y-84993133D01*
X161814229Y-85005121D01*
X161931041Y-84983717D01*
X162037266Y-84930618D01*
X162124492Y-84850028D01*
X162185812Y-84748328D01*
X162771909Y-83367571D01*
X162793133Y-83303921D01*
X162798720Y-83248860D01*
X172038883Y-86961426D01*
X176009146Y-96818632D01*
X175936028Y-96824372D01*
X175595033Y-97627706D01*
X175462640Y-97760099D01*
X175516130Y-97813589D01*
X175514061Y-97818464D01*
X175526127Y-97823586D01*
X175533353Y-97830812D01*
X175536273Y-97827892D01*
X176508153Y-98240431D01*
X176563449Y-98194831D01*
X176809330Y-98805294D01*
X176771610Y-98803803D01*
X176656337Y-98832356D01*
X175265561Y-99394266D01*
X175205546Y-99424266D01*
X175113525Y-99499334D01*
X175046061Y-99597067D01*
X175008495Y-99709726D01*
X175003803Y-99828390D01*
X175032356Y-99943663D01*
X175594266Y-101334439D01*
X175624266Y-101394454D01*
X175699334Y-101486475D01*
X175797067Y-101553939D01*
X175909726Y-101591505D01*
X176028390Y-101596197D01*
X176143663Y-101567644D01*
X177534439Y-101005734D01*
X177594454Y-100975734D01*
X177661504Y-100921037D01*
X177730000Y-101091096D01*
X177730000Y-117107716D01*
X177485063Y-117707389D01*
X177458851Y-117684993D01*
X176481230Y-118079978D01*
X176477311Y-118076059D01*
X176468078Y-118085292D01*
X176457547Y-118089547D01*
X176459353Y-118094017D01*
X176406598Y-118146772D01*
X176530881Y-118271055D01*
X176862100Y-119090852D01*
X176917800Y-119096205D01*
X176671632Y-119698891D01*
X176650028Y-119675508D01*
X176548328Y-119614188D01*
X175167571Y-119028091D01*
X175103921Y-119006867D01*
X174985771Y-118994879D01*
X174868959Y-119016283D01*
X174762734Y-119069382D01*
X174675508Y-119149972D01*
X174614188Y-119251672D01*
X174028091Y-120632429D01*
X174006867Y-120696079D01*
X173994879Y-120814229D01*
X174016283Y-120931041D01*
X174069382Y-121037266D01*
X174149972Y-121124492D01*
X174251672Y-121185812D01*
X175632429Y-121771909D01*
X175696079Y-121793133D01*
X175811456Y-121804840D01*
X172030238Y-131062302D01*
X164089322Y-135179815D01*
X163219848Y-134913990D01*
X163127541Y-134821683D01*
X163078460Y-134870764D01*
X163075884Y-134869976D01*
X163074403Y-134874821D01*
X163056828Y-134892396D01*
X163066173Y-134901741D01*
X162772386Y-135862670D01*
X162203492Y-136157652D01*
X162186946Y-136111975D01*
X161557742Y-134928614D01*
X161792487Y-134928614D01*
X161840129Y-135170190D01*
X161933985Y-135397830D01*
X162070448Y-135602784D01*
X162244273Y-135777178D01*
X162447568Y-135913657D01*
X162664509Y-135873492D01*
X162980253Y-134840739D01*
X162763089Y-134774345D01*
X163105121Y-134774345D01*
X164137874Y-135090090D01*
X164292484Y-134932698D01*
X164292887Y-134686470D01*
X164245245Y-134444894D01*
X164151389Y-134217254D01*
X164014926Y-134012300D01*
X163841101Y-133837906D01*
X163637806Y-133701427D01*
X163420865Y-133741592D01*
X163105121Y-134774345D01*
X162763089Y-134774345D01*
X161947500Y-134524994D01*
X161792890Y-134682386D01*
X161792487Y-134928614D01*
X161557742Y-134928614D01*
X161482739Y-134787554D01*
X161446630Y-134731003D01*
X161362354Y-134647333D01*
X161258104Y-134590455D01*
X161142136Y-134564871D01*
X161023632Y-134572608D01*
X160911975Y-134613054D01*
X159587554Y-135317261D01*
X159531003Y-135353370D01*
X159447333Y-135437646D01*
X159390455Y-135541896D01*
X159364871Y-135657864D01*
X159372608Y-135776368D01*
X159413054Y-135888025D01*
X160117261Y-137212446D01*
X160130192Y-137232697D01*
X156800000Y-138959463D01*
X156800000Y-134212423D01*
X161936572Y-134212423D01*
X161976737Y-134429364D01*
X163009490Y-134745108D01*
X163325235Y-133712355D01*
X163167843Y-133557745D01*
X162921615Y-133557342D01*
X162680039Y-133604984D01*
X162452399Y-133698840D01*
X162247445Y-133835303D01*
X162073051Y-134009128D01*
X161936572Y-134212423D01*
X156800000Y-134212423D01*
X156800000Y-132041597D01*
X158760861Y-127531616D01*
X169314485Y-120163992D01*
X169355639Y-120125604D01*
X169384470Y-120077272D01*
X169400000Y-120000000D01*
X169400000Y-109430177D01*
X169499085Y-109367296D01*
X169615540Y-109256398D01*
X169708236Y-109124992D01*
X169773643Y-108978085D01*
X169809271Y-108821271D01*
X169811836Y-108637595D01*
X169780601Y-108479847D01*
X169719321Y-108331170D01*
X169630329Y-108197228D01*
X169517017Y-108083122D01*
X169400000Y-108004193D01*
X169400000Y-103901081D01*
X170298416Y-109437082D01*
X170282504Y-109452664D01*
X170191651Y-109585350D01*
X170128301Y-109733157D01*
X170094867Y-109890453D01*
X170092622Y-110051248D01*
X170121651Y-110209416D01*
X170180849Y-110358934D01*
X170267962Y-110494106D01*
X170379670Y-110609783D01*
X170511719Y-110701560D01*
X170659080Y-110765940D01*
X170816139Y-110800472D01*
X170976914Y-110803840D01*
X171135281Y-110775915D01*
X171285209Y-110717762D01*
X171420985Y-110631596D01*
X171537440Y-110520698D01*
X171630136Y-110389292D01*
X171695543Y-110242385D01*
X171731171Y-110085571D01*
X171733736Y-109901895D01*
X171702501Y-109744147D01*
X171641221Y-109595470D01*
X171552229Y-109461528D01*
X171438917Y-109347422D01*
X171325002Y-109270585D01*
X170017385Y-101213101D01*
X170017377Y-101213072D01*
X170017325Y-101212736D01*
X170010625Y-101171636D01*
X170003704Y-101145548D01*
X169999201Y-101118935D01*
X169997249Y-101111943D01*
X169974649Y-101033142D01*
X169964814Y-101008306D01*
X169957327Y-100982677D01*
X169954574Y-100975959D01*
X169938774Y-100938159D01*
X169938773Y-100938156D01*
X167565548Y-95254537D01*
X167565540Y-95254521D01*
X167565393Y-95254164D01*
X167544093Y-95203264D01*
X167526678Y-95170931D01*
X167511040Y-95137706D01*
X167507279Y-95131496D01*
X167450179Y-95038696D01*
X167427942Y-95009403D01*
X167407332Y-94978974D01*
X167402655Y-94973421D01*
X167367455Y-94932221D01*
X167367452Y-94932218D01*
X164755479Y-91872292D01*
X164765071Y-91830071D01*
X164767636Y-91646395D01*
X164736401Y-91488647D01*
X164675121Y-91339970D01*
X164586129Y-91206028D01*
X164472817Y-91091922D01*
X164339499Y-91001998D01*
X164191254Y-90939681D01*
X164033728Y-90907346D01*
X163872922Y-90906223D01*
X163714960Y-90936356D01*
X163565859Y-90996597D01*
X163431299Y-91084650D01*
X163316404Y-91197164D01*
X163306384Y-91211797D01*
X163310071Y-91195571D01*
X163311405Y-91100067D01*
X163329281Y-91096915D01*
X163479209Y-91038762D01*
X163614985Y-90952596D01*
X163731440Y-90841698D01*
X163824136Y-90710292D01*
X163876040Y-90593713D01*
X163893139Y-90597472D01*
X164053914Y-90600840D01*
X164212281Y-90572915D01*
X164362209Y-90514762D01*
X164497985Y-90428596D01*
X164614440Y-90317698D01*
X164707136Y-90186292D01*
X164755968Y-90076613D01*
X169589492Y-98929783D01*
X169589501Y-98929796D01*
X169589597Y-98929975D01*
X169598997Y-98947175D01*
X169605296Y-98956423D01*
X169610112Y-98966514D01*
X169613906Y-98972703D01*
X169635207Y-99006903D01*
X169641771Y-99015452D01*
X169646945Y-99024910D01*
X169651076Y-99030880D01*
X169662876Y-99047680D01*
X169662918Y-99047729D01*
X169663550Y-99048638D01*
X174070676Y-105293244D01*
X174043467Y-105421253D01*
X174041222Y-105582048D01*
X174070251Y-105740216D01*
X174129449Y-105889734D01*
X174216562Y-106024906D01*
X174224364Y-106032985D01*
X170799131Y-122670483D01*
X170797859Y-122670997D01*
X170663299Y-122759050D01*
X170548404Y-122871564D01*
X170457551Y-123004250D01*
X170394201Y-123152057D01*
X170386648Y-123187592D01*
X167433255Y-124515536D01*
X167433243Y-124515543D01*
X167433030Y-124515637D01*
X167116729Y-124658037D01*
X167073149Y-124683034D01*
X167029218Y-124708160D01*
X167028730Y-124708511D01*
X167028696Y-124708531D01*
X167028662Y-124708560D01*
X167023327Y-124712404D01*
X166467927Y-125118404D01*
X166430342Y-125151970D01*
X166392816Y-125185372D01*
X166392276Y-125185964D01*
X166392232Y-125186004D01*
X166392192Y-125186057D01*
X166387927Y-125190739D01*
X166157895Y-125446864D01*
X166157857Y-125446905D01*
X161637416Y-130479206D01*
X161525322Y-130478423D01*
X161367360Y-130508556D01*
X161218259Y-130568797D01*
X161083699Y-130656850D01*
X160968804Y-130769364D01*
X160877951Y-130902050D01*
X160814601Y-131049857D01*
X160781167Y-131207153D01*
X160778922Y-131367948D01*
X160807951Y-131526116D01*
X160867149Y-131675634D01*
X160954262Y-131810806D01*
X161065970Y-131926483D01*
X161198019Y-132018260D01*
X161345380Y-132082640D01*
X161502439Y-132117172D01*
X161663214Y-132120540D01*
X161821581Y-132092615D01*
X161971509Y-132034462D01*
X162107285Y-131948296D01*
X162223740Y-131837398D01*
X162316436Y-131705992D01*
X162381843Y-131559085D01*
X162417471Y-131402271D01*
X162420036Y-131218595D01*
X162411219Y-131174066D01*
X165584527Y-127641437D01*
X165575504Y-128287563D01*
X165696578Y-128947241D01*
X165943478Y-129570839D01*
X166306800Y-130134604D01*
X166772705Y-130617063D01*
X167323447Y-130999839D01*
X167938048Y-131268351D01*
X168593099Y-131412374D01*
X169263649Y-131426420D01*
X169924156Y-131309954D01*
X170549462Y-131067414D01*
X171115750Y-130708037D01*
X171601450Y-130245511D01*
X171988061Y-129697455D01*
X172260858Y-129084743D01*
X172409450Y-128430714D01*
X172420147Y-127664652D01*
X172289874Y-127006728D01*
X172034292Y-126386638D01*
X171663134Y-125828001D01*
X171190538Y-125352094D01*
X170634505Y-124977045D01*
X170016215Y-124717140D01*
X169676169Y-124647339D01*
X170813298Y-124136048D01*
X170924980Y-124184840D01*
X171082039Y-124219372D01*
X171242814Y-124222740D01*
X171401181Y-124194815D01*
X171551109Y-124136662D01*
X171686885Y-124050496D01*
X171803340Y-123939598D01*
X171896036Y-123808192D01*
X171961443Y-123661285D01*
X171997071Y-123504471D01*
X171999636Y-123320795D01*
X171968401Y-123163047D01*
X171907121Y-123014370D01*
X171818129Y-122880428D01*
X171817789Y-122880086D01*
X172667825Y-118751176D01*
X175342419Y-118751176D01*
X175497062Y-118942785D01*
X175686116Y-119100543D01*
X175902313Y-119218387D01*
X176137347Y-119291787D01*
X176382184Y-119317925D01*
X176626064Y-119296051D01*
X176769382Y-119128312D01*
X176364828Y-118127008D01*
X175363523Y-118531561D01*
X175342419Y-118751176D01*
X172667825Y-118751176D01*
X172811841Y-118051645D01*
X175136450Y-118051645D01*
X175158324Y-118295525D01*
X175326063Y-118438843D01*
X176327367Y-118034289D01*
X175922814Y-117032984D01*
X175703199Y-117011880D01*
X175511590Y-117166523D01*
X175353832Y-117355577D01*
X175235988Y-117571774D01*
X175162588Y-117806808D01*
X175136450Y-118051645D01*
X172811841Y-118051645D01*
X173029269Y-116995524D01*
X176015532Y-116995524D01*
X176420086Y-117996828D01*
X177421391Y-117592275D01*
X177442495Y-117372660D01*
X177287852Y-117181051D01*
X177098798Y-117023293D01*
X176882601Y-116905449D01*
X176647567Y-116832049D01*
X176402730Y-116805911D01*
X176158850Y-116827785D01*
X176015532Y-116995524D01*
X173029269Y-116995524D01*
X175242993Y-106242734D01*
X175369585Y-106162396D01*
X175486040Y-106051498D01*
X175578736Y-105920092D01*
X175644143Y-105773185D01*
X175679771Y-105616371D01*
X175682336Y-105432695D01*
X175651101Y-105274947D01*
X175589821Y-105126270D01*
X175500829Y-104992328D01*
X175387517Y-104878222D01*
X175254199Y-104788298D01*
X175105954Y-104725981D01*
X174948428Y-104693646D01*
X174920292Y-104693450D01*
X170974624Y-99102698D01*
X171032209Y-99080362D01*
X171167985Y-98994196D01*
X171262063Y-98904607D01*
X175053021Y-98904607D01*
X175193389Y-99074821D01*
X175438226Y-99100960D01*
X175683459Y-99078830D01*
X175919662Y-99009284D01*
X176137758Y-98894992D01*
X176298274Y-98765441D01*
X176300619Y-98767786D01*
X176322581Y-98745824D01*
X176329366Y-98740348D01*
X176336009Y-98732396D01*
X176371332Y-98697073D01*
X176368164Y-98693905D01*
X176486348Y-98552432D01*
X176469080Y-98332482D01*
X175665746Y-97991487D01*
X175533353Y-97859094D01*
X175479863Y-97912584D01*
X175474988Y-97910515D01*
X175469866Y-97922581D01*
X175462640Y-97929807D01*
X175465560Y-97932727D01*
X175053021Y-98904607D01*
X171262063Y-98904607D01*
X171284440Y-98883298D01*
X171377136Y-98751892D01*
X171442543Y-98604985D01*
X171478171Y-98448171D01*
X171480736Y-98264495D01*
X171452566Y-98122228D01*
X171654542Y-97834680D01*
X174192492Y-97834680D01*
X174214622Y-98079913D01*
X174284168Y-98316116D01*
X174398460Y-98534212D01*
X174528011Y-98694728D01*
X174525666Y-98697073D01*
X174547628Y-98719035D01*
X174553104Y-98725820D01*
X174561056Y-98732463D01*
X174596379Y-98767786D01*
X174599547Y-98764618D01*
X174741020Y-98882802D01*
X174960970Y-98865534D01*
X175301965Y-98062200D01*
X175434358Y-97929807D01*
X175380868Y-97876317D01*
X175382937Y-97871442D01*
X175370871Y-97866320D01*
X175363645Y-97859094D01*
X175360725Y-97862014D01*
X174388845Y-97449475D01*
X174218631Y-97589843D01*
X174192492Y-97834680D01*
X171654542Y-97834680D01*
X172083672Y-97223741D01*
X172088414Y-97223840D01*
X172246781Y-97195915D01*
X172396709Y-97137762D01*
X172397162Y-97137474D01*
X174410650Y-97137474D01*
X174427918Y-97357424D01*
X175231252Y-97698419D01*
X175363645Y-97830812D01*
X175417135Y-97777322D01*
X175422010Y-97779391D01*
X175427132Y-97767325D01*
X175434358Y-97760099D01*
X175431438Y-97757179D01*
X175843977Y-96785299D01*
X175703609Y-96615085D01*
X175458772Y-96588946D01*
X175213539Y-96611076D01*
X174977336Y-96680622D01*
X174759240Y-96794914D01*
X174598724Y-96924465D01*
X174596379Y-96922120D01*
X174574417Y-96944082D01*
X174567632Y-96949558D01*
X174560989Y-96957510D01*
X174525666Y-96992833D01*
X174528834Y-96996001D01*
X174410650Y-97137474D01*
X172397162Y-97137474D01*
X172532485Y-97051596D01*
X172648940Y-96940698D01*
X172741636Y-96809292D01*
X172807043Y-96662385D01*
X172842671Y-96505571D01*
X172845236Y-96321895D01*
X172814001Y-96164147D01*
X172752721Y-96015470D01*
X172663729Y-95881528D01*
X172550417Y-95767422D01*
X172417099Y-95677498D01*
X172268854Y-95615181D01*
X172111328Y-95582846D01*
X171950522Y-95581723D01*
X171792560Y-95611856D01*
X171643459Y-95672097D01*
X171508899Y-95760150D01*
X171394004Y-95872664D01*
X171303151Y-96005350D01*
X171239801Y-96153157D01*
X171206367Y-96310453D01*
X171204122Y-96471248D01*
X171232542Y-96626098D01*
X170601545Y-97524431D01*
X170586022Y-97524323D01*
X170428060Y-97554456D01*
X170278959Y-97614697D01*
X170144399Y-97702750D01*
X170118388Y-97728222D01*
X164810555Y-88006298D01*
X164831843Y-87958485D01*
X164867471Y-87801671D01*
X164870036Y-87617995D01*
X164838801Y-87460247D01*
X164777521Y-87311570D01*
X164688529Y-87177628D01*
X164575217Y-87063522D01*
X164441899Y-86973598D01*
X164293654Y-86911281D01*
X164136128Y-86878946D01*
X163975322Y-86877823D01*
X163817360Y-86907956D01*
X163668259Y-86968197D01*
X163533699Y-87056250D01*
X163506387Y-87082996D01*
X154677802Y-85644879D01*
X154663914Y-85642580D01*
X154655633Y-85642030D01*
X154647554Y-85640139D01*
X154640351Y-85639232D01*
X154610051Y-85635632D01*
X154601569Y-85635458D01*
X154593227Y-85633910D01*
X154585989Y-85633339D01*
X154571776Y-85632317D01*
X151778356Y-85422153D01*
X152115750Y-85208037D01*
X152601450Y-84745511D01*
X152988061Y-84197455D01*
X153260858Y-83584743D01*
X153326276Y-83296801D01*
X158011880Y-83296801D01*
X158166523Y-83488410D01*
X158355577Y-83646168D01*
X158571774Y-83764012D01*
X158806808Y-83837412D01*
X159051645Y-83863550D01*
X159295525Y-83841676D01*
X159438843Y-83673937D01*
X159034289Y-82672633D01*
X158032984Y-83077186D01*
X158011880Y-83296801D01*
X153326276Y-83296801D01*
X153409450Y-82930714D01*
X153414106Y-82597270D01*
X157805911Y-82597270D01*
X157827785Y-82841150D01*
X157995524Y-82984468D01*
X158860059Y-82635172D01*
X159127008Y-82635172D01*
X159531561Y-83636477D01*
X159751176Y-83657581D01*
X159942785Y-83502938D01*
X160100543Y-83313884D01*
X160218387Y-83097687D01*
X160291787Y-82862653D01*
X160317925Y-82617816D01*
X160296051Y-82373936D01*
X160128312Y-82230618D01*
X159127008Y-82635172D01*
X158860059Y-82635172D01*
X158996828Y-82579914D01*
X158592275Y-81578609D01*
X158372660Y-81557505D01*
X158181051Y-81712148D01*
X158023293Y-81901202D01*
X157905449Y-82117399D01*
X157832049Y-82352433D01*
X157805911Y-82597270D01*
X153414106Y-82597270D01*
X153420147Y-82164652D01*
X153289874Y-81506728D01*
X153034292Y-80886638D01*
X152663134Y-80328001D01*
X152190538Y-79852094D01*
X151634505Y-79477045D01*
X151016215Y-79217140D01*
X150359217Y-79082278D01*
X149688537Y-79077595D01*
X149029720Y-79203271D01*
X148407861Y-79454519D01*
X147846646Y-79821768D01*
X147367452Y-80291030D01*
X146988530Y-80844430D01*
X146724315Y-81460891D01*
X146584869Y-82116932D01*
X146575504Y-82787563D01*
X146693797Y-83432091D01*
X146638317Y-83376222D01*
X146504999Y-83286298D01*
X146356754Y-83223981D01*
X146199228Y-83191646D01*
X146038422Y-83190523D01*
X145880460Y-83220656D01*
X145731359Y-83280897D01*
X145596799Y-83368950D01*
X145481904Y-83481464D01*
X145391051Y-83614150D01*
X145327701Y-83761957D01*
X145309088Y-83849523D01*
X139920286Y-86713445D01*
X139848054Y-86683081D01*
X139690528Y-86650746D01*
X139529722Y-86649623D01*
X139371760Y-86679756D01*
X139222659Y-86739997D01*
X139088099Y-86828050D01*
X138973204Y-86940564D01*
X138882351Y-87073250D01*
X138819001Y-87221057D01*
X138790622Y-87354571D01*
X138678742Y-87312125D01*
X138626621Y-87185670D01*
X138537629Y-87051728D01*
X138424317Y-86937622D01*
X138290999Y-86847698D01*
X138142754Y-86785381D01*
X137985228Y-86753046D01*
X137824422Y-86751923D01*
X137666460Y-86782056D01*
X137517359Y-86842297D01*
X137382799Y-86930350D01*
X137267904Y-87042864D01*
X137177051Y-87175550D01*
X137113701Y-87323357D01*
X137080267Y-87480653D01*
X137078022Y-87641448D01*
X137107051Y-87799616D01*
X137166249Y-87949134D01*
X137253362Y-88084306D01*
X137365070Y-88199983D01*
X137497119Y-88291760D01*
X137644480Y-88356140D01*
X137801539Y-88390672D01*
X137962314Y-88394040D01*
X138120681Y-88366115D01*
X138270609Y-88307962D01*
X138308427Y-88283962D01*
X139171445Y-88611385D01*
X139171450Y-88611386D01*
X139171511Y-88611410D01*
X139265910Y-88647210D01*
X139285182Y-88652435D01*
X139303702Y-88659908D01*
X139334041Y-88665681D01*
X139363861Y-88673766D01*
X139383791Y-88675148D01*
X139403400Y-88678880D01*
X139410634Y-88679485D01*
X139611934Y-88694885D01*
X139632062Y-88694455D01*
X139652101Y-88696400D01*
X139682679Y-88693372D01*
X139713397Y-88692715D01*
X139733060Y-88688383D01*
X139753093Y-88686399D01*
X139760204Y-88684932D01*
X139859004Y-88663832D01*
X140680889Y-88488720D01*
X139002688Y-89274798D01*
X138891554Y-89228081D01*
X138734028Y-89195746D01*
X138573222Y-89194623D01*
X138415260Y-89224756D01*
X138266159Y-89284997D01*
X138131599Y-89373050D01*
X138016704Y-89485564D01*
X137925851Y-89618250D01*
X137862501Y-89766057D01*
X137829067Y-89923353D01*
X137826822Y-90084148D01*
X137855851Y-90242316D01*
X137915049Y-90391834D01*
X138002162Y-90527006D01*
X138113870Y-90642683D01*
X138245919Y-90734460D01*
X138393280Y-90798840D01*
X138550339Y-90833372D01*
X138711114Y-90836740D01*
X138869481Y-90808815D01*
X139019409Y-90750662D01*
X139155185Y-90664496D01*
X139271640Y-90553598D01*
X139364336Y-90422192D01*
X139429743Y-90275285D01*
X139442986Y-90216996D01*
X141852792Y-89088231D01*
X141952380Y-89131740D01*
X142109439Y-89166272D01*
X142270214Y-89169640D01*
X142428581Y-89141715D01*
X142578509Y-89083562D01*
X142714285Y-88997396D01*
X142830740Y-88886498D01*
X142909480Y-88774877D01*
X142963762Y-88859106D01*
X143075470Y-88974783D01*
X143207519Y-89066560D01*
X143354880Y-89130940D01*
X143511939Y-89165472D01*
X143672714Y-89168840D01*
X143831081Y-89140915D01*
X143981009Y-89082762D01*
X144116785Y-88996596D01*
X144233240Y-88885698D01*
X144325936Y-88754292D01*
X144391343Y-88607385D01*
X144426971Y-88450571D01*
X144429536Y-88266895D01*
X144398301Y-88109147D01*
X144337021Y-87960470D01*
X144248029Y-87826528D01*
X144134717Y-87712422D01*
X144001399Y-87622498D01*
X143853154Y-87560181D01*
X143695628Y-87527846D01*
X143534822Y-87526723D01*
X143376860Y-87556856D01*
X143319240Y-87580136D01*
X142815970Y-87290361D01*
X142815967Y-87290360D01*
X142703544Y-87225604D01*
X142666306Y-87208757D01*
X142629750Y-87190508D01*
X142620154Y-87187878D01*
X142611079Y-87183772D01*
X142571261Y-87174475D01*
X142531874Y-87163679D01*
X142524710Y-87162502D01*
X142268210Y-87122202D01*
X142227383Y-87119827D01*
X142186668Y-87115900D01*
X142176796Y-87116884D01*
X142166895Y-87116308D01*
X142126372Y-87121910D01*
X142085682Y-87125966D01*
X142078572Y-87127437D01*
X141952072Y-87154537D01*
X140874326Y-87384163D01*
X145797092Y-84767920D01*
X145858480Y-84794740D01*
X146015539Y-84829272D01*
X146176314Y-84832640D01*
X146334681Y-84804715D01*
X146388129Y-84783984D01*
X148027984Y-85772268D01*
X148028034Y-85772299D01*
X148360135Y-85972399D01*
X148365879Y-85975135D01*
X148371073Y-85978809D01*
X148411627Y-85996926D01*
X148451757Y-86016042D01*
X148457928Y-86017611D01*
X148463733Y-86020205D01*
X148470635Y-86022458D01*
X149209435Y-86257858D01*
X149215650Y-86259187D01*
X149221554Y-86261558D01*
X149265235Y-86269793D01*
X149308677Y-86279085D01*
X149315035Y-86279182D01*
X149321284Y-86280360D01*
X149328520Y-86280952D01*
X149713352Y-86309732D01*
X149713388Y-86309735D01*
X154494388Y-86669435D01*
X154494486Y-86669433D01*
X154496111Y-86669561D01*
X154499350Y-86669794D01*
X154505828Y-86670564D01*
X154508586Y-86671020D01*
X154508662Y-86671025D01*
X154509897Y-86671235D01*
X155767619Y-86876109D01*
X155749651Y-86902350D01*
X155743739Y-86916143D01*
X145093515Y-89072569D01*
X144962499Y-88984198D01*
X144814254Y-88921881D01*
X144656728Y-88889546D01*
X144495922Y-88888423D01*
X144337960Y-88918556D01*
X144188859Y-88978797D01*
X144054299Y-89066850D01*
X143939404Y-89179364D01*
X143848551Y-89312050D01*
X143785201Y-89459857D01*
X143751767Y-89617153D01*
X143749522Y-89777948D01*
X143778551Y-89936116D01*
X143837749Y-90085634D01*
X143924862Y-90220806D01*
X144036570Y-90336483D01*
X144168619Y-90428260D01*
X144315980Y-90492640D01*
X144473039Y-90527172D01*
X144602511Y-90529884D01*
X144655149Y-90662834D01*
X144742262Y-90798006D01*
X144775246Y-90832162D01*
X144769722Y-90832123D01*
X144611760Y-90862256D01*
X144462659Y-90922497D01*
X144328099Y-91010550D01*
X144213204Y-91123064D01*
X144122351Y-91255750D01*
X144059001Y-91403557D01*
X144025567Y-91560853D01*
X144023322Y-91721648D01*
X144052351Y-91879816D01*
X144111549Y-92029334D01*
X144148558Y-92086761D01*
X141919106Y-92087206D01*
X141837999Y-92032498D01*
X141689754Y-91970181D01*
X141532228Y-91937846D01*
X141371422Y-91936723D01*
X141213460Y-91966856D01*
X141064359Y-92027097D01*
X140929799Y-92115150D01*
X140816446Y-92226154D01*
X135142540Y-93669739D01*
X136102341Y-92702447D01*
X136245214Y-92705440D01*
X136403581Y-92677515D01*
X136553509Y-92619362D01*
X136689285Y-92533196D01*
X136805740Y-92422298D01*
X136898436Y-92290892D01*
X136963843Y-92143985D01*
X136999471Y-91987171D01*
X137002036Y-91803495D01*
X136970801Y-91645747D01*
X136909521Y-91497070D01*
X136820529Y-91363128D01*
X136707217Y-91249022D01*
X136573899Y-91159098D01*
X136534057Y-91142350D01*
X136544571Y-91096071D01*
X136547136Y-90912395D01*
X136515901Y-90754647D01*
X136454621Y-90605970D01*
X136365629Y-90472028D01*
X136252317Y-90357922D01*
X136118999Y-90267998D01*
X135970754Y-90205681D01*
X135813228Y-90173346D01*
X135652422Y-90172223D01*
X135494460Y-90202356D01*
X135445646Y-90222078D01*
X135411529Y-90170728D01*
X135298217Y-90056622D01*
X135164899Y-89966698D01*
X135016654Y-89904381D01*
X134859128Y-89872046D01*
X134698322Y-89870923D01*
X134540360Y-89901056D01*
X134391259Y-89961297D01*
X134256699Y-90049350D01*
X134141804Y-90161864D01*
X134050951Y-90294550D01*
X133987601Y-90442357D01*
X133954167Y-90599653D01*
X133951922Y-90760448D01*
X133964493Y-90828941D01*
X130331736Y-95007710D01*
X130233322Y-95007023D01*
X130075360Y-95037156D01*
X129926259Y-95097397D01*
X129791699Y-95185450D01*
X129676804Y-95297964D01*
X129585951Y-95430650D01*
X129522601Y-95578457D01*
X129489167Y-95735753D01*
X129486922Y-95896548D01*
X129515951Y-96054716D01*
X129575149Y-96204234D01*
X129662262Y-96339406D01*
X129773970Y-96455083D01*
X129906019Y-96546860D01*
X130053380Y-96611240D01*
X130210439Y-96645772D01*
X130371214Y-96649140D01*
X130529581Y-96621215D01*
X130679509Y-96563062D01*
X130815285Y-96476896D01*
X130884922Y-96410582D01*
X128694089Y-102323946D01*
X128694087Y-102323952D01*
X128662675Y-102408616D01*
X128652646Y-102446691D01*
X128640956Y-102484284D01*
X128639536Y-102491404D01*
X128605036Y-102671005D01*
X128601442Y-102709945D01*
X128596103Y-102748647D01*
X128595867Y-102755904D01*
X128593567Y-102846503D01*
X128593569Y-102846525D01*
X128593561Y-102846764D01*
X128460338Y-108200000D01*
X128400000Y-108200000D01*
X128344281Y-108207918D01*
X128292975Y-108231046D01*
X128250142Y-108267551D01*
X128219176Y-108314544D01*
X128202528Y-108368304D01*
X128200000Y-108400000D01*
X128200000Y-112012277D01*
X128151951Y-112082450D01*
X128088601Y-112230257D01*
X128055167Y-112387553D01*
X128052922Y-112548348D01*
X128081951Y-112706516D01*
X128141149Y-112856034D01*
X128228262Y-112991206D01*
X128339970Y-113106883D01*
X128472019Y-113198660D01*
X128619380Y-113263040D01*
X128776439Y-113297572D01*
X128937214Y-113300940D01*
X129095581Y-113273015D01*
X129245509Y-113214862D01*
X129381285Y-113128696D01*
X129485717Y-113029247D01*
X131345232Y-113740238D01*
X139370005Y-130840388D01*
X139325101Y-130945157D01*
X139291667Y-131102453D01*
X139289422Y-131263248D01*
X139318451Y-131421416D01*
X139377649Y-131570934D01*
X139464762Y-131706106D01*
X139576470Y-131821783D01*
X139708519Y-131913560D01*
X139855880Y-131977940D01*
X140012939Y-132012472D01*
X140173714Y-132015840D01*
X140332081Y-131987915D01*
X140482009Y-131929762D01*
X140617785Y-131843596D01*
X140734240Y-131732698D01*
X140826936Y-131601292D01*
X140892343Y-131454385D01*
X140927971Y-131297571D01*
X140930536Y-131113895D01*
X140899301Y-130956147D01*
X140838021Y-130807470D01*
X140749029Y-130673528D01*
X140635717Y-130559422D01*
X140502399Y-130469498D01*
X140354154Y-130407181D01*
X140311415Y-130398408D01*
X136205388Y-121648793D01*
X138659339Y-123148430D01*
X143000000Y-129462118D01*
X143000000Y-138855760D01*
X139939566Y-137268869D01*
X139964775Y-137243226D01*
X139640818Y-136246188D01*
X139649016Y-136237990D01*
X139632927Y-136221901D01*
X139631055Y-136216140D01*
X139628120Y-136217094D01*
X139596264Y-136185238D01*
X139726161Y-136185238D01*
X140059881Y-137212324D01*
X140277489Y-137248696D01*
X140479419Y-137107796D01*
X140649980Y-136930208D01*
X140782618Y-136722757D01*
X140872235Y-136493416D01*
X140915388Y-136250998D01*
X140910579Y-136006187D01*
X140753247Y-135851518D01*
X139726161Y-136185238D01*
X139596264Y-136185238D01*
X139578303Y-136167277D01*
X139480532Y-136265048D01*
X138603969Y-136549860D01*
X138599897Y-136574225D01*
X138043733Y-136285844D01*
X138103795Y-136200347D01*
X138177713Y-136055274D01*
X138410926Y-136055274D01*
X138415735Y-136300085D01*
X138573067Y-136454754D01*
X139600153Y-136121034D01*
X139266433Y-135093948D01*
X139081552Y-135063046D01*
X139361539Y-135063046D01*
X139695259Y-136090132D01*
X140722345Y-135756412D01*
X140758717Y-135538804D01*
X140617817Y-135336874D01*
X140440229Y-135166313D01*
X140232778Y-135033675D01*
X140003437Y-134944058D01*
X139761019Y-134900905D01*
X139516208Y-134905714D01*
X139361539Y-135063046D01*
X139081552Y-135063046D01*
X139048825Y-135057576D01*
X138846895Y-135198476D01*
X138676334Y-135376064D01*
X138543696Y-135583515D01*
X138454079Y-135812856D01*
X138410926Y-136055274D01*
X138177713Y-136055274D01*
X138784781Y-134863837D01*
X138810393Y-134801822D01*
X138830593Y-134684796D01*
X138817390Y-134566775D01*
X138771831Y-134457105D01*
X138697521Y-134364470D01*
X138600347Y-134296205D01*
X137263837Y-133615219D01*
X137201822Y-133589607D01*
X137084796Y-133569407D01*
X136966775Y-133582610D01*
X136857105Y-133628169D01*
X136764470Y-133702479D01*
X136696205Y-133799653D01*
X136015219Y-135136163D01*
X135989607Y-135198178D01*
X135986032Y-135218888D01*
X127969761Y-131062302D01*
X124110883Y-121614701D01*
X124156023Y-121614701D01*
X124296391Y-121784915D01*
X124541228Y-121811054D01*
X124786461Y-121788924D01*
X125022664Y-121719378D01*
X125240760Y-121605086D01*
X125401276Y-121475535D01*
X125403621Y-121477880D01*
X125425583Y-121455918D01*
X125432368Y-121450442D01*
X125439011Y-121442490D01*
X125474334Y-121407167D01*
X125471166Y-121403999D01*
X125589350Y-121262526D01*
X125572082Y-121042576D01*
X124768748Y-120701581D01*
X124636355Y-120569188D01*
X124582865Y-120622678D01*
X124577990Y-120620609D01*
X124572868Y-120632675D01*
X124565642Y-120639901D01*
X124568562Y-120642821D01*
X124156023Y-121614701D01*
X124110883Y-121614701D01*
X124079745Y-121538469D01*
X124404967Y-120772294D01*
X124537360Y-120639901D01*
X124483870Y-120586411D01*
X124485939Y-120581536D01*
X124473873Y-120576414D01*
X124466647Y-120569188D01*
X124463727Y-120572108D01*
X123521710Y-120172245D01*
X123389096Y-119847568D01*
X123513652Y-119847568D01*
X123530920Y-120067518D01*
X124334254Y-120408513D01*
X124466647Y-120540906D01*
X124520137Y-120487416D01*
X124525012Y-120489485D01*
X124530134Y-120477419D01*
X124537360Y-120470193D01*
X124565642Y-120470193D01*
X124619132Y-120523683D01*
X124617063Y-120528558D01*
X124629129Y-120533680D01*
X124636355Y-120540906D01*
X124639275Y-120537986D01*
X125611155Y-120950525D01*
X125781369Y-120810157D01*
X125807508Y-120565320D01*
X125785378Y-120320087D01*
X125715832Y-120083884D01*
X125601540Y-119865788D01*
X125471989Y-119705272D01*
X125474334Y-119702927D01*
X125452372Y-119680965D01*
X125446896Y-119674180D01*
X125438944Y-119667537D01*
X125403621Y-119632214D01*
X125400453Y-119635382D01*
X125258980Y-119517198D01*
X125039030Y-119534466D01*
X124698035Y-120337800D01*
X124565642Y-120470193D01*
X124537360Y-120470193D01*
X124534440Y-120467273D01*
X124946979Y-119495393D01*
X124806611Y-119325179D01*
X124561774Y-119299040D01*
X124316541Y-119321170D01*
X124080338Y-119390716D01*
X123862242Y-119505008D01*
X123701726Y-119634559D01*
X123699381Y-119632214D01*
X123677419Y-119654176D01*
X123670634Y-119659652D01*
X123663991Y-119667604D01*
X123628668Y-119702927D01*
X123631836Y-119706095D01*
X123513652Y-119847568D01*
X123389096Y-119847568D01*
X123281091Y-119583143D01*
X123343663Y-119567644D01*
X124734439Y-119005734D01*
X124794454Y-118975734D01*
X124886475Y-118900666D01*
X124953939Y-118802933D01*
X124991505Y-118690274D01*
X124996197Y-118571610D01*
X124967644Y-118456337D01*
X124405734Y-117065561D01*
X124375734Y-117005546D01*
X124300666Y-116913525D01*
X124202933Y-116846061D01*
X124090274Y-116808495D01*
X123971610Y-116803803D01*
X123856337Y-116832356D01*
X122465561Y-117394266D01*
X122405546Y-117424266D01*
X122400858Y-117428090D01*
X122270000Y-117107714D01*
X122270000Y-113144948D01*
X124384222Y-113144948D01*
X124413251Y-113303116D01*
X124472449Y-113452634D01*
X124559562Y-113587806D01*
X124671270Y-113703483D01*
X124803319Y-113795260D01*
X124950680Y-113859640D01*
X125107739Y-113894172D01*
X125118304Y-113894393D01*
X132239517Y-124811007D01*
X132016215Y-124717140D01*
X131359217Y-124582278D01*
X130688537Y-124577595D01*
X130029720Y-124703271D01*
X129407861Y-124954519D01*
X128846646Y-125321768D01*
X128367452Y-125791030D01*
X127988530Y-126344430D01*
X127724315Y-126960891D01*
X127584869Y-127616932D01*
X127575504Y-128287563D01*
X127696578Y-128947241D01*
X127943478Y-129570839D01*
X128306800Y-130134604D01*
X128772705Y-130617063D01*
X129323447Y-130999839D01*
X129938048Y-131268351D01*
X130593099Y-131412374D01*
X131263649Y-131426420D01*
X131924156Y-131309954D01*
X132549462Y-131067414D01*
X133115750Y-130708037D01*
X133431721Y-130407142D01*
X133437351Y-130437816D01*
X133496549Y-130587334D01*
X133583662Y-130722506D01*
X133695370Y-130838183D01*
X133827419Y-130929960D01*
X133974780Y-130994340D01*
X134131839Y-131028872D01*
X134292614Y-131032240D01*
X134450981Y-131004315D01*
X134600909Y-130946162D01*
X134736685Y-130859996D01*
X134853140Y-130749098D01*
X134945836Y-130617692D01*
X135011243Y-130470785D01*
X135046871Y-130313971D01*
X135049436Y-130130295D01*
X135018201Y-129972547D01*
X134956921Y-129823870D01*
X134867929Y-129689928D01*
X134770101Y-129591414D01*
X134818418Y-128125935D01*
X134818417Y-128125920D01*
X134818422Y-128125796D01*
X134826722Y-127871996D01*
X134824382Y-127836075D01*
X134824092Y-127800087D01*
X134823275Y-127792873D01*
X134763275Y-127294273D01*
X134755489Y-127259040D01*
X134749712Y-127223434D01*
X134747807Y-127216428D01*
X134611107Y-126727328D01*
X134598072Y-126693747D01*
X134586971Y-126659491D01*
X134584023Y-126652856D01*
X134376923Y-126195356D01*
X134358935Y-126164144D01*
X134342752Y-126131963D01*
X134338830Y-126125853D01*
X134199931Y-125912753D01*
X134199925Y-125912745D01*
X134199827Y-125912593D01*
X125989384Y-113326222D01*
X126022771Y-113179271D01*
X126025336Y-112995595D01*
X125994101Y-112837847D01*
X125932821Y-112689170D01*
X125843829Y-112555228D01*
X125820534Y-112531770D01*
X128801250Y-94184715D01*
X128897085Y-94123896D01*
X129013540Y-94012998D01*
X129106236Y-93881592D01*
X129171643Y-93734685D01*
X129207271Y-93577871D01*
X129209836Y-93394195D01*
X129203021Y-93359777D01*
X130052921Y-92438109D01*
X130164214Y-92440440D01*
X130322581Y-92412515D01*
X130472509Y-92354362D01*
X130608285Y-92268196D01*
X130724740Y-92157298D01*
X130817436Y-92025892D01*
X130882843Y-91878985D01*
X130918471Y-91722171D01*
X130921036Y-91538495D01*
X130889801Y-91380747D01*
X130828521Y-91232070D01*
X130739529Y-91098128D01*
X130626217Y-90984022D01*
X130492899Y-90894098D01*
X130344654Y-90831781D01*
X130187128Y-90799446D01*
X130026322Y-90798323D01*
X129868360Y-90828456D01*
X129719259Y-90888697D01*
X129584699Y-90976750D01*
X129469804Y-91089264D01*
X129378951Y-91221950D01*
X129315601Y-91369757D01*
X129282167Y-91527053D01*
X129279922Y-91687848D01*
X129288248Y-91733214D01*
X128438347Y-92654884D01*
X128315122Y-92654023D01*
X128157160Y-92684156D01*
X128008059Y-92744397D01*
X127873499Y-92832450D01*
X127758604Y-92944964D01*
X127667751Y-93077650D01*
X127604401Y-93225457D01*
X127570967Y-93382753D01*
X127568722Y-93543548D01*
X127597751Y-93701716D01*
X127656949Y-93851234D01*
X127744062Y-93986406D01*
X127774682Y-94018114D01*
X124793968Y-112365161D01*
X124688999Y-112433850D01*
X124574104Y-112546364D01*
X124483251Y-112679050D01*
X124419901Y-112826857D01*
X124386467Y-112984153D01*
X124384222Y-113144948D01*
X122270000Y-113144948D01*
X122270000Y-101091096D01*
X122376877Y-100825746D01*
X122357505Y-101027340D01*
X122512148Y-101218949D01*
X122701202Y-101376707D01*
X122917399Y-101494551D01*
X123152433Y-101567951D01*
X123397270Y-101594089D01*
X123641150Y-101572215D01*
X123784468Y-101404476D01*
X123379914Y-100403172D01*
X122385210Y-100805058D01*
X122437094Y-100676243D01*
X123205686Y-100365711D01*
X123472633Y-100365711D01*
X123877186Y-101367016D01*
X124096801Y-101388120D01*
X124288410Y-101233477D01*
X124446168Y-101044423D01*
X124564012Y-100828226D01*
X124637412Y-100593192D01*
X124663550Y-100348355D01*
X124641676Y-100104475D01*
X124473937Y-99961157D01*
X123472633Y-100365711D01*
X123205686Y-100365711D01*
X123318770Y-100320022D01*
X123322689Y-100323941D01*
X123331922Y-100314708D01*
X123342453Y-100310453D01*
X123340647Y-100305983D01*
X123393402Y-100253228D01*
X123269119Y-100128945D01*
X122962853Y-99370909D01*
X123002817Y-99271688D01*
X123030618Y-99271688D01*
X123435172Y-100272992D01*
X124436477Y-99868439D01*
X124457581Y-99648824D01*
X124302938Y-99457215D01*
X124113884Y-99299457D01*
X123897687Y-99181613D01*
X123662653Y-99108213D01*
X123417816Y-99082075D01*
X123173936Y-99103949D01*
X123030618Y-99271688D01*
X123002817Y-99271688D01*
X123208904Y-98760025D01*
X123251672Y-98785812D01*
X124632429Y-99371909D01*
X124696079Y-99393133D01*
X124814229Y-99405121D01*
X124931041Y-99383717D01*
X125037266Y-99330618D01*
X125124492Y-99250028D01*
X125185812Y-99148328D01*
X125771909Y-97767571D01*
X125793133Y-97703921D01*
X125805121Y-97585771D01*
X125783717Y-97468959D01*
X125730618Y-97362734D01*
X125650028Y-97275508D01*
X125548328Y-97214188D01*
X124167571Y-96628091D01*
X124103921Y-96606867D01*
X124077238Y-96604160D01*
X127961117Y-86961426D01*
X133810681Y-84611155D01*
X138249475Y-84611155D01*
X138389843Y-84781369D01*
X138634680Y-84807508D01*
X138879913Y-84785378D01*
X139116116Y-84715832D01*
X139334212Y-84601540D01*
X139494728Y-84471989D01*
X139497073Y-84474334D01*
X139519035Y-84452372D01*
X139525820Y-84446896D01*
X139532463Y-84438944D01*
X139567786Y-84403621D01*
X139564618Y-84400453D01*
X139682802Y-84258980D01*
X139665534Y-84039030D01*
X138862200Y-83698035D01*
X138729807Y-83565642D01*
X138676317Y-83619132D01*
X138671442Y-83617063D01*
X138666320Y-83629129D01*
X138659094Y-83636355D01*
X138662014Y-83639275D01*
X138249475Y-84611155D01*
X133810681Y-84611155D01*
X136473611Y-83541228D01*
X137388946Y-83541228D01*
X137411076Y-83786461D01*
X137480622Y-84022664D01*
X137594914Y-84240760D01*
X137724465Y-84401276D01*
X137722120Y-84403621D01*
X137744082Y-84425583D01*
X137749558Y-84432368D01*
X137757510Y-84439011D01*
X137792833Y-84474334D01*
X137796001Y-84471166D01*
X137937474Y-84589350D01*
X138157424Y-84572082D01*
X138498419Y-83768748D01*
X138630812Y-83636355D01*
X138577322Y-83582865D01*
X138579391Y-83577990D01*
X138567325Y-83572868D01*
X138560099Y-83565642D01*
X138557179Y-83568562D01*
X137585299Y-83156023D01*
X137415085Y-83296391D01*
X137388946Y-83541228D01*
X136473611Y-83541228D01*
X137642401Y-83071625D01*
X138427706Y-83404967D01*
X138560099Y-83537360D01*
X138613589Y-83483870D01*
X138618464Y-83485939D01*
X138623585Y-83473874D01*
X138630812Y-83466647D01*
X138659094Y-83466647D01*
X138712584Y-83520137D01*
X138710515Y-83525012D01*
X138722581Y-83530134D01*
X138729807Y-83537360D01*
X138732727Y-83534440D01*
X139704607Y-83946979D01*
X139874821Y-83806611D01*
X139900960Y-83561774D01*
X139878830Y-83316541D01*
X139809284Y-83080338D01*
X139694992Y-82862242D01*
X139565441Y-82701726D01*
X139567786Y-82699381D01*
X139545824Y-82677419D01*
X139540348Y-82670634D01*
X139532396Y-82663991D01*
X139497073Y-82628668D01*
X139493905Y-82631836D01*
X139352432Y-82513652D01*
X139132482Y-82530920D01*
X138791487Y-83334254D01*
X138659094Y-83466647D01*
X138630812Y-83466647D01*
X138627892Y-83463727D01*
X139031184Y-82513631D01*
X139616232Y-82278568D01*
X139632356Y-82343663D01*
X140194266Y-83734439D01*
X140224266Y-83794454D01*
X140299334Y-83886475D01*
X140397067Y-83953939D01*
X140509726Y-83991505D01*
X140628390Y-83996197D01*
X140743663Y-83967644D01*
X142134439Y-83405734D01*
X142194454Y-83375734D01*
X142286475Y-83300666D01*
X142353939Y-83202933D01*
X142391505Y-83090274D01*
X142396197Y-82971610D01*
X142367644Y-82856337D01*
X141805734Y-81465561D01*
X141777967Y-81410013D01*
X150000000Y-78106518D01*
X158711460Y-81606658D01*
X158711460Y-81606658D01*
G37*
X158711460Y-81606658D02*
X159079978Y-82518770D01*
X159076059Y-82522689D01*
X159085292Y-82531922D01*
X159089547Y-82542453D01*
X159094017Y-82540647D01*
X159146772Y-82593402D01*
X159271055Y-82469119D01*
X160062337Y-82149421D01*
X160653272Y-82386850D01*
X160614188Y-82451672D01*
X160028091Y-83832429D01*
X160006867Y-83896079D01*
X159994879Y-84014229D01*
X160016283Y-84131041D01*
X160069382Y-84237266D01*
X160149972Y-84324492D01*
X160251672Y-84385812D01*
X161632429Y-84971909D01*
X161696079Y-84993133D01*
X161814229Y-85005121D01*
X161931041Y-84983717D01*
X162037266Y-84930618D01*
X162124492Y-84850028D01*
X162185812Y-84748328D01*
X162771909Y-83367571D01*
X162793133Y-83303921D01*
X162798720Y-83248860D01*
X172038883Y-86961426D01*
X176009146Y-96818632D01*
X175936028Y-96824372D01*
X175595033Y-97627706D01*
X175462640Y-97760099D01*
X175516130Y-97813589D01*
X175514061Y-97818464D01*
X175526127Y-97823586D01*
X175533353Y-97830812D01*
X175536273Y-97827892D01*
X176508153Y-98240431D01*
X176563449Y-98194831D01*
X176809330Y-98805294D01*
X176771610Y-98803803D01*
X176656337Y-98832356D01*
X175265561Y-99394266D01*
X175205546Y-99424266D01*
X175113525Y-99499334D01*
X175046061Y-99597067D01*
X175008495Y-99709726D01*
X175003803Y-99828390D01*
X175032356Y-99943663D01*
X175594266Y-101334439D01*
X175624266Y-101394454D01*
X175699334Y-101486475D01*
X175797067Y-101553939D01*
X175909726Y-101591505D01*
X176028390Y-101596197D01*
X176143663Y-101567644D01*
X177534439Y-101005734D01*
X177594454Y-100975734D01*
X177661504Y-100921037D01*
X177730000Y-101091096D01*
X177730000Y-117107716D01*
X177485063Y-117707389D01*
X177458851Y-117684993D01*
X176481230Y-118079978D01*
X176477311Y-118076059D01*
X176468078Y-118085292D01*
X176457547Y-118089547D01*
X176459353Y-118094017D01*
X176406598Y-118146772D01*
X176530881Y-118271055D01*
X176862100Y-119090852D01*
X176917800Y-119096205D01*
X176671632Y-119698891D01*
X176650028Y-119675508D01*
X176548328Y-119614188D01*
X175167571Y-119028091D01*
X175103921Y-119006867D01*
X174985771Y-118994879D01*
X174868959Y-119016283D01*
X174762734Y-119069382D01*
X174675508Y-119149972D01*
X174614188Y-119251672D01*
X174028091Y-120632429D01*
X174006867Y-120696079D01*
X173994879Y-120814229D01*
X174016283Y-120931041D01*
X174069382Y-121037266D01*
X174149972Y-121124492D01*
X174251672Y-121185812D01*
X175632429Y-121771909D01*
X175696079Y-121793133D01*
X175811456Y-121804840D01*
X172030238Y-131062302D01*
X164089322Y-135179815D01*
X163219848Y-134913990D01*
X163127541Y-134821683D01*
X163078460Y-134870764D01*
X163075884Y-134869976D01*
X163074403Y-134874821D01*
X163056828Y-134892396D01*
X163066173Y-134901741D01*
X162772386Y-135862670D01*
X162203492Y-136157652D01*
X162186946Y-136111975D01*
X161557742Y-134928614D01*
X161792487Y-134928614D01*
X161840129Y-135170190D01*
X161933985Y-135397830D01*
X162070448Y-135602784D01*
X162244273Y-135777178D01*
X162447568Y-135913657D01*
X162664509Y-135873492D01*
X162980253Y-134840739D01*
X162763089Y-134774345D01*
X163105121Y-134774345D01*
X164137874Y-135090090D01*
X164292484Y-134932698D01*
X164292887Y-134686470D01*
X164245245Y-134444894D01*
X164151389Y-134217254D01*
X164014926Y-134012300D01*
X163841101Y-133837906D01*
X163637806Y-133701427D01*
X163420865Y-133741592D01*
X163105121Y-134774345D01*
X162763089Y-134774345D01*
X161947500Y-134524994D01*
X161792890Y-134682386D01*
X161792487Y-134928614D01*
X161557742Y-134928614D01*
X161482739Y-134787554D01*
X161446630Y-134731003D01*
X161362354Y-134647333D01*
X161258104Y-134590455D01*
X161142136Y-134564871D01*
X161023632Y-134572608D01*
X160911975Y-134613054D01*
X159587554Y-135317261D01*
X159531003Y-135353370D01*
X159447333Y-135437646D01*
X159390455Y-135541896D01*
X159364871Y-135657864D01*
X159372608Y-135776368D01*
X159413054Y-135888025D01*
X160117261Y-137212446D01*
X160130192Y-137232697D01*
X156800000Y-138959463D01*
X156800000Y-134212423D01*
X161936572Y-134212423D01*
X161976737Y-134429364D01*
X163009490Y-134745108D01*
X163325235Y-133712355D01*
X163167843Y-133557745D01*
X162921615Y-133557342D01*
X162680039Y-133604984D01*
X162452399Y-133698840D01*
X162247445Y-133835303D01*
X162073051Y-134009128D01*
X161936572Y-134212423D01*
X156800000Y-134212423D01*
X156800000Y-132041597D01*
X158760861Y-127531616D01*
X169314485Y-120163992D01*
X169355639Y-120125604D01*
X169384470Y-120077272D01*
X169400000Y-120000000D01*
X169400000Y-109430177D01*
X169499085Y-109367296D01*
X169615540Y-109256398D01*
X169708236Y-109124992D01*
X169773643Y-108978085D01*
X169809271Y-108821271D01*
X169811836Y-108637595D01*
X169780601Y-108479847D01*
X169719321Y-108331170D01*
X169630329Y-108197228D01*
X169517017Y-108083122D01*
X169400000Y-108004193D01*
X169400000Y-103901081D01*
X170298416Y-109437082D01*
X170282504Y-109452664D01*
X170191651Y-109585350D01*
X170128301Y-109733157D01*
X170094867Y-109890453D01*
X170092622Y-110051248D01*
X170121651Y-110209416D01*
X170180849Y-110358934D01*
X170267962Y-110494106D01*
X170379670Y-110609783D01*
X170511719Y-110701560D01*
X170659080Y-110765940D01*
X170816139Y-110800472D01*
X170976914Y-110803840D01*
X171135281Y-110775915D01*
X171285209Y-110717762D01*
X171420985Y-110631596D01*
X171537440Y-110520698D01*
X171630136Y-110389292D01*
X171695543Y-110242385D01*
X171731171Y-110085571D01*
X171733736Y-109901895D01*
X171702501Y-109744147D01*
X171641221Y-109595470D01*
X171552229Y-109461528D01*
X171438917Y-109347422D01*
X171325002Y-109270585D01*
X170017385Y-101213101D01*
X170017377Y-101213072D01*
X170017325Y-101212736D01*
X170010625Y-101171636D01*
X170003704Y-101145548D01*
X169999201Y-101118935D01*
X169997249Y-101111943D01*
X169974649Y-101033142D01*
X169964814Y-101008306D01*
X169957327Y-100982677D01*
X169954574Y-100975959D01*
X169938774Y-100938159D01*
X169938773Y-100938156D01*
X167565548Y-95254537D01*
X167565540Y-95254521D01*
X167565393Y-95254164D01*
X167544093Y-95203264D01*
X167526678Y-95170931D01*
X167511040Y-95137706D01*
X167507279Y-95131496D01*
X167450179Y-95038696D01*
X167427942Y-95009403D01*
X167407332Y-94978974D01*
X167402655Y-94973421D01*
X167367455Y-94932221D01*
X167367452Y-94932218D01*
X164755479Y-91872292D01*
X164765071Y-91830071D01*
X164767636Y-91646395D01*
X164736401Y-91488647D01*
X164675121Y-91339970D01*
X164586129Y-91206028D01*
X164472817Y-91091922D01*
X164339499Y-91001998D01*
X164191254Y-90939681D01*
X164033728Y-90907346D01*
X163872922Y-90906223D01*
X163714960Y-90936356D01*
X163565859Y-90996597D01*
X163431299Y-91084650D01*
X163316404Y-91197164D01*
X163306384Y-91211797D01*
X163310071Y-91195571D01*
X163311405Y-91100067D01*
X163329281Y-91096915D01*
X163479209Y-91038762D01*
X163614985Y-90952596D01*
X163731440Y-90841698D01*
X163824136Y-90710292D01*
X163876040Y-90593713D01*
X163893139Y-90597472D01*
X164053914Y-90600840D01*
X164212281Y-90572915D01*
X164362209Y-90514762D01*
X164497985Y-90428596D01*
X164614440Y-90317698D01*
X164707136Y-90186292D01*
X164755968Y-90076613D01*
X169589492Y-98929783D01*
X169589501Y-98929796D01*
X169589597Y-98929975D01*
X169598997Y-98947175D01*
X169605296Y-98956423D01*
X169610112Y-98966514D01*
X169613906Y-98972703D01*
X169635207Y-99006903D01*
X169641771Y-99015452D01*
X169646945Y-99024910D01*
X169651076Y-99030880D01*
X169662876Y-99047680D01*
X169662918Y-99047729D01*
X169663550Y-99048638D01*
X174070676Y-105293244D01*
X174043467Y-105421253D01*
X174041222Y-105582048D01*
X174070251Y-105740216D01*
X174129449Y-105889734D01*
X174216562Y-106024906D01*
X174224364Y-106032985D01*
X170799131Y-122670483D01*
X170797859Y-122670997D01*
X170663299Y-122759050D01*
X170548404Y-122871564D01*
X170457551Y-123004250D01*
X170394201Y-123152057D01*
X170386648Y-123187592D01*
X167433255Y-124515536D01*
X167433243Y-124515543D01*
X167433030Y-124515637D01*
X167116729Y-124658037D01*
X167073149Y-124683034D01*
X167029218Y-124708160D01*
X167028730Y-124708511D01*
X167028696Y-124708531D01*
X167028662Y-124708560D01*
X167023327Y-124712404D01*
X166467927Y-125118404D01*
X166430342Y-125151970D01*
X166392816Y-125185372D01*
X166392276Y-125185964D01*
X166392232Y-125186004D01*
X166392192Y-125186057D01*
X166387927Y-125190739D01*
X166157895Y-125446864D01*
X166157857Y-125446905D01*
X161637416Y-130479206D01*
X161525322Y-130478423D01*
X161367360Y-130508556D01*
X161218259Y-130568797D01*
X161083699Y-130656850D01*
X160968804Y-130769364D01*
X160877951Y-130902050D01*
X160814601Y-131049857D01*
X160781167Y-131207153D01*
X160778922Y-131367948D01*
X160807951Y-131526116D01*
X160867149Y-131675634D01*
X160954262Y-131810806D01*
X161065970Y-131926483D01*
X161198019Y-132018260D01*
X161345380Y-132082640D01*
X161502439Y-132117172D01*
X161663214Y-132120540D01*
X161821581Y-132092615D01*
X161971509Y-132034462D01*
X162107285Y-131948296D01*
X162223740Y-131837398D01*
X162316436Y-131705992D01*
X162381843Y-131559085D01*
X162417471Y-131402271D01*
X162420036Y-131218595D01*
X162411219Y-131174066D01*
X165584527Y-127641437D01*
X165575504Y-128287563D01*
X165696578Y-128947241D01*
X165943478Y-129570839D01*
X166306800Y-130134604D01*
X166772705Y-130617063D01*
X167323447Y-130999839D01*
X167938048Y-131268351D01*
X168593099Y-131412374D01*
X169263649Y-131426420D01*
X169924156Y-131309954D01*
X170549462Y-131067414D01*
X171115750Y-130708037D01*
X171601450Y-130245511D01*
X171988061Y-129697455D01*
X172260858Y-129084743D01*
X172409450Y-128430714D01*
X172420147Y-127664652D01*
X172289874Y-127006728D01*
X172034292Y-126386638D01*
X171663134Y-125828001D01*
X171190538Y-125352094D01*
X170634505Y-124977045D01*
X170016215Y-124717140D01*
X169676169Y-124647339D01*
X170813298Y-124136048D01*
X170924980Y-124184840D01*
X171082039Y-124219372D01*
X171242814Y-124222740D01*
X171401181Y-124194815D01*
X171551109Y-124136662D01*
X171686885Y-124050496D01*
X171803340Y-123939598D01*
X171896036Y-123808192D01*
X171961443Y-123661285D01*
X171997071Y-123504471D01*
X171999636Y-123320795D01*
X171968401Y-123163047D01*
X171907121Y-123014370D01*
X171818129Y-122880428D01*
X171817789Y-122880086D01*
X172667825Y-118751176D01*
X175342419Y-118751176D01*
X175497062Y-118942785D01*
X175686116Y-119100543D01*
X175902313Y-119218387D01*
X176137347Y-119291787D01*
X176382184Y-119317925D01*
X176626064Y-119296051D01*
X176769382Y-119128312D01*
X176364828Y-118127008D01*
X175363523Y-118531561D01*
X175342419Y-118751176D01*
X172667825Y-118751176D01*
X172811841Y-118051645D01*
X175136450Y-118051645D01*
X175158324Y-118295525D01*
X175326063Y-118438843D01*
X176327367Y-118034289D01*
X175922814Y-117032984D01*
X175703199Y-117011880D01*
X175511590Y-117166523D01*
X175353832Y-117355577D01*
X175235988Y-117571774D01*
X175162588Y-117806808D01*
X175136450Y-118051645D01*
X172811841Y-118051645D01*
X173029269Y-116995524D01*
X176015532Y-116995524D01*
X176420086Y-117996828D01*
X177421391Y-117592275D01*
X177442495Y-117372660D01*
X177287852Y-117181051D01*
X177098798Y-117023293D01*
X176882601Y-116905449D01*
X176647567Y-116832049D01*
X176402730Y-116805911D01*
X176158850Y-116827785D01*
X176015532Y-116995524D01*
X173029269Y-116995524D01*
X175242993Y-106242734D01*
X175369585Y-106162396D01*
X175486040Y-106051498D01*
X175578736Y-105920092D01*
X175644143Y-105773185D01*
X175679771Y-105616371D01*
X175682336Y-105432695D01*
X175651101Y-105274947D01*
X175589821Y-105126270D01*
X175500829Y-104992328D01*
X175387517Y-104878222D01*
X175254199Y-104788298D01*
X175105954Y-104725981D01*
X174948428Y-104693646D01*
X174920292Y-104693450D01*
X170974624Y-99102698D01*
X171032209Y-99080362D01*
X171167985Y-98994196D01*
X171262063Y-98904607D01*
X175053021Y-98904607D01*
X175193389Y-99074821D01*
X175438226Y-99100960D01*
X175683459Y-99078830D01*
X175919662Y-99009284D01*
X176137758Y-98894992D01*
X176298274Y-98765441D01*
X176300619Y-98767786D01*
X176322581Y-98745824D01*
X176329366Y-98740348D01*
X176336009Y-98732396D01*
X176371332Y-98697073D01*
X176368164Y-98693905D01*
X176486348Y-98552432D01*
X176469080Y-98332482D01*
X175665746Y-97991487D01*
X175533353Y-97859094D01*
X175479863Y-97912584D01*
X175474988Y-97910515D01*
X175469866Y-97922581D01*
X175462640Y-97929807D01*
X175465560Y-97932727D01*
X175053021Y-98904607D01*
X171262063Y-98904607D01*
X171284440Y-98883298D01*
X171377136Y-98751892D01*
X171442543Y-98604985D01*
X171478171Y-98448171D01*
X171480736Y-98264495D01*
X171452566Y-98122228D01*
X171654542Y-97834680D01*
X174192492Y-97834680D01*
X174214622Y-98079913D01*
X174284168Y-98316116D01*
X174398460Y-98534212D01*
X174528011Y-98694728D01*
X174525666Y-98697073D01*
X174547628Y-98719035D01*
X174553104Y-98725820D01*
X174561056Y-98732463D01*
X174596379Y-98767786D01*
X174599547Y-98764618D01*
X174741020Y-98882802D01*
X174960970Y-98865534D01*
X175301965Y-98062200D01*
X175434358Y-97929807D01*
X175380868Y-97876317D01*
X175382937Y-97871442D01*
X175370871Y-97866320D01*
X175363645Y-97859094D01*
X175360725Y-97862014D01*
X174388845Y-97449475D01*
X174218631Y-97589843D01*
X174192492Y-97834680D01*
X171654542Y-97834680D01*
X172083672Y-97223741D01*
X172088414Y-97223840D01*
X172246781Y-97195915D01*
X172396709Y-97137762D01*
X172397162Y-97137474D01*
X174410650Y-97137474D01*
X174427918Y-97357424D01*
X175231252Y-97698419D01*
X175363645Y-97830812D01*
X175417135Y-97777322D01*
X175422010Y-97779391D01*
X175427132Y-97767325D01*
X175434358Y-97760099D01*
X175431438Y-97757179D01*
X175843977Y-96785299D01*
X175703609Y-96615085D01*
X175458772Y-96588946D01*
X175213539Y-96611076D01*
X174977336Y-96680622D01*
X174759240Y-96794914D01*
X174598724Y-96924465D01*
X174596379Y-96922120D01*
X174574417Y-96944082D01*
X174567632Y-96949558D01*
X174560989Y-96957510D01*
X174525666Y-96992833D01*
X174528834Y-96996001D01*
X174410650Y-97137474D01*
X172397162Y-97137474D01*
X172532485Y-97051596D01*
X172648940Y-96940698D01*
X172741636Y-96809292D01*
X172807043Y-96662385D01*
X172842671Y-96505571D01*
X172845236Y-96321895D01*
X172814001Y-96164147D01*
X172752721Y-96015470D01*
X172663729Y-95881528D01*
X172550417Y-95767422D01*
X172417099Y-95677498D01*
X172268854Y-95615181D01*
X172111328Y-95582846D01*
X171950522Y-95581723D01*
X171792560Y-95611856D01*
X171643459Y-95672097D01*
X171508899Y-95760150D01*
X171394004Y-95872664D01*
X171303151Y-96005350D01*
X171239801Y-96153157D01*
X171206367Y-96310453D01*
X171204122Y-96471248D01*
X171232542Y-96626098D01*
X170601545Y-97524431D01*
X170586022Y-97524323D01*
X170428060Y-97554456D01*
X170278959Y-97614697D01*
X170144399Y-97702750D01*
X170118388Y-97728222D01*
X164810555Y-88006298D01*
X164831843Y-87958485D01*
X164867471Y-87801671D01*
X164870036Y-87617995D01*
X164838801Y-87460247D01*
X164777521Y-87311570D01*
X164688529Y-87177628D01*
X164575217Y-87063522D01*
X164441899Y-86973598D01*
X164293654Y-86911281D01*
X164136128Y-86878946D01*
X163975322Y-86877823D01*
X163817360Y-86907956D01*
X163668259Y-86968197D01*
X163533699Y-87056250D01*
X163506387Y-87082996D01*
X154677802Y-85644879D01*
X154663914Y-85642580D01*
X154655633Y-85642030D01*
X154647554Y-85640139D01*
X154640351Y-85639232D01*
X154610051Y-85635632D01*
X154601569Y-85635458D01*
X154593227Y-85633910D01*
X154585989Y-85633339D01*
X154571776Y-85632317D01*
X151778356Y-85422153D01*
X152115750Y-85208037D01*
X152601450Y-84745511D01*
X152988061Y-84197455D01*
X153260858Y-83584743D01*
X153326276Y-83296801D01*
X158011880Y-83296801D01*
X158166523Y-83488410D01*
X158355577Y-83646168D01*
X158571774Y-83764012D01*
X158806808Y-83837412D01*
X159051645Y-83863550D01*
X159295525Y-83841676D01*
X159438843Y-83673937D01*
X159034289Y-82672633D01*
X158032984Y-83077186D01*
X158011880Y-83296801D01*
X153326276Y-83296801D01*
X153409450Y-82930714D01*
X153414106Y-82597270D01*
X157805911Y-82597270D01*
X157827785Y-82841150D01*
X157995524Y-82984468D01*
X158860059Y-82635172D01*
X159127008Y-82635172D01*
X159531561Y-83636477D01*
X159751176Y-83657581D01*
X159942785Y-83502938D01*
X160100543Y-83313884D01*
X160218387Y-83097687D01*
X160291787Y-82862653D01*
X160317925Y-82617816D01*
X160296051Y-82373936D01*
X160128312Y-82230618D01*
X159127008Y-82635172D01*
X158860059Y-82635172D01*
X158996828Y-82579914D01*
X158592275Y-81578609D01*
X158372660Y-81557505D01*
X158181051Y-81712148D01*
X158023293Y-81901202D01*
X157905449Y-82117399D01*
X157832049Y-82352433D01*
X157805911Y-82597270D01*
X153414106Y-82597270D01*
X153420147Y-82164652D01*
X153289874Y-81506728D01*
X153034292Y-80886638D01*
X152663134Y-80328001D01*
X152190538Y-79852094D01*
X151634505Y-79477045D01*
X151016215Y-79217140D01*
X150359217Y-79082278D01*
X149688537Y-79077595D01*
X149029720Y-79203271D01*
X148407861Y-79454519D01*
X147846646Y-79821768D01*
X147367452Y-80291030D01*
X146988530Y-80844430D01*
X146724315Y-81460891D01*
X146584869Y-82116932D01*
X146575504Y-82787563D01*
X146693797Y-83432091D01*
X146638317Y-83376222D01*
X146504999Y-83286298D01*
X146356754Y-83223981D01*
X146199228Y-83191646D01*
X146038422Y-83190523D01*
X145880460Y-83220656D01*
X145731359Y-83280897D01*
X145596799Y-83368950D01*
X145481904Y-83481464D01*
X145391051Y-83614150D01*
X145327701Y-83761957D01*
X145309088Y-83849523D01*
X139920286Y-86713445D01*
X139848054Y-86683081D01*
X139690528Y-86650746D01*
X139529722Y-86649623D01*
X139371760Y-86679756D01*
X139222659Y-86739997D01*
X139088099Y-86828050D01*
X138973204Y-86940564D01*
X138882351Y-87073250D01*
X138819001Y-87221057D01*
X138790622Y-87354571D01*
X138678742Y-87312125D01*
X138626621Y-87185670D01*
X138537629Y-87051728D01*
X138424317Y-86937622D01*
X138290999Y-86847698D01*
X138142754Y-86785381D01*
X137985228Y-86753046D01*
X137824422Y-86751923D01*
X137666460Y-86782056D01*
X137517359Y-86842297D01*
X137382799Y-86930350D01*
X137267904Y-87042864D01*
X137177051Y-87175550D01*
X137113701Y-87323357D01*
X137080267Y-87480653D01*
X137078022Y-87641448D01*
X137107051Y-87799616D01*
X137166249Y-87949134D01*
X137253362Y-88084306D01*
X137365070Y-88199983D01*
X137497119Y-88291760D01*
X137644480Y-88356140D01*
X137801539Y-88390672D01*
X137962314Y-88394040D01*
X138120681Y-88366115D01*
X138270609Y-88307962D01*
X138308427Y-88283962D01*
X139171445Y-88611385D01*
X139171450Y-88611386D01*
X139171511Y-88611410D01*
X139265910Y-88647210D01*
X139285182Y-88652435D01*
X139303702Y-88659908D01*
X139334041Y-88665681D01*
X139363861Y-88673766D01*
X139383791Y-88675148D01*
X139403400Y-88678880D01*
X139410634Y-88679485D01*
X139611934Y-88694885D01*
X139632062Y-88694455D01*
X139652101Y-88696400D01*
X139682679Y-88693372D01*
X139713397Y-88692715D01*
X139733060Y-88688383D01*
X139753093Y-88686399D01*
X139760204Y-88684932D01*
X139859004Y-88663832D01*
X140680889Y-88488720D01*
X139002688Y-89274798D01*
X138891554Y-89228081D01*
X138734028Y-89195746D01*
X138573222Y-89194623D01*
X138415260Y-89224756D01*
X138266159Y-89284997D01*
X138131599Y-89373050D01*
X138016704Y-89485564D01*
X137925851Y-89618250D01*
X137862501Y-89766057D01*
X137829067Y-89923353D01*
X137826822Y-90084148D01*
X137855851Y-90242316D01*
X137915049Y-90391834D01*
X138002162Y-90527006D01*
X138113870Y-90642683D01*
X138245919Y-90734460D01*
X138393280Y-90798840D01*
X138550339Y-90833372D01*
X138711114Y-90836740D01*
X138869481Y-90808815D01*
X139019409Y-90750662D01*
X139155185Y-90664496D01*
X139271640Y-90553598D01*
X139364336Y-90422192D01*
X139429743Y-90275285D01*
X139442986Y-90216996D01*
X141852792Y-89088231D01*
X141952380Y-89131740D01*
X142109439Y-89166272D01*
X142270214Y-89169640D01*
X142428581Y-89141715D01*
X142578509Y-89083562D01*
X142714285Y-88997396D01*
X142830740Y-88886498D01*
X142909480Y-88774877D01*
X142963762Y-88859106D01*
X143075470Y-88974783D01*
X143207519Y-89066560D01*
X143354880Y-89130940D01*
X143511939Y-89165472D01*
X143672714Y-89168840D01*
X143831081Y-89140915D01*
X143981009Y-89082762D01*
X144116785Y-88996596D01*
X144233240Y-88885698D01*
X144325936Y-88754292D01*
X144391343Y-88607385D01*
X144426971Y-88450571D01*
X144429536Y-88266895D01*
X144398301Y-88109147D01*
X144337021Y-87960470D01*
X144248029Y-87826528D01*
X144134717Y-87712422D01*
X144001399Y-87622498D01*
X143853154Y-87560181D01*
X143695628Y-87527846D01*
X143534822Y-87526723D01*
X143376860Y-87556856D01*
X143319240Y-87580136D01*
X142815970Y-87290361D01*
X142815967Y-87290360D01*
X142703544Y-87225604D01*
X142666306Y-87208757D01*
X142629750Y-87190508D01*
X142620154Y-87187878D01*
X142611079Y-87183772D01*
X142571261Y-87174475D01*
X142531874Y-87163679D01*
X142524710Y-87162502D01*
X142268210Y-87122202D01*
X142227383Y-87119827D01*
X142186668Y-87115900D01*
X142176796Y-87116884D01*
X142166895Y-87116308D01*
X142126372Y-87121910D01*
X142085682Y-87125966D01*
X142078572Y-87127437D01*
X141952072Y-87154537D01*
X140874326Y-87384163D01*
X145797092Y-84767920D01*
X145858480Y-84794740D01*
X146015539Y-84829272D01*
X146176314Y-84832640D01*
X146334681Y-84804715D01*
X146388129Y-84783984D01*
X148027984Y-85772268D01*
X148028034Y-85772299D01*
X148360135Y-85972399D01*
X148365879Y-85975135D01*
X148371073Y-85978809D01*
X148411627Y-85996926D01*
X148451757Y-86016042D01*
X148457928Y-86017611D01*
X148463733Y-86020205D01*
X148470635Y-86022458D01*
X149209435Y-86257858D01*
X149215650Y-86259187D01*
X149221554Y-86261558D01*
X149265235Y-86269793D01*
X149308677Y-86279085D01*
X149315035Y-86279182D01*
X149321284Y-86280360D01*
X149328520Y-86280952D01*
X149713352Y-86309732D01*
X149713388Y-86309735D01*
X154494388Y-86669435D01*
X154494486Y-86669433D01*
X154496111Y-86669561D01*
X154499350Y-86669794D01*
X154505828Y-86670564D01*
X154508586Y-86671020D01*
X154508662Y-86671025D01*
X154509897Y-86671235D01*
X155767619Y-86876109D01*
X155749651Y-86902350D01*
X155743739Y-86916143D01*
X145093515Y-89072569D01*
X144962499Y-88984198D01*
X144814254Y-88921881D01*
X144656728Y-88889546D01*
X144495922Y-88888423D01*
X144337960Y-88918556D01*
X144188859Y-88978797D01*
X144054299Y-89066850D01*
X143939404Y-89179364D01*
X143848551Y-89312050D01*
X143785201Y-89459857D01*
X143751767Y-89617153D01*
X143749522Y-89777948D01*
X143778551Y-89936116D01*
X143837749Y-90085634D01*
X143924862Y-90220806D01*
X144036570Y-90336483D01*
X144168619Y-90428260D01*
X144315980Y-90492640D01*
X144473039Y-90527172D01*
X144602511Y-90529884D01*
X144655149Y-90662834D01*
X144742262Y-90798006D01*
X144775246Y-90832162D01*
X144769722Y-90832123D01*
X144611760Y-90862256D01*
X144462659Y-90922497D01*
X144328099Y-91010550D01*
X144213204Y-91123064D01*
X144122351Y-91255750D01*
X144059001Y-91403557D01*
X144025567Y-91560853D01*
X144023322Y-91721648D01*
X144052351Y-91879816D01*
X144111549Y-92029334D01*
X144148558Y-92086761D01*
X141919106Y-92087206D01*
X141837999Y-92032498D01*
X141689754Y-91970181D01*
X141532228Y-91937846D01*
X141371422Y-91936723D01*
X141213460Y-91966856D01*
X141064359Y-92027097D01*
X140929799Y-92115150D01*
X140816446Y-92226154D01*
X135142540Y-93669739D01*
X136102341Y-92702447D01*
X136245214Y-92705440D01*
X136403581Y-92677515D01*
X136553509Y-92619362D01*
X136689285Y-92533196D01*
X136805740Y-92422298D01*
X136898436Y-92290892D01*
X136963843Y-92143985D01*
X136999471Y-91987171D01*
X137002036Y-91803495D01*
X136970801Y-91645747D01*
X136909521Y-91497070D01*
X136820529Y-91363128D01*
X136707217Y-91249022D01*
X136573899Y-91159098D01*
X136534057Y-91142350D01*
X136544571Y-91096071D01*
X136547136Y-90912395D01*
X136515901Y-90754647D01*
X136454621Y-90605970D01*
X136365629Y-90472028D01*
X136252317Y-90357922D01*
X136118999Y-90267998D01*
X135970754Y-90205681D01*
X135813228Y-90173346D01*
X135652422Y-90172223D01*
X135494460Y-90202356D01*
X135445646Y-90222078D01*
X135411529Y-90170728D01*
X135298217Y-90056622D01*
X135164899Y-89966698D01*
X135016654Y-89904381D01*
X134859128Y-89872046D01*
X134698322Y-89870923D01*
X134540360Y-89901056D01*
X134391259Y-89961297D01*
X134256699Y-90049350D01*
X134141804Y-90161864D01*
X134050951Y-90294550D01*
X133987601Y-90442357D01*
X133954167Y-90599653D01*
X133951922Y-90760448D01*
X133964493Y-90828941D01*
X130331736Y-95007710D01*
X130233322Y-95007023D01*
X130075360Y-95037156D01*
X129926259Y-95097397D01*
X129791699Y-95185450D01*
X129676804Y-95297964D01*
X129585951Y-95430650D01*
X129522601Y-95578457D01*
X129489167Y-95735753D01*
X129486922Y-95896548D01*
X129515951Y-96054716D01*
X129575149Y-96204234D01*
X129662262Y-96339406D01*
X129773970Y-96455083D01*
X129906019Y-96546860D01*
X130053380Y-96611240D01*
X130210439Y-96645772D01*
X130371214Y-96649140D01*
X130529581Y-96621215D01*
X130679509Y-96563062D01*
X130815285Y-96476896D01*
X130884922Y-96410582D01*
X128694089Y-102323946D01*
X128694087Y-102323952D01*
X128662675Y-102408616D01*
X128652646Y-102446691D01*
X128640956Y-102484284D01*
X128639536Y-102491404D01*
X128605036Y-102671005D01*
X128601442Y-102709945D01*
X128596103Y-102748647D01*
X128595867Y-102755904D01*
X128593567Y-102846503D01*
X128593569Y-102846525D01*
X128593561Y-102846764D01*
X128460338Y-108200000D01*
X128400000Y-108200000D01*
X128344281Y-108207918D01*
X128292975Y-108231046D01*
X128250142Y-108267551D01*
X128219176Y-108314544D01*
X128202528Y-108368304D01*
X128200000Y-108400000D01*
X128200000Y-112012277D01*
X128151951Y-112082450D01*
X128088601Y-112230257D01*
X128055167Y-112387553D01*
X128052922Y-112548348D01*
X128081951Y-112706516D01*
X128141149Y-112856034D01*
X128228262Y-112991206D01*
X128339970Y-113106883D01*
X128472019Y-113198660D01*
X128619380Y-113263040D01*
X128776439Y-113297572D01*
X128937214Y-113300940D01*
X129095581Y-113273015D01*
X129245509Y-113214862D01*
X129381285Y-113128696D01*
X129485717Y-113029247D01*
X131345232Y-113740238D01*
X139370005Y-130840388D01*
X139325101Y-130945157D01*
X139291667Y-131102453D01*
X139289422Y-131263248D01*
X139318451Y-131421416D01*
X139377649Y-131570934D01*
X139464762Y-131706106D01*
X139576470Y-131821783D01*
X139708519Y-131913560D01*
X139855880Y-131977940D01*
X140012939Y-132012472D01*
X140173714Y-132015840D01*
X140332081Y-131987915D01*
X140482009Y-131929762D01*
X140617785Y-131843596D01*
X140734240Y-131732698D01*
X140826936Y-131601292D01*
X140892343Y-131454385D01*
X140927971Y-131297571D01*
X140930536Y-131113895D01*
X140899301Y-130956147D01*
X140838021Y-130807470D01*
X140749029Y-130673528D01*
X140635717Y-130559422D01*
X140502399Y-130469498D01*
X140354154Y-130407181D01*
X140311415Y-130398408D01*
X136205388Y-121648793D01*
X138659339Y-123148430D01*
X143000000Y-129462118D01*
X143000000Y-138855760D01*
X139939566Y-137268869D01*
X139964775Y-137243226D01*
X139640818Y-136246188D01*
X139649016Y-136237990D01*
X139632927Y-136221901D01*
X139631055Y-136216140D01*
X139628120Y-136217094D01*
X139596264Y-136185238D01*
X139726161Y-136185238D01*
X140059881Y-137212324D01*
X140277489Y-137248696D01*
X140479419Y-137107796D01*
X140649980Y-136930208D01*
X140782618Y-136722757D01*
X140872235Y-136493416D01*
X140915388Y-136250998D01*
X140910579Y-136006187D01*
X140753247Y-135851518D01*
X139726161Y-136185238D01*
X139596264Y-136185238D01*
X139578303Y-136167277D01*
X139480532Y-136265048D01*
X138603969Y-136549860D01*
X138599897Y-136574225D01*
X138043733Y-136285844D01*
X138103795Y-136200347D01*
X138177713Y-136055274D01*
X138410926Y-136055274D01*
X138415735Y-136300085D01*
X138573067Y-136454754D01*
X139600153Y-136121034D01*
X139266433Y-135093948D01*
X139081552Y-135063046D01*
X139361539Y-135063046D01*
X139695259Y-136090132D01*
X140722345Y-135756412D01*
X140758717Y-135538804D01*
X140617817Y-135336874D01*
X140440229Y-135166313D01*
X140232778Y-135033675D01*
X140003437Y-134944058D01*
X139761019Y-134900905D01*
X139516208Y-134905714D01*
X139361539Y-135063046D01*
X139081552Y-135063046D01*
X139048825Y-135057576D01*
X138846895Y-135198476D01*
X138676334Y-135376064D01*
X138543696Y-135583515D01*
X138454079Y-135812856D01*
X138410926Y-136055274D01*
X138177713Y-136055274D01*
X138784781Y-134863837D01*
X138810393Y-134801822D01*
X138830593Y-134684796D01*
X138817390Y-134566775D01*
X138771831Y-134457105D01*
X138697521Y-134364470D01*
X138600347Y-134296205D01*
X137263837Y-133615219D01*
X137201822Y-133589607D01*
X137084796Y-133569407D01*
X136966775Y-133582610D01*
X136857105Y-133628169D01*
X136764470Y-133702479D01*
X136696205Y-133799653D01*
X136015219Y-135136163D01*
X135989607Y-135198178D01*
X135986032Y-135218888D01*
X127969761Y-131062302D01*
X124110883Y-121614701D01*
X124156023Y-121614701D01*
X124296391Y-121784915D01*
X124541228Y-121811054D01*
X124786461Y-121788924D01*
X125022664Y-121719378D01*
X125240760Y-121605086D01*
X125401276Y-121475535D01*
X125403621Y-121477880D01*
X125425583Y-121455918D01*
X125432368Y-121450442D01*
X125439011Y-121442490D01*
X125474334Y-121407167D01*
X125471166Y-121403999D01*
X125589350Y-121262526D01*
X125572082Y-121042576D01*
X124768748Y-120701581D01*
X124636355Y-120569188D01*
X124582865Y-120622678D01*
X124577990Y-120620609D01*
X124572868Y-120632675D01*
X124565642Y-120639901D01*
X124568562Y-120642821D01*
X124156023Y-121614701D01*
X124110883Y-121614701D01*
X124079745Y-121538469D01*
X124404967Y-120772294D01*
X124537360Y-120639901D01*
X124483870Y-120586411D01*
X124485939Y-120581536D01*
X124473873Y-120576414D01*
X124466647Y-120569188D01*
X124463727Y-120572108D01*
X123521710Y-120172245D01*
X123389096Y-119847568D01*
X123513652Y-119847568D01*
X123530920Y-120067518D01*
X124334254Y-120408513D01*
X124466647Y-120540906D01*
X124520137Y-120487416D01*
X124525012Y-120489485D01*
X124530134Y-120477419D01*
X124537360Y-120470193D01*
X124565642Y-120470193D01*
X124619132Y-120523683D01*
X124617063Y-120528558D01*
X124629129Y-120533680D01*
X124636355Y-120540906D01*
X124639275Y-120537986D01*
X125611155Y-120950525D01*
X125781369Y-120810157D01*
X125807508Y-120565320D01*
X125785378Y-120320087D01*
X125715832Y-120083884D01*
X125601540Y-119865788D01*
X125471989Y-119705272D01*
X125474334Y-119702927D01*
X125452372Y-119680965D01*
X125446896Y-119674180D01*
X125438944Y-119667537D01*
X125403621Y-119632214D01*
X125400453Y-119635382D01*
X125258980Y-119517198D01*
X125039030Y-119534466D01*
X124698035Y-120337800D01*
X124565642Y-120470193D01*
X124537360Y-120470193D01*
X124534440Y-120467273D01*
X124946979Y-119495393D01*
X124806611Y-119325179D01*
X124561774Y-119299040D01*
X124316541Y-119321170D01*
X124080338Y-119390716D01*
X123862242Y-119505008D01*
X123701726Y-119634559D01*
X123699381Y-119632214D01*
X123677419Y-119654176D01*
X123670634Y-119659652D01*
X123663991Y-119667604D01*
X123628668Y-119702927D01*
X123631836Y-119706095D01*
X123513652Y-119847568D01*
X123389096Y-119847568D01*
X123281091Y-119583143D01*
X123343663Y-119567644D01*
X124734439Y-119005734D01*
X124794454Y-118975734D01*
X124886475Y-118900666D01*
X124953939Y-118802933D01*
X124991505Y-118690274D01*
X124996197Y-118571610D01*
X124967644Y-118456337D01*
X124405734Y-117065561D01*
X124375734Y-117005546D01*
X124300666Y-116913525D01*
X124202933Y-116846061D01*
X124090274Y-116808495D01*
X123971610Y-116803803D01*
X123856337Y-116832356D01*
X122465561Y-117394266D01*
X122405546Y-117424266D01*
X122400858Y-117428090D01*
X122270000Y-117107714D01*
X122270000Y-113144948D01*
X124384222Y-113144948D01*
X124413251Y-113303116D01*
X124472449Y-113452634D01*
X124559562Y-113587806D01*
X124671270Y-113703483D01*
X124803319Y-113795260D01*
X124950680Y-113859640D01*
X125107739Y-113894172D01*
X125118304Y-113894393D01*
X132239517Y-124811007D01*
X132016215Y-124717140D01*
X131359217Y-124582278D01*
X130688537Y-124577595D01*
X130029720Y-124703271D01*
X129407861Y-124954519D01*
X128846646Y-125321768D01*
X128367452Y-125791030D01*
X127988530Y-126344430D01*
X127724315Y-126960891D01*
X127584869Y-127616932D01*
X127575504Y-128287563D01*
X127696578Y-128947241D01*
X127943478Y-129570839D01*
X128306800Y-130134604D01*
X128772705Y-130617063D01*
X129323447Y-130999839D01*
X129938048Y-131268351D01*
X130593099Y-131412374D01*
X131263649Y-131426420D01*
X131924156Y-131309954D01*
X132549462Y-131067414D01*
X133115750Y-130708037D01*
X133431721Y-130407142D01*
X133437351Y-130437816D01*
X133496549Y-130587334D01*
X133583662Y-130722506D01*
X133695370Y-130838183D01*
X133827419Y-130929960D01*
X133974780Y-130994340D01*
X134131839Y-131028872D01*
X134292614Y-131032240D01*
X134450981Y-131004315D01*
X134600909Y-130946162D01*
X134736685Y-130859996D01*
X134853140Y-130749098D01*
X134945836Y-130617692D01*
X135011243Y-130470785D01*
X135046871Y-130313971D01*
X135049436Y-130130295D01*
X135018201Y-129972547D01*
X134956921Y-129823870D01*
X134867929Y-129689928D01*
X134770101Y-129591414D01*
X134818418Y-128125935D01*
X134818417Y-128125920D01*
X134818422Y-128125796D01*
X134826722Y-127871996D01*
X134824382Y-127836075D01*
X134824092Y-127800087D01*
X134823275Y-127792873D01*
X134763275Y-127294273D01*
X134755489Y-127259040D01*
X134749712Y-127223434D01*
X134747807Y-127216428D01*
X134611107Y-126727328D01*
X134598072Y-126693747D01*
X134586971Y-126659491D01*
X134584023Y-126652856D01*
X134376923Y-126195356D01*
X134358935Y-126164144D01*
X134342752Y-126131963D01*
X134338830Y-126125853D01*
X134199931Y-125912753D01*
X134199925Y-125912745D01*
X134199827Y-125912593D01*
X125989384Y-113326222D01*
X126022771Y-113179271D01*
X126025336Y-112995595D01*
X125994101Y-112837847D01*
X125932821Y-112689170D01*
X125843829Y-112555228D01*
X125820534Y-112531770D01*
X128801250Y-94184715D01*
X128897085Y-94123896D01*
X129013540Y-94012998D01*
X129106236Y-93881592D01*
X129171643Y-93734685D01*
X129207271Y-93577871D01*
X129209836Y-93394195D01*
X129203021Y-93359777D01*
X130052921Y-92438109D01*
X130164214Y-92440440D01*
X130322581Y-92412515D01*
X130472509Y-92354362D01*
X130608285Y-92268196D01*
X130724740Y-92157298D01*
X130817436Y-92025892D01*
X130882843Y-91878985D01*
X130918471Y-91722171D01*
X130921036Y-91538495D01*
X130889801Y-91380747D01*
X130828521Y-91232070D01*
X130739529Y-91098128D01*
X130626217Y-90984022D01*
X130492899Y-90894098D01*
X130344654Y-90831781D01*
X130187128Y-90799446D01*
X130026322Y-90798323D01*
X129868360Y-90828456D01*
X129719259Y-90888697D01*
X129584699Y-90976750D01*
X129469804Y-91089264D01*
X129378951Y-91221950D01*
X129315601Y-91369757D01*
X129282167Y-91527053D01*
X129279922Y-91687848D01*
X129288248Y-91733214D01*
X128438347Y-92654884D01*
X128315122Y-92654023D01*
X128157160Y-92684156D01*
X128008059Y-92744397D01*
X127873499Y-92832450D01*
X127758604Y-92944964D01*
X127667751Y-93077650D01*
X127604401Y-93225457D01*
X127570967Y-93382753D01*
X127568722Y-93543548D01*
X127597751Y-93701716D01*
X127656949Y-93851234D01*
X127744062Y-93986406D01*
X127774682Y-94018114D01*
X124793968Y-112365161D01*
X124688999Y-112433850D01*
X124574104Y-112546364D01*
X124483251Y-112679050D01*
X124419901Y-112826857D01*
X124386467Y-112984153D01*
X124384222Y-113144948D01*
X122270000Y-113144948D01*
X122270000Y-101091096D01*
X122376877Y-100825746D01*
X122357505Y-101027340D01*
X122512148Y-101218949D01*
X122701202Y-101376707D01*
X122917399Y-101494551D01*
X123152433Y-101567951D01*
X123397270Y-101594089D01*
X123641150Y-101572215D01*
X123784468Y-101404476D01*
X123379914Y-100403172D01*
X122385210Y-100805058D01*
X122437094Y-100676243D01*
X123205686Y-100365711D01*
X123472633Y-100365711D01*
X123877186Y-101367016D01*
X124096801Y-101388120D01*
X124288410Y-101233477D01*
X124446168Y-101044423D01*
X124564012Y-100828226D01*
X124637412Y-100593192D01*
X124663550Y-100348355D01*
X124641676Y-100104475D01*
X124473937Y-99961157D01*
X123472633Y-100365711D01*
X123205686Y-100365711D01*
X123318770Y-100320022D01*
X123322689Y-100323941D01*
X123331922Y-100314708D01*
X123342453Y-100310453D01*
X123340647Y-100305983D01*
X123393402Y-100253228D01*
X123269119Y-100128945D01*
X122962853Y-99370909D01*
X123002817Y-99271688D01*
X123030618Y-99271688D01*
X123435172Y-100272992D01*
X124436477Y-99868439D01*
X124457581Y-99648824D01*
X124302938Y-99457215D01*
X124113884Y-99299457D01*
X123897687Y-99181613D01*
X123662653Y-99108213D01*
X123417816Y-99082075D01*
X123173936Y-99103949D01*
X123030618Y-99271688D01*
X123002817Y-99271688D01*
X123208904Y-98760025D01*
X123251672Y-98785812D01*
X124632429Y-99371909D01*
X124696079Y-99393133D01*
X124814229Y-99405121D01*
X124931041Y-99383717D01*
X125037266Y-99330618D01*
X125124492Y-99250028D01*
X125185812Y-99148328D01*
X125771909Y-97767571D01*
X125793133Y-97703921D01*
X125805121Y-97585771D01*
X125783717Y-97468959D01*
X125730618Y-97362734D01*
X125650028Y-97275508D01*
X125548328Y-97214188D01*
X124167571Y-96628091D01*
X124103921Y-96606867D01*
X124077238Y-96604160D01*
X127961117Y-86961426D01*
X133810681Y-84611155D01*
X138249475Y-84611155D01*
X138389843Y-84781369D01*
X138634680Y-84807508D01*
X138879913Y-84785378D01*
X139116116Y-84715832D01*
X139334212Y-84601540D01*
X139494728Y-84471989D01*
X139497073Y-84474334D01*
X139519035Y-84452372D01*
X139525820Y-84446896D01*
X139532463Y-84438944D01*
X139567786Y-84403621D01*
X139564618Y-84400453D01*
X139682802Y-84258980D01*
X139665534Y-84039030D01*
X138862200Y-83698035D01*
X138729807Y-83565642D01*
X138676317Y-83619132D01*
X138671442Y-83617063D01*
X138666320Y-83629129D01*
X138659094Y-83636355D01*
X138662014Y-83639275D01*
X138249475Y-84611155D01*
X133810681Y-84611155D01*
X136473611Y-83541228D01*
X137388946Y-83541228D01*
X137411076Y-83786461D01*
X137480622Y-84022664D01*
X137594914Y-84240760D01*
X137724465Y-84401276D01*
X137722120Y-84403621D01*
X137744082Y-84425583D01*
X137749558Y-84432368D01*
X137757510Y-84439011D01*
X137792833Y-84474334D01*
X137796001Y-84471166D01*
X137937474Y-84589350D01*
X138157424Y-84572082D01*
X138498419Y-83768748D01*
X138630812Y-83636355D01*
X138577322Y-83582865D01*
X138579391Y-83577990D01*
X138567325Y-83572868D01*
X138560099Y-83565642D01*
X138557179Y-83568562D01*
X137585299Y-83156023D01*
X137415085Y-83296391D01*
X137388946Y-83541228D01*
X136473611Y-83541228D01*
X137642401Y-83071625D01*
X138427706Y-83404967D01*
X138560099Y-83537360D01*
X138613589Y-83483870D01*
X138618464Y-83485939D01*
X138623585Y-83473874D01*
X138630812Y-83466647D01*
X138659094Y-83466647D01*
X138712584Y-83520137D01*
X138710515Y-83525012D01*
X138722581Y-83530134D01*
X138729807Y-83537360D01*
X138732727Y-83534440D01*
X139704607Y-83946979D01*
X139874821Y-83806611D01*
X139900960Y-83561774D01*
X139878830Y-83316541D01*
X139809284Y-83080338D01*
X139694992Y-82862242D01*
X139565441Y-82701726D01*
X139567786Y-82699381D01*
X139545824Y-82677419D01*
X139540348Y-82670634D01*
X139532396Y-82663991D01*
X139497073Y-82628668D01*
X139493905Y-82631836D01*
X139352432Y-82513652D01*
X139132482Y-82530920D01*
X138791487Y-83334254D01*
X138659094Y-83466647D01*
X138630812Y-83466647D01*
X138627892Y-83463727D01*
X139031184Y-82513631D01*
X139616232Y-82278568D01*
X139632356Y-82343663D01*
X140194266Y-83734439D01*
X140224266Y-83794454D01*
X140299334Y-83886475D01*
X140397067Y-83953939D01*
X140509726Y-83991505D01*
X140628390Y-83996197D01*
X140743663Y-83967644D01*
X142134439Y-83405734D01*
X142194454Y-83375734D01*
X142286475Y-83300666D01*
X142353939Y-83202933D01*
X142391505Y-83090274D01*
X142396197Y-82971610D01*
X142367644Y-82856337D01*
X141805734Y-81465561D01*
X141777967Y-81410013D01*
X150000000Y-78106518D01*
X158711460Y-81606658D01*
G36*
X135000000Y-115137650D02*
X135000000Y-119080207D01*
X132745264Y-114275545D01*
X135000000Y-115137650D01*
X135000000Y-115137650D01*
G37*
X135000000Y-115137650D02*
X135000000Y-119080207D01*
X132745264Y-114275545D01*
X135000000Y-115137650D01*
G36*
X147143867Y-93514653D02*
X147141622Y-93675448D01*
X147170651Y-93833616D01*
X147229849Y-93983134D01*
X147316962Y-94118306D01*
X147428670Y-94233983D01*
X147559622Y-94324998D01*
X147519051Y-94384250D01*
X147455701Y-94532057D01*
X147422267Y-94689353D01*
X147420022Y-94850148D01*
X147449051Y-95008316D01*
X147508249Y-95157834D01*
X147595362Y-95293006D01*
X147707070Y-95408683D01*
X147839119Y-95500460D01*
X147986480Y-95564840D01*
X148143539Y-95599372D01*
X148304314Y-95602740D01*
X148462681Y-95574815D01*
X148612609Y-95516662D01*
X148724171Y-95445863D01*
X153873290Y-96799512D01*
X153873297Y-96799513D01*
X153873363Y-96799531D01*
X153984813Y-96828813D01*
X153984819Y-96828815D01*
X153984825Y-96828816D01*
X153985263Y-96828931D01*
X154035015Y-96836919D01*
X154085008Y-96844990D01*
X154085432Y-96845013D01*
X154085466Y-96845019D01*
X154085505Y-96845018D01*
X154092257Y-96845392D01*
X154125774Y-96847015D01*
X148819394Y-97903184D01*
X148803272Y-97906351D01*
X148793309Y-97909342D01*
X148783003Y-97910754D01*
X148775953Y-97912485D01*
X148742753Y-97920885D01*
X148735608Y-97923457D01*
X148728139Y-97924810D01*
X148721170Y-97926843D01*
X148705470Y-97931543D01*
X148705401Y-97931571D01*
X148704348Y-97931881D01*
X147732248Y-98225281D01*
X147732156Y-98225319D01*
X147732060Y-98225338D01*
X147725125Y-98227486D01*
X147711894Y-98231687D01*
X146605712Y-98200082D01*
X146549790Y-98206405D01*
X146497844Y-98228058D01*
X146486360Y-98237212D01*
X142485988Y-94692755D01*
X142487536Y-94581895D01*
X142456301Y-94424147D01*
X142395021Y-94275470D01*
X142306029Y-94141528D01*
X142192717Y-94027422D01*
X142059399Y-93937498D01*
X141911154Y-93875181D01*
X141753628Y-93842846D01*
X141592822Y-93841723D01*
X141434860Y-93871856D01*
X141285759Y-93932097D01*
X141151199Y-94020150D01*
X141036304Y-94132664D01*
X140945451Y-94265350D01*
X140882101Y-94413157D01*
X140848667Y-94570453D01*
X140846422Y-94731248D01*
X140875451Y-94889416D01*
X140934649Y-95038934D01*
X141021762Y-95174106D01*
X141133470Y-95289783D01*
X141158832Y-95307410D01*
X141145604Y-95320364D01*
X141054751Y-95453050D01*
X140991401Y-95600857D01*
X140957967Y-95758153D01*
X140955722Y-95918948D01*
X140984751Y-96077116D01*
X141043949Y-96226634D01*
X141131062Y-96361806D01*
X141242770Y-96477483D01*
X141374819Y-96569260D01*
X141466809Y-96609449D01*
X141635413Y-97156267D01*
X141599917Y-97120522D01*
X141466599Y-97030598D01*
X141318354Y-96968281D01*
X141160828Y-96935946D01*
X141000022Y-96934823D01*
X140842060Y-96964956D01*
X140692959Y-97025197D01*
X140558399Y-97113250D01*
X140443504Y-97225764D01*
X140352651Y-97358450D01*
X140289301Y-97506257D01*
X140255867Y-97663553D01*
X140253622Y-97824348D01*
X140282651Y-97982516D01*
X140341849Y-98132034D01*
X140428962Y-98267206D01*
X140540670Y-98382883D01*
X140656736Y-98463551D01*
X141408655Y-103391382D01*
X140458176Y-104236252D01*
X138963831Y-101262609D01*
X138963322Y-101261803D01*
X138962975Y-101260913D01*
X138959646Y-101254461D01*
X138946946Y-101230261D01*
X138945892Y-101228655D01*
X138945155Y-101226878D01*
X138941689Y-101220498D01*
X138164633Y-99813554D01*
X138184343Y-99769285D01*
X138219971Y-99612471D01*
X138222536Y-99428795D01*
X138191301Y-99271047D01*
X138130021Y-99122370D01*
X138041029Y-98988428D01*
X137927717Y-98874322D01*
X137794399Y-98784398D01*
X137646154Y-98722081D01*
X137488628Y-98689746D01*
X137327822Y-98688623D01*
X137169860Y-98718756D01*
X137020759Y-98778997D01*
X136886199Y-98867050D01*
X136771304Y-98979564D01*
X136680451Y-99112250D01*
X136617101Y-99260057D01*
X136583667Y-99417353D01*
X136581422Y-99578148D01*
X136610451Y-99736316D01*
X136669649Y-99885834D01*
X136756762Y-100021006D01*
X136868470Y-100136683D01*
X137000519Y-100228460D01*
X137147880Y-100292840D01*
X137254174Y-100316210D01*
X138028640Y-101718467D01*
X138036623Y-101733679D01*
X139653628Y-104951406D01*
X138902604Y-105618983D01*
X135973791Y-106400000D01*
X135127928Y-106400000D01*
X131032798Y-102902483D01*
X131034136Y-102806695D01*
X131002901Y-102648947D01*
X130941621Y-102500270D01*
X130852629Y-102366328D01*
X130739317Y-102252222D01*
X130605999Y-102162298D01*
X130457754Y-102099981D01*
X130323400Y-102072403D01*
X132300011Y-96737254D01*
X132305929Y-96721313D01*
X132324550Y-96690794D01*
X132336196Y-96678048D01*
X132336197Y-96678046D01*
X133891715Y-94976907D01*
X133919362Y-95019806D01*
X134031070Y-95135483D01*
X134163119Y-95227260D01*
X134310480Y-95291640D01*
X134467539Y-95326172D01*
X134628314Y-95329540D01*
X134786681Y-95301615D01*
X134936609Y-95243462D01*
X135072385Y-95157296D01*
X135188840Y-95046398D01*
X135193781Y-95039393D01*
X141151682Y-93523553D01*
X141191480Y-93540940D01*
X141348539Y-93575472D01*
X141509314Y-93578840D01*
X141667681Y-93550915D01*
X141817609Y-93492762D01*
X141920910Y-93427205D01*
X147162677Y-93426160D01*
X147143867Y-93514653D01*
X147143867Y-93514653D01*
G37*
X147143867Y-93514653D02*
X147141622Y-93675448D01*
X147170651Y-93833616D01*
X147229849Y-93983134D01*
X147316962Y-94118306D01*
X147428670Y-94233983D01*
X147559622Y-94324998D01*
X147519051Y-94384250D01*
X147455701Y-94532057D01*
X147422267Y-94689353D01*
X147420022Y-94850148D01*
X147449051Y-95008316D01*
X147508249Y-95157834D01*
X147595362Y-95293006D01*
X147707070Y-95408683D01*
X147839119Y-95500460D01*
X147986480Y-95564840D01*
X148143539Y-95599372D01*
X148304314Y-95602740D01*
X148462681Y-95574815D01*
X148612609Y-95516662D01*
X148724171Y-95445863D01*
X153873290Y-96799512D01*
X153873297Y-96799513D01*
X153873363Y-96799531D01*
X153984813Y-96828813D01*
X153984819Y-96828815D01*
X153984825Y-96828816D01*
X153985263Y-96828931D01*
X154035015Y-96836919D01*
X154085008Y-96844990D01*
X154085432Y-96845013D01*
X154085466Y-96845019D01*
X154085505Y-96845018D01*
X154092257Y-96845392D01*
X154125774Y-96847015D01*
X148819394Y-97903184D01*
X148803272Y-97906351D01*
X148793309Y-97909342D01*
X148783003Y-97910754D01*
X148775953Y-97912485D01*
X148742753Y-97920885D01*
X148735608Y-97923457D01*
X148728139Y-97924810D01*
X148721170Y-97926843D01*
X148705470Y-97931543D01*
X148705401Y-97931571D01*
X148704348Y-97931881D01*
X147732248Y-98225281D01*
X147732156Y-98225319D01*
X147732060Y-98225338D01*
X147725125Y-98227486D01*
X147711894Y-98231687D01*
X146605712Y-98200082D01*
X146549790Y-98206405D01*
X146497844Y-98228058D01*
X146486360Y-98237212D01*
X142485988Y-94692755D01*
X142487536Y-94581895D01*
X142456301Y-94424147D01*
X142395021Y-94275470D01*
X142306029Y-94141528D01*
X142192717Y-94027422D01*
X142059399Y-93937498D01*
X141911154Y-93875181D01*
X141753628Y-93842846D01*
X141592822Y-93841723D01*
X141434860Y-93871856D01*
X141285759Y-93932097D01*
X141151199Y-94020150D01*
X141036304Y-94132664D01*
X140945451Y-94265350D01*
X140882101Y-94413157D01*
X140848667Y-94570453D01*
X140846422Y-94731248D01*
X140875451Y-94889416D01*
X140934649Y-95038934D01*
X141021762Y-95174106D01*
X141133470Y-95289783D01*
X141158832Y-95307410D01*
X141145604Y-95320364D01*
X141054751Y-95453050D01*
X140991401Y-95600857D01*
X140957967Y-95758153D01*
X140955722Y-95918948D01*
X140984751Y-96077116D01*
X141043949Y-96226634D01*
X141131062Y-96361806D01*
X141242770Y-96477483D01*
X141374819Y-96569260D01*
X141466809Y-96609449D01*
X141635413Y-97156267D01*
X141599917Y-97120522D01*
X141466599Y-97030598D01*
X141318354Y-96968281D01*
X141160828Y-96935946D01*
X141000022Y-96934823D01*
X140842060Y-96964956D01*
X140692959Y-97025197D01*
X140558399Y-97113250D01*
X140443504Y-97225764D01*
X140352651Y-97358450D01*
X140289301Y-97506257D01*
X140255867Y-97663553D01*
X140253622Y-97824348D01*
X140282651Y-97982516D01*
X140341849Y-98132034D01*
X140428962Y-98267206D01*
X140540670Y-98382883D01*
X140656736Y-98463551D01*
X141408655Y-103391382D01*
X140458176Y-104236252D01*
X138963831Y-101262609D01*
X138963322Y-101261803D01*
X138962975Y-101260913D01*
X138959646Y-101254461D01*
X138946946Y-101230261D01*
X138945892Y-101228655D01*
X138945155Y-101226878D01*
X138941689Y-101220498D01*
X138164633Y-99813554D01*
X138184343Y-99769285D01*
X138219971Y-99612471D01*
X138222536Y-99428795D01*
X138191301Y-99271047D01*
X138130021Y-99122370D01*
X138041029Y-98988428D01*
X137927717Y-98874322D01*
X137794399Y-98784398D01*
X137646154Y-98722081D01*
X137488628Y-98689746D01*
X137327822Y-98688623D01*
X137169860Y-98718756D01*
X137020759Y-98778997D01*
X136886199Y-98867050D01*
X136771304Y-98979564D01*
X136680451Y-99112250D01*
X136617101Y-99260057D01*
X136583667Y-99417353D01*
X136581422Y-99578148D01*
X136610451Y-99736316D01*
X136669649Y-99885834D01*
X136756762Y-100021006D01*
X136868470Y-100136683D01*
X137000519Y-100228460D01*
X137147880Y-100292840D01*
X137254174Y-100316210D01*
X138028640Y-101718467D01*
X138036623Y-101733679D01*
X139653628Y-104951406D01*
X138902604Y-105618983D01*
X135973791Y-106400000D01*
X135127928Y-106400000D01*
X131032798Y-102902483D01*
X131034136Y-102806695D01*
X131002901Y-102648947D01*
X130941621Y-102500270D01*
X130852629Y-102366328D01*
X130739317Y-102252222D01*
X130605999Y-102162298D01*
X130457754Y-102099981D01*
X130323400Y-102072403D01*
X132300011Y-96737254D01*
X132305929Y-96721313D01*
X132324550Y-96690794D01*
X132336196Y-96678048D01*
X132336197Y-96678046D01*
X133891715Y-94976907D01*
X133919362Y-95019806D01*
X134031070Y-95135483D01*
X134163119Y-95227260D01*
X134310480Y-95291640D01*
X134467539Y-95326172D01*
X134628314Y-95329540D01*
X134786681Y-95301615D01*
X134936609Y-95243462D01*
X135072385Y-95157296D01*
X135188840Y-95046398D01*
X135193781Y-95039393D01*
X141151682Y-93523553D01*
X141191480Y-93540940D01*
X141348539Y-93575472D01*
X141509314Y-93578840D01*
X141667681Y-93550915D01*
X141817609Y-93492762D01*
X141920910Y-93427205D01*
X147162677Y-93426160D01*
X147143867Y-93514653D01*
G36*
X167918855Y-98799767D02*
X167843954Y-98768281D01*
X167686428Y-98735946D01*
X167525622Y-98734823D01*
X167367660Y-98764956D01*
X167218559Y-98825197D01*
X167083999Y-98913250D01*
X166969104Y-99025764D01*
X166878251Y-99158450D01*
X166814901Y-99306257D01*
X166781467Y-99463553D01*
X166780676Y-99520239D01*
X166341337Y-99849847D01*
X166341305Y-99849877D01*
X166340832Y-99850227D01*
X166329132Y-99859027D01*
X166324237Y-99863520D01*
X166318651Y-99867121D01*
X166312994Y-99871670D01*
X166290194Y-99890270D01*
X166285241Y-99895190D01*
X166279535Y-99899206D01*
X166274067Y-99903982D01*
X166262667Y-99914083D01*
X166262606Y-99914148D01*
X166261356Y-99915248D01*
X164617903Y-101381217D01*
X164617871Y-101381245D01*
X164592071Y-101404246D01*
X164583296Y-101413760D01*
X164573232Y-101421899D01*
X164568094Y-101427029D01*
X164520794Y-101474929D01*
X164513372Y-101484082D01*
X164504670Y-101492014D01*
X164499845Y-101497438D01*
X164477745Y-101522638D01*
X164477738Y-101522648D01*
X164477593Y-101522811D01*
X163078754Y-103119288D01*
X162920035Y-103106839D01*
X166584799Y-96531831D01*
X166660881Y-96518415D01*
X166810809Y-96460262D01*
X166914505Y-96394455D01*
X167918855Y-98799767D01*
X167918855Y-98799767D01*
G37*
X167918855Y-98799767D02*
X167843954Y-98768281D01*
X167686428Y-98735946D01*
X167525622Y-98734823D01*
X167367660Y-98764956D01*
X167218559Y-98825197D01*
X167083999Y-98913250D01*
X166969104Y-99025764D01*
X166878251Y-99158450D01*
X166814901Y-99306257D01*
X166781467Y-99463553D01*
X166780676Y-99520239D01*
X166341337Y-99849847D01*
X166341305Y-99849877D01*
X166340832Y-99850227D01*
X166329132Y-99859027D01*
X166324237Y-99863520D01*
X166318651Y-99867121D01*
X166312994Y-99871670D01*
X166290194Y-99890270D01*
X166285241Y-99895190D01*
X166279535Y-99899206D01*
X166274067Y-99903982D01*
X166262667Y-99914083D01*
X166262606Y-99914148D01*
X166261356Y-99915248D01*
X164617903Y-101381217D01*
X164617871Y-101381245D01*
X164592071Y-101404246D01*
X164583296Y-101413760D01*
X164573232Y-101421899D01*
X164568094Y-101427029D01*
X164520794Y-101474929D01*
X164513372Y-101484082D01*
X164504670Y-101492014D01*
X164499845Y-101497438D01*
X164477745Y-101522638D01*
X164477738Y-101522648D01*
X164477593Y-101522811D01*
X163078754Y-103119288D01*
X162920035Y-103106839D01*
X166584799Y-96531831D01*
X166660881Y-96518415D01*
X166810809Y-96460262D01*
X166914505Y-96394455D01*
X167918855Y-98799767D01*
G36*
X166054845Y-94996373D02*
X165922999Y-95082650D01*
X165808104Y-95195164D01*
X165717251Y-95327850D01*
X165653901Y-95475657D01*
X165620467Y-95632953D01*
X165618222Y-95793748D01*
X165647251Y-95951916D01*
X165676381Y-96025492D01*
X161779265Y-103017367D01*
X161428075Y-102989823D01*
X163364332Y-98723569D01*
X163375981Y-98721515D01*
X163525909Y-98663362D01*
X163661685Y-98577196D01*
X163778140Y-98466298D01*
X163870836Y-98334892D01*
X163936243Y-98187985D01*
X163971871Y-98031171D01*
X163974436Y-97847495D01*
X163943201Y-97689747D01*
X163881921Y-97541070D01*
X163792929Y-97407128D01*
X163679617Y-97293022D01*
X163546299Y-97203098D01*
X163398054Y-97140781D01*
X163240528Y-97108446D01*
X163079722Y-97107323D01*
X162921760Y-97137456D01*
X162772659Y-97197697D01*
X162638099Y-97285750D01*
X162523204Y-97398264D01*
X162432351Y-97530950D01*
X162369001Y-97678757D01*
X162335567Y-97836053D01*
X162333322Y-97996848D01*
X162362351Y-98155016D01*
X162417292Y-98293783D01*
X160325232Y-102903325D01*
X159103662Y-102807516D01*
X158729250Y-102326130D01*
X163788217Y-95380860D01*
X163788218Y-95380858D01*
X163855005Y-95289176D01*
X163869728Y-95264154D01*
X163886495Y-95240452D01*
X163895400Y-95220522D01*
X163906470Y-95201708D01*
X163916053Y-95174300D01*
X163927896Y-95147795D01*
X163930149Y-95140893D01*
X163999049Y-94924693D01*
X164005155Y-94896156D01*
X164013613Y-94868225D01*
X164015746Y-94846652D01*
X164020282Y-94825453D01*
X164020728Y-94796271D01*
X164023600Y-94767231D01*
X164023555Y-94759971D01*
X164022055Y-94645770D01*
X164022053Y-94645754D01*
X164022051Y-94645427D01*
X164009025Y-93701179D01*
X164104040Y-93610698D01*
X164196736Y-93479292D01*
X164262143Y-93332385D01*
X164297771Y-93175571D01*
X164300336Y-92991895D01*
X164287206Y-92925586D01*
X166054845Y-94996373D01*
X166054845Y-94996373D01*
G37*
X166054845Y-94996373D02*
X165922999Y-95082650D01*
X165808104Y-95195164D01*
X165717251Y-95327850D01*
X165653901Y-95475657D01*
X165620467Y-95632953D01*
X165618222Y-95793748D01*
X165647251Y-95951916D01*
X165676381Y-96025492D01*
X161779265Y-103017367D01*
X161428075Y-102989823D01*
X163364332Y-98723569D01*
X163375981Y-98721515D01*
X163525909Y-98663362D01*
X163661685Y-98577196D01*
X163778140Y-98466298D01*
X163870836Y-98334892D01*
X163936243Y-98187985D01*
X163971871Y-98031171D01*
X163974436Y-97847495D01*
X163943201Y-97689747D01*
X163881921Y-97541070D01*
X163792929Y-97407128D01*
X163679617Y-97293022D01*
X163546299Y-97203098D01*
X163398054Y-97140781D01*
X163240528Y-97108446D01*
X163079722Y-97107323D01*
X162921760Y-97137456D01*
X162772659Y-97197697D01*
X162638099Y-97285750D01*
X162523204Y-97398264D01*
X162432351Y-97530950D01*
X162369001Y-97678757D01*
X162335567Y-97836053D01*
X162333322Y-97996848D01*
X162362351Y-98155016D01*
X162417292Y-98293783D01*
X160325232Y-102903325D01*
X159103662Y-102807516D01*
X158729250Y-102326130D01*
X163788217Y-95380860D01*
X163788218Y-95380858D01*
X163855005Y-95289176D01*
X163869728Y-95264154D01*
X163886495Y-95240452D01*
X163895400Y-95220522D01*
X163906470Y-95201708D01*
X163916053Y-95174300D01*
X163927896Y-95147795D01*
X163930149Y-95140893D01*
X163999049Y-94924693D01*
X164005155Y-94896156D01*
X164013613Y-94868225D01*
X164015746Y-94846652D01*
X164020282Y-94825453D01*
X164020728Y-94796271D01*
X164023600Y-94767231D01*
X164023555Y-94759971D01*
X164022055Y-94645770D01*
X164022053Y-94645754D01*
X164022051Y-94645427D01*
X164009025Y-93701179D01*
X164104040Y-93610698D01*
X164196736Y-93479292D01*
X164262143Y-93332385D01*
X164297771Y-93175571D01*
X164300336Y-92991895D01*
X164287206Y-92925586D01*
X166054845Y-94996373D01*
G36*
X158064837Y-101471884D02*
X156357870Y-99277212D01*
X156317412Y-99238092D01*
X156258817Y-99208844D01*
X153658817Y-98408844D01*
X153605712Y-98400082D01*
X151895958Y-98351232D01*
X161769383Y-96386048D01*
X158064837Y-101471884D01*
X158064837Y-101471884D01*
G37*
X158064837Y-101471884D02*
X156357870Y-99277212D01*
X156317412Y-99238092D01*
X156258817Y-99208844D01*
X153658817Y-98408844D01*
X153605712Y-98400082D01*
X151895958Y-98351232D01*
X161769383Y-96386048D01*
X158064837Y-101471884D01*
G36*
X154382142Y-90693708D02*
X154398659Y-90697067D01*
X154398682Y-90697069D01*
X154399004Y-90697137D01*
X162250104Y-92288437D01*
X162250116Y-92288438D01*
X162250253Y-92288467D01*
X162292253Y-92296967D01*
X162320331Y-92299840D01*
X162348054Y-92305140D01*
X162355289Y-92305751D01*
X162441889Y-92312451D01*
X162469907Y-92311876D01*
X162497860Y-92313758D01*
X162505115Y-92313486D01*
X162547815Y-92311586D01*
X162547862Y-92311579D01*
X162548539Y-92311553D01*
X163264138Y-92278713D01*
X163247660Y-92281856D01*
X163098559Y-92342097D01*
X162963999Y-92430150D01*
X162849104Y-92542664D01*
X162758251Y-92675350D01*
X162694901Y-92823157D01*
X162661467Y-92980453D01*
X162659222Y-93141248D01*
X162688251Y-93299416D01*
X162747449Y-93448934D01*
X162834562Y-93584106D01*
X162946270Y-93699783D01*
X162969125Y-93715668D01*
X162971115Y-93859942D01*
X162887828Y-93842846D01*
X162734621Y-93841776D01*
X162689321Y-93731870D01*
X162600329Y-93597928D01*
X162487017Y-93483822D01*
X162353699Y-93393898D01*
X162205454Y-93331581D01*
X162047928Y-93299246D01*
X161887122Y-93298123D01*
X161729160Y-93328256D01*
X161580059Y-93388497D01*
X161445499Y-93476550D01*
X161435557Y-93486286D01*
X161389417Y-93439822D01*
X161256099Y-93349898D01*
X161107854Y-93287581D01*
X160950328Y-93255246D01*
X160789522Y-93254123D01*
X160631560Y-93284256D01*
X160482459Y-93344497D01*
X160347899Y-93432550D01*
X160322543Y-93457381D01*
X157099947Y-93792269D01*
X157086499Y-93783198D01*
X156938254Y-93720881D01*
X156780728Y-93688546D01*
X156619922Y-93687423D01*
X156461960Y-93717556D01*
X156312859Y-93777797D01*
X156178299Y-93865850D01*
X156063404Y-93978364D01*
X155972551Y-94111050D01*
X155909201Y-94258857D01*
X155875767Y-94416153D01*
X155873522Y-94576948D01*
X155902551Y-94735116D01*
X155961749Y-94884634D01*
X156048862Y-95019806D01*
X156119097Y-95092536D01*
X154316623Y-95409561D01*
X154316621Y-95409562D01*
X154292784Y-95413753D01*
X154244472Y-95409239D01*
X154222211Y-95400869D01*
X154222194Y-95400864D01*
X154221953Y-95400772D01*
X150104516Y-93855098D01*
X151516760Y-94140462D01*
X151578970Y-94204883D01*
X151711019Y-94296660D01*
X151858380Y-94361040D01*
X152015439Y-94395572D01*
X152176214Y-94398940D01*
X152334581Y-94371015D01*
X152484509Y-94312862D01*
X152620285Y-94226696D01*
X152736740Y-94115798D01*
X152829436Y-93984392D01*
X152894843Y-93837485D01*
X152930471Y-93680671D01*
X152933036Y-93496995D01*
X152901801Y-93339247D01*
X152840521Y-93190570D01*
X152751529Y-93056628D01*
X152638217Y-92942522D01*
X152504899Y-92852598D01*
X152356654Y-92790281D01*
X152199128Y-92757946D01*
X152038322Y-92756823D01*
X151880360Y-92786956D01*
X151781539Y-92826882D01*
X148263801Y-92116073D01*
X148263777Y-92116071D01*
X148263396Y-92115991D01*
X148221196Y-92107491D01*
X148192671Y-92104600D01*
X148164635Y-92098594D01*
X148155332Y-92097602D01*
X148071033Y-92089202D01*
X148041613Y-92089155D01*
X148012364Y-92085945D01*
X148003008Y-92085902D01*
X147961695Y-92086000D01*
X146546328Y-92086282D01*
X154331397Y-90696305D01*
X154331398Y-90696305D01*
X154348110Y-90693322D01*
X154382142Y-90693708D01*
X154382142Y-90693708D01*
G37*
X154382142Y-90693708D02*
X154398659Y-90697067D01*
X154398682Y-90697069D01*
X154399004Y-90697137D01*
X162250104Y-92288437D01*
X162250116Y-92288438D01*
X162250253Y-92288467D01*
X162292253Y-92296967D01*
X162320331Y-92299840D01*
X162348054Y-92305140D01*
X162355289Y-92305751D01*
X162441889Y-92312451D01*
X162469907Y-92311876D01*
X162497860Y-92313758D01*
X162505115Y-92313486D01*
X162547815Y-92311586D01*
X162547862Y-92311579D01*
X162548539Y-92311553D01*
X163264138Y-92278713D01*
X163247660Y-92281856D01*
X163098559Y-92342097D01*
X162963999Y-92430150D01*
X162849104Y-92542664D01*
X162758251Y-92675350D01*
X162694901Y-92823157D01*
X162661467Y-92980453D01*
X162659222Y-93141248D01*
X162688251Y-93299416D01*
X162747449Y-93448934D01*
X162834562Y-93584106D01*
X162946270Y-93699783D01*
X162969125Y-93715668D01*
X162971115Y-93859942D01*
X162887828Y-93842846D01*
X162734621Y-93841776D01*
X162689321Y-93731870D01*
X162600329Y-93597928D01*
X162487017Y-93483822D01*
X162353699Y-93393898D01*
X162205454Y-93331581D01*
X162047928Y-93299246D01*
X161887122Y-93298123D01*
X161729160Y-93328256D01*
X161580059Y-93388497D01*
X161445499Y-93476550D01*
X161435557Y-93486286D01*
X161389417Y-93439822D01*
X161256099Y-93349898D01*
X161107854Y-93287581D01*
X160950328Y-93255246D01*
X160789522Y-93254123D01*
X160631560Y-93284256D01*
X160482459Y-93344497D01*
X160347899Y-93432550D01*
X160322543Y-93457381D01*
X157099947Y-93792269D01*
X157086499Y-93783198D01*
X156938254Y-93720881D01*
X156780728Y-93688546D01*
X156619922Y-93687423D01*
X156461960Y-93717556D01*
X156312859Y-93777797D01*
X156178299Y-93865850D01*
X156063404Y-93978364D01*
X155972551Y-94111050D01*
X155909201Y-94258857D01*
X155875767Y-94416153D01*
X155873522Y-94576948D01*
X155902551Y-94735116D01*
X155961749Y-94884634D01*
X156048862Y-95019806D01*
X156119097Y-95092536D01*
X154316623Y-95409561D01*
X154316621Y-95409562D01*
X154292784Y-95413753D01*
X154244472Y-95409239D01*
X154222211Y-95400869D01*
X154222194Y-95400864D01*
X154221953Y-95400772D01*
X150104516Y-93855098D01*
X151516760Y-94140462D01*
X151578970Y-94204883D01*
X151711019Y-94296660D01*
X151858380Y-94361040D01*
X152015439Y-94395572D01*
X152176214Y-94398940D01*
X152334581Y-94371015D01*
X152484509Y-94312862D01*
X152620285Y-94226696D01*
X152736740Y-94115798D01*
X152829436Y-93984392D01*
X152894843Y-93837485D01*
X152930471Y-93680671D01*
X152933036Y-93496995D01*
X152901801Y-93339247D01*
X152840521Y-93190570D01*
X152751529Y-93056628D01*
X152638217Y-92942522D01*
X152504899Y-92852598D01*
X152356654Y-92790281D01*
X152199128Y-92757946D01*
X152038322Y-92756823D01*
X151880360Y-92786956D01*
X151781539Y-92826882D01*
X148263801Y-92116073D01*
X148263777Y-92116071D01*
X148263396Y-92115991D01*
X148221196Y-92107491D01*
X148192671Y-92104600D01*
X148164635Y-92098594D01*
X148155332Y-92097602D01*
X148071033Y-92089202D01*
X148041613Y-92089155D01*
X148012364Y-92085945D01*
X148003008Y-92085902D01*
X147961695Y-92086000D01*
X146546328Y-92086282D01*
X154331397Y-90696305D01*
X154331398Y-90696305D01*
X154348110Y-90693322D01*
X154382142Y-90693708D01*
G36*
X156069719Y-88018560D02*
X156217080Y-88082940D01*
X156374139Y-88117472D01*
X156534914Y-88120840D01*
X156693281Y-88092915D01*
X156843209Y-88034762D01*
X156913930Y-87989881D01*
X158478613Y-88498618D01*
X158478619Y-88498619D01*
X158478675Y-88498638D01*
X158481259Y-88499478D01*
X161975620Y-89658689D01*
X154579072Y-88864078D01*
X154579037Y-88864074D01*
X154500837Y-88855674D01*
X154477280Y-88855456D01*
X154453882Y-88852771D01*
X154446622Y-88852702D01*
X154289221Y-88852302D01*
X154265439Y-88854573D01*
X154241551Y-88854370D01*
X154234324Y-88855067D01*
X154156125Y-88863167D01*
X154156122Y-88863168D01*
X148500085Y-89443922D01*
X155950147Y-87935455D01*
X156069719Y-88018560D01*
X156069719Y-88018560D01*
G37*
X156069719Y-88018560D02*
X156217080Y-88082940D01*
X156374139Y-88117472D01*
X156534914Y-88120840D01*
X156693281Y-88092915D01*
X156843209Y-88034762D01*
X156913930Y-87989881D01*
X158478613Y-88498618D01*
X158478619Y-88498619D01*
X158478675Y-88498638D01*
X158481259Y-88499478D01*
X161975620Y-89658689D01*
X154579072Y-88864078D01*
X154579037Y-88864074D01*
X154500837Y-88855674D01*
X154477280Y-88855456D01*
X154453882Y-88852771D01*
X154446622Y-88852702D01*
X154289221Y-88852302D01*
X154265439Y-88854573D01*
X154241551Y-88854370D01*
X154234324Y-88855067D01*
X154156125Y-88863167D01*
X154156122Y-88863168D01*
X148500085Y-89443922D01*
X155950147Y-87935455D01*
X156069719Y-88018560D01*
G36*
X138613990Y-110745014D02*
X138614016Y-110745032D01*
X138614328Y-110745302D01*
X138639428Y-110766702D01*
X138656185Y-110778371D01*
X138671459Y-110791911D01*
X138677365Y-110796134D01*
X138730465Y-110833534D01*
X138748706Y-110843879D01*
X138765630Y-110856240D01*
X138771908Y-110859886D01*
X138800244Y-110876078D01*
X142283062Y-112869986D01*
X142299751Y-112960916D01*
X142358949Y-113110434D01*
X142446062Y-113245606D01*
X142470757Y-113271179D01*
X142381760Y-113288156D01*
X142232659Y-113348397D01*
X142098099Y-113436450D01*
X141983204Y-113548964D01*
X141892351Y-113681650D01*
X141829001Y-113829457D01*
X141795567Y-113986753D01*
X141793322Y-114147548D01*
X141822351Y-114305716D01*
X141881549Y-114455234D01*
X141968662Y-114590406D01*
X142080370Y-114706083D01*
X142131677Y-114741743D01*
X142987421Y-117267326D01*
X142956467Y-117412953D01*
X142954222Y-117573748D01*
X142983251Y-117731916D01*
X143042449Y-117881434D01*
X143129562Y-118016606D01*
X143241270Y-118132283D01*
X143373319Y-118224060D01*
X143520680Y-118288440D01*
X143677739Y-118322972D01*
X143838514Y-118326340D01*
X143996881Y-118298415D01*
X144146809Y-118240262D01*
X144165816Y-118228200D01*
X147070567Y-118587434D01*
X147070585Y-118587434D01*
X147070873Y-118587472D01*
X147119573Y-118593472D01*
X147153193Y-118594308D01*
X147186597Y-118598335D01*
X147195952Y-118598477D01*
X147292551Y-118599277D01*
X147325452Y-118596326D01*
X147358492Y-118596573D01*
X147367803Y-118595664D01*
X147415604Y-118590664D01*
X147415613Y-118590662D01*
X147415768Y-118590647D01*
X150094520Y-118309772D01*
X150098819Y-118312760D01*
X150246180Y-118377140D01*
X150403239Y-118411672D01*
X150564014Y-118415040D01*
X150722381Y-118387115D01*
X150872309Y-118328962D01*
X151008085Y-118242796D01*
X151124540Y-118131898D01*
X151217236Y-118000492D01*
X151250112Y-117926651D01*
X151267249Y-117969934D01*
X151354362Y-118105106D01*
X151466070Y-118220783D01*
X151598119Y-118312560D01*
X151745480Y-118376940D01*
X151842337Y-118398236D01*
X155324147Y-124877321D01*
X155297001Y-124940657D01*
X155263567Y-125097953D01*
X155261322Y-125258748D01*
X155290351Y-125416916D01*
X155349549Y-125566434D01*
X155436662Y-125701606D01*
X155548370Y-125817283D01*
X155680419Y-125909060D01*
X155827780Y-125973440D01*
X155984839Y-126007972D01*
X156145614Y-126011340D01*
X156303981Y-125983415D01*
X156453909Y-125925262D01*
X156589685Y-125839096D01*
X156706140Y-125728198D01*
X156798836Y-125596792D01*
X156864243Y-125449885D01*
X156899871Y-125293071D01*
X156902436Y-125109395D01*
X156871201Y-124951647D01*
X156809921Y-124802970D01*
X156720929Y-124669028D01*
X156607617Y-124554922D01*
X156474299Y-124464998D01*
X156326054Y-124402681D01*
X156240275Y-124385073D01*
X152758497Y-117906046D01*
X152781943Y-117853385D01*
X152802892Y-117761178D01*
X154065706Y-119051631D01*
X154083451Y-119148316D01*
X154142649Y-119297834D01*
X154229762Y-119433006D01*
X154341470Y-119548683D01*
X154473519Y-119640460D01*
X154620880Y-119704840D01*
X154777939Y-119739372D01*
X154938714Y-119742740D01*
X155097081Y-119714815D01*
X155247009Y-119656662D01*
X155382785Y-119570496D01*
X155499240Y-119459598D01*
X155591936Y-119328192D01*
X155657343Y-119181285D01*
X155692971Y-119024471D01*
X155695536Y-118840795D01*
X155664301Y-118683047D01*
X155603021Y-118534370D01*
X155592396Y-118518377D01*
X163628462Y-118518377D01*
X163669882Y-118744056D01*
X163754348Y-118957392D01*
X163878642Y-119150259D01*
X164038031Y-119315311D01*
X164226442Y-119446260D01*
X164436701Y-119538120D01*
X164660797Y-119587391D01*
X164890196Y-119592196D01*
X165116159Y-119552353D01*
X165330079Y-119469378D01*
X165523809Y-119346434D01*
X165689970Y-119188201D01*
X165822231Y-119000708D01*
X165915557Y-118791096D01*
X165966391Y-118567349D01*
X165970050Y-118305276D01*
X165925483Y-118080197D01*
X165838047Y-117868061D01*
X165711072Y-117676948D01*
X165549395Y-117514138D01*
X165359173Y-117385831D01*
X165147652Y-117296916D01*
X164922890Y-117250779D01*
X164693447Y-117249178D01*
X164468062Y-117292172D01*
X164255321Y-117378125D01*
X164063326Y-117503763D01*
X163899391Y-117664300D01*
X163769760Y-117853621D01*
X163679371Y-118064516D01*
X163631666Y-118288950D01*
X163628462Y-118518377D01*
X155592396Y-118518377D01*
X155514029Y-118400428D01*
X155400717Y-118286322D01*
X155267399Y-118196398D01*
X155119154Y-118134081D01*
X155023445Y-118114435D01*
X153653345Y-116714345D01*
X161436366Y-116714345D01*
X161502750Y-116924748D01*
X161719967Y-117040701D01*
X161955632Y-117112049D01*
X162200689Y-117136049D01*
X162445718Y-117111780D01*
X162681305Y-117040174D01*
X162897250Y-116924748D01*
X162963634Y-116714345D01*
X164036366Y-116714345D01*
X164102750Y-116924748D01*
X164319967Y-117040701D01*
X164555632Y-117112049D01*
X164800689Y-117136049D01*
X165045718Y-117111780D01*
X165281305Y-117040174D01*
X165497250Y-116924748D01*
X165563634Y-116714345D01*
X164800000Y-115950711D01*
X164036366Y-116714345D01*
X162963634Y-116714345D01*
X162200000Y-115950711D01*
X161436366Y-116714345D01*
X153653345Y-116714345D01*
X153322210Y-116375963D01*
X153460677Y-115880689D01*
X160943951Y-115880689D01*
X160968220Y-116125718D01*
X161039826Y-116361305D01*
X161155252Y-116577250D01*
X161365655Y-116643634D01*
X162129289Y-115880000D01*
X162270711Y-115880000D01*
X163034345Y-116643634D01*
X163244748Y-116577250D01*
X163360701Y-116360033D01*
X163432049Y-116124368D01*
X163455914Y-115880689D01*
X163543951Y-115880689D01*
X163568220Y-116125718D01*
X163639826Y-116361305D01*
X163755252Y-116577250D01*
X163965655Y-116643634D01*
X164729289Y-115880000D01*
X164870711Y-115880000D01*
X165634345Y-116643634D01*
X165844748Y-116577250D01*
X165960701Y-116360033D01*
X166032049Y-116124368D01*
X166056049Y-115879311D01*
X166031780Y-115634282D01*
X165960174Y-115398695D01*
X165844748Y-115182750D01*
X165634345Y-115116366D01*
X164870711Y-115880000D01*
X164729289Y-115880000D01*
X163965655Y-115116366D01*
X163755252Y-115182750D01*
X163639299Y-115399967D01*
X163567951Y-115635632D01*
X163543951Y-115880689D01*
X163455914Y-115880689D01*
X163456049Y-115879311D01*
X163431780Y-115634282D01*
X163360174Y-115398695D01*
X163244748Y-115182750D01*
X163034345Y-115116366D01*
X162270711Y-115880000D01*
X162129289Y-115880000D01*
X161365655Y-115116366D01*
X161155252Y-115182750D01*
X161039299Y-115399967D01*
X160967951Y-115635632D01*
X160943951Y-115880689D01*
X153460677Y-115880689D01*
X154203315Y-113224401D01*
X154338680Y-113283540D01*
X154495739Y-113318072D01*
X154656514Y-113321440D01*
X154814881Y-113293515D01*
X154964809Y-113235362D01*
X155100585Y-113149196D01*
X155217040Y-113038298D01*
X155309736Y-112906892D01*
X155375143Y-112759985D01*
X155410771Y-112603171D01*
X155411417Y-112556927D01*
X157149772Y-111323211D01*
X156805024Y-111941728D01*
X156717860Y-111958356D01*
X156568759Y-112018597D01*
X156434199Y-112106650D01*
X156319304Y-112219164D01*
X156228451Y-112351850D01*
X156165101Y-112499657D01*
X156131667Y-112656953D01*
X156129422Y-112817748D01*
X156158451Y-112975916D01*
X156217649Y-113125434D01*
X156304762Y-113260606D01*
X156416470Y-113376283D01*
X156484367Y-113423473D01*
X156472201Y-113451857D01*
X156438767Y-113609153D01*
X156436522Y-113769948D01*
X156465551Y-113928116D01*
X156524749Y-114077634D01*
X156605223Y-114202505D01*
X156535351Y-114304550D01*
X156472001Y-114452357D01*
X156438567Y-114609653D01*
X156436322Y-114770448D01*
X156465351Y-114928616D01*
X156524549Y-115078134D01*
X156611662Y-115213306D01*
X156723370Y-115328983D01*
X156855419Y-115420760D01*
X157002780Y-115485140D01*
X157159839Y-115519672D01*
X157320614Y-115523040D01*
X157478981Y-115495115D01*
X157628909Y-115436962D01*
X157764685Y-115350796D01*
X157881140Y-115239898D01*
X157973836Y-115108492D01*
X158001812Y-115045655D01*
X161436366Y-115045655D01*
X162200000Y-115809289D01*
X162963634Y-115045655D01*
X164036366Y-115045655D01*
X164800000Y-115809289D01*
X165563634Y-115045655D01*
X165497250Y-114835252D01*
X165280033Y-114719299D01*
X165044368Y-114647951D01*
X164799311Y-114623951D01*
X164554282Y-114648220D01*
X164318695Y-114719826D01*
X164102750Y-114835252D01*
X164036366Y-115045655D01*
X162963634Y-115045655D01*
X162897250Y-114835252D01*
X162680033Y-114719299D01*
X162444368Y-114647951D01*
X162199311Y-114623951D01*
X161954282Y-114648220D01*
X161718695Y-114719826D01*
X161502750Y-114835252D01*
X161436366Y-115045655D01*
X158001812Y-115045655D01*
X158039243Y-114961585D01*
X158074871Y-114804771D01*
X158077436Y-114621095D01*
X158075313Y-114610373D01*
X158128873Y-114555785D01*
X158128876Y-114555781D01*
X158128914Y-114555743D01*
X158170114Y-114513743D01*
X158195143Y-114482669D01*
X158221436Y-114452689D01*
X158225626Y-114446761D01*
X158292827Y-114350261D01*
X158312489Y-114315154D01*
X158333550Y-114280894D01*
X158336685Y-114274345D01*
X158361711Y-114221117D01*
X158511178Y-113903853D01*
X158613919Y-113975260D01*
X158761280Y-114039640D01*
X158918339Y-114074172D01*
X159079114Y-114077540D01*
X159237481Y-114049615D01*
X159387409Y-113991462D01*
X159523185Y-113905296D01*
X159639640Y-113794398D01*
X159732336Y-113662992D01*
X159797743Y-113516085D01*
X159815398Y-113438377D01*
X161028462Y-113438377D01*
X161069882Y-113664056D01*
X161154348Y-113877392D01*
X161278642Y-114070259D01*
X161438031Y-114235311D01*
X161626442Y-114366260D01*
X161836701Y-114458120D01*
X162060797Y-114507391D01*
X162290196Y-114512196D01*
X162516159Y-114472353D01*
X162730079Y-114389378D01*
X162923809Y-114266434D01*
X163089970Y-114108201D01*
X163222231Y-113920708D01*
X163315557Y-113711096D01*
X163366391Y-113487349D01*
X163367074Y-113438377D01*
X163628462Y-113438377D01*
X163669882Y-113664056D01*
X163754348Y-113877392D01*
X163878642Y-114070259D01*
X164038031Y-114235311D01*
X164226442Y-114366260D01*
X164436701Y-114458120D01*
X164660797Y-114507391D01*
X164890196Y-114512196D01*
X165116159Y-114472353D01*
X165330079Y-114389378D01*
X165523809Y-114266434D01*
X165689970Y-114108201D01*
X165822231Y-113920708D01*
X165915557Y-113711096D01*
X165966391Y-113487349D01*
X165970050Y-113225276D01*
X165925483Y-113000197D01*
X165838047Y-112788061D01*
X165711072Y-112596948D01*
X165549395Y-112434138D01*
X165359173Y-112305831D01*
X165147652Y-112216916D01*
X164922890Y-112170779D01*
X164693447Y-112169178D01*
X164468062Y-112212172D01*
X164255321Y-112298125D01*
X164063326Y-112423763D01*
X163899391Y-112584300D01*
X163769760Y-112773621D01*
X163679371Y-112984516D01*
X163631666Y-113208950D01*
X163628462Y-113438377D01*
X163367074Y-113438377D01*
X163370050Y-113225276D01*
X163325483Y-113000197D01*
X163238047Y-112788061D01*
X163111072Y-112596948D01*
X162949395Y-112434138D01*
X162759173Y-112305831D01*
X162547652Y-112216916D01*
X162322890Y-112170779D01*
X162093447Y-112169178D01*
X161868062Y-112212172D01*
X161655321Y-112298125D01*
X161463326Y-112423763D01*
X161299391Y-112584300D01*
X161169760Y-112773621D01*
X161079371Y-112984516D01*
X161031666Y-113208950D01*
X161028462Y-113438377D01*
X159815398Y-113438377D01*
X159833371Y-113359271D01*
X159835936Y-113175595D01*
X159804701Y-113017847D01*
X159774931Y-112945619D01*
X161027968Y-110628668D01*
X161027968Y-111550000D01*
X161033302Y-111616883D01*
X161068432Y-111730325D01*
X161133776Y-111829488D01*
X161224159Y-111906521D01*
X161332425Y-111955323D01*
X161450000Y-111972032D01*
X162950000Y-111972032D01*
X163016883Y-111966698D01*
X163130325Y-111931568D01*
X163229488Y-111866224D01*
X163306521Y-111775841D01*
X163355323Y-111667575D01*
X163372032Y-111550000D01*
X163372032Y-110050000D01*
X163627968Y-110050000D01*
X163627968Y-111550000D01*
X163633302Y-111616883D01*
X163668432Y-111730325D01*
X163733776Y-111829488D01*
X163824159Y-111906521D01*
X163932425Y-111955323D01*
X164050000Y-111972032D01*
X165550000Y-111972032D01*
X165616883Y-111966698D01*
X165730325Y-111931568D01*
X165829488Y-111866224D01*
X165906521Y-111775841D01*
X165955323Y-111667575D01*
X165972032Y-111550000D01*
X165972032Y-110050000D01*
X165966698Y-109983117D01*
X165931568Y-109869675D01*
X165866224Y-109770512D01*
X165775841Y-109693479D01*
X165667575Y-109644677D01*
X165550000Y-109627968D01*
X164050000Y-109627968D01*
X163983117Y-109633302D01*
X163869675Y-109668432D01*
X163770512Y-109733776D01*
X163693479Y-109824159D01*
X163644677Y-109932425D01*
X163627968Y-110050000D01*
X163372032Y-110050000D01*
X163366698Y-109983117D01*
X163331568Y-109869675D01*
X163266224Y-109770512D01*
X163175841Y-109693479D01*
X163067575Y-109644677D01*
X162950000Y-109627968D01*
X161569159Y-109627968D01*
X162585331Y-107748998D01*
X162587151Y-107758916D01*
X162646349Y-107908434D01*
X162733462Y-108043606D01*
X162845170Y-108159283D01*
X162977219Y-108251060D01*
X163124580Y-108315440D01*
X163281639Y-108349972D01*
X163442414Y-108353340D01*
X163600781Y-108325415D01*
X163750709Y-108267262D01*
X163886485Y-108181096D01*
X163895591Y-108172424D01*
X168258935Y-109094599D01*
X168258949Y-109094634D01*
X168346062Y-109229806D01*
X168400000Y-109285660D01*
X168400000Y-119495210D01*
X158086158Y-126635562D01*
X158044854Y-126673787D01*
X158012734Y-126729775D01*
X156861400Y-129800000D01*
X143800000Y-129800000D01*
X143800000Y-129000000D01*
X143792082Y-128944281D01*
X143763101Y-128884251D01*
X139363101Y-122684251D01*
X139301404Y-122627613D01*
X135996095Y-120683314D01*
X135815689Y-115451534D01*
X146202161Y-123646062D01*
X146260549Y-123793534D01*
X146347662Y-123928706D01*
X146459370Y-124044383D01*
X146591419Y-124136160D01*
X146738780Y-124200540D01*
X146895839Y-124235072D01*
X147056614Y-124238440D01*
X147214981Y-124210515D01*
X147233693Y-124203257D01*
X149728567Y-125034980D01*
X149745662Y-125061506D01*
X149857370Y-125177183D01*
X149989419Y-125268960D01*
X150136780Y-125333340D01*
X150293839Y-125367872D01*
X150454614Y-125371240D01*
X150612981Y-125343315D01*
X150762909Y-125285162D01*
X150898685Y-125198996D01*
X151015140Y-125088098D01*
X151107836Y-124956692D01*
X151173243Y-124809785D01*
X151208871Y-124652971D01*
X151211436Y-124469295D01*
X151180201Y-124311547D01*
X151118921Y-124162870D01*
X151029929Y-124028928D01*
X150916617Y-123914822D01*
X150783299Y-123824898D01*
X150635054Y-123762581D01*
X150477528Y-123730246D01*
X150316722Y-123729123D01*
X150158760Y-123759256D01*
X150149758Y-123762893D01*
X147655305Y-122931311D01*
X147631929Y-122896128D01*
X147518617Y-122782022D01*
X147385299Y-122692098D01*
X147237054Y-122629781D01*
X147079528Y-122597446D01*
X147036064Y-122597142D01*
X132844696Y-111400698D01*
X132844639Y-111400662D01*
X132843762Y-111399962D01*
X132832312Y-111390961D01*
X132811613Y-111367841D01*
X132802811Y-111353744D01*
X131340620Y-109005641D01*
X133816609Y-108799309D01*
X133871478Y-108786791D01*
X133920687Y-108759483D01*
X133960339Y-108719546D01*
X133994029Y-108648507D01*
X134358865Y-107189162D01*
X134443481Y-107183118D01*
X138613990Y-110745014D01*
X138613990Y-110745014D01*
G37*
X138613990Y-110745014D02*
X138614016Y-110745032D01*
X138614328Y-110745302D01*
X138639428Y-110766702D01*
X138656185Y-110778371D01*
X138671459Y-110791911D01*
X138677365Y-110796134D01*
X138730465Y-110833534D01*
X138748706Y-110843879D01*
X138765630Y-110856240D01*
X138771908Y-110859886D01*
X138800244Y-110876078D01*
X142283062Y-112869986D01*
X142299751Y-112960916D01*
X142358949Y-113110434D01*
X142446062Y-113245606D01*
X142470757Y-113271179D01*
X142381760Y-113288156D01*
X142232659Y-113348397D01*
X142098099Y-113436450D01*
X141983204Y-113548964D01*
X141892351Y-113681650D01*
X141829001Y-113829457D01*
X141795567Y-113986753D01*
X141793322Y-114147548D01*
X141822351Y-114305716D01*
X141881549Y-114455234D01*
X141968662Y-114590406D01*
X142080370Y-114706083D01*
X142131677Y-114741743D01*
X142987421Y-117267326D01*
X142956467Y-117412953D01*
X142954222Y-117573748D01*
X142983251Y-117731916D01*
X143042449Y-117881434D01*
X143129562Y-118016606D01*
X143241270Y-118132283D01*
X143373319Y-118224060D01*
X143520680Y-118288440D01*
X143677739Y-118322972D01*
X143838514Y-118326340D01*
X143996881Y-118298415D01*
X144146809Y-118240262D01*
X144165816Y-118228200D01*
X147070567Y-118587434D01*
X147070585Y-118587434D01*
X147070873Y-118587472D01*
X147119573Y-118593472D01*
X147153193Y-118594308D01*
X147186597Y-118598335D01*
X147195952Y-118598477D01*
X147292551Y-118599277D01*
X147325452Y-118596326D01*
X147358492Y-118596573D01*
X147367803Y-118595664D01*
X147415604Y-118590664D01*
X147415613Y-118590662D01*
X147415768Y-118590647D01*
X150094520Y-118309772D01*
X150098819Y-118312760D01*
X150246180Y-118377140D01*
X150403239Y-118411672D01*
X150564014Y-118415040D01*
X150722381Y-118387115D01*
X150872309Y-118328962D01*
X151008085Y-118242796D01*
X151124540Y-118131898D01*
X151217236Y-118000492D01*
X151250112Y-117926651D01*
X151267249Y-117969934D01*
X151354362Y-118105106D01*
X151466070Y-118220783D01*
X151598119Y-118312560D01*
X151745480Y-118376940D01*
X151842337Y-118398236D01*
X155324147Y-124877321D01*
X155297001Y-124940657D01*
X155263567Y-125097953D01*
X155261322Y-125258748D01*
X155290351Y-125416916D01*
X155349549Y-125566434D01*
X155436662Y-125701606D01*
X155548370Y-125817283D01*
X155680419Y-125909060D01*
X155827780Y-125973440D01*
X155984839Y-126007972D01*
X156145614Y-126011340D01*
X156303981Y-125983415D01*
X156453909Y-125925262D01*
X156589685Y-125839096D01*
X156706140Y-125728198D01*
X156798836Y-125596792D01*
X156864243Y-125449885D01*
X156899871Y-125293071D01*
X156902436Y-125109395D01*
X156871201Y-124951647D01*
X156809921Y-124802970D01*
X156720929Y-124669028D01*
X156607617Y-124554922D01*
X156474299Y-124464998D01*
X156326054Y-124402681D01*
X156240275Y-124385073D01*
X152758497Y-117906046D01*
X152781943Y-117853385D01*
X152802892Y-117761178D01*
X154065706Y-119051631D01*
X154083451Y-119148316D01*
X154142649Y-119297834D01*
X154229762Y-119433006D01*
X154341470Y-119548683D01*
X154473519Y-119640460D01*
X154620880Y-119704840D01*
X154777939Y-119739372D01*
X154938714Y-119742740D01*
X155097081Y-119714815D01*
X155247009Y-119656662D01*
X155382785Y-119570496D01*
X155499240Y-119459598D01*
X155591936Y-119328192D01*
X155657343Y-119181285D01*
X155692971Y-119024471D01*
X155695536Y-118840795D01*
X155664301Y-118683047D01*
X155603021Y-118534370D01*
X155592396Y-118518377D01*
X163628462Y-118518377D01*
X163669882Y-118744056D01*
X163754348Y-118957392D01*
X163878642Y-119150259D01*
X164038031Y-119315311D01*
X164226442Y-119446260D01*
X164436701Y-119538120D01*
X164660797Y-119587391D01*
X164890196Y-119592196D01*
X165116159Y-119552353D01*
X165330079Y-119469378D01*
X165523809Y-119346434D01*
X165689970Y-119188201D01*
X165822231Y-119000708D01*
X165915557Y-118791096D01*
X165966391Y-118567349D01*
X165970050Y-118305276D01*
X165925483Y-118080197D01*
X165838047Y-117868061D01*
X165711072Y-117676948D01*
X165549395Y-117514138D01*
X165359173Y-117385831D01*
X165147652Y-117296916D01*
X164922890Y-117250779D01*
X164693447Y-117249178D01*
X164468062Y-117292172D01*
X164255321Y-117378125D01*
X164063326Y-117503763D01*
X163899391Y-117664300D01*
X163769760Y-117853621D01*
X163679371Y-118064516D01*
X163631666Y-118288950D01*
X163628462Y-118518377D01*
X155592396Y-118518377D01*
X155514029Y-118400428D01*
X155400717Y-118286322D01*
X155267399Y-118196398D01*
X155119154Y-118134081D01*
X155023445Y-118114435D01*
X153653345Y-116714345D01*
X161436366Y-116714345D01*
X161502750Y-116924748D01*
X161719967Y-117040701D01*
X161955632Y-117112049D01*
X162200689Y-117136049D01*
X162445718Y-117111780D01*
X162681305Y-117040174D01*
X162897250Y-116924748D01*
X162963634Y-116714345D01*
X164036366Y-116714345D01*
X164102750Y-116924748D01*
X164319967Y-117040701D01*
X164555632Y-117112049D01*
X164800689Y-117136049D01*
X165045718Y-117111780D01*
X165281305Y-117040174D01*
X165497250Y-116924748D01*
X165563634Y-116714345D01*
X164800000Y-115950711D01*
X164036366Y-116714345D01*
X162963634Y-116714345D01*
X162200000Y-115950711D01*
X161436366Y-116714345D01*
X153653345Y-116714345D01*
X153322210Y-116375963D01*
X153460677Y-115880689D01*
X160943951Y-115880689D01*
X160968220Y-116125718D01*
X161039826Y-116361305D01*
X161155252Y-116577250D01*
X161365655Y-116643634D01*
X162129289Y-115880000D01*
X162270711Y-115880000D01*
X163034345Y-116643634D01*
X163244748Y-116577250D01*
X163360701Y-116360033D01*
X163432049Y-116124368D01*
X163455914Y-115880689D01*
X163543951Y-115880689D01*
X163568220Y-116125718D01*
X163639826Y-116361305D01*
X163755252Y-116577250D01*
X163965655Y-116643634D01*
X164729289Y-115880000D01*
X164870711Y-115880000D01*
X165634345Y-116643634D01*
X165844748Y-116577250D01*
X165960701Y-116360033D01*
X166032049Y-116124368D01*
X166056049Y-115879311D01*
X166031780Y-115634282D01*
X165960174Y-115398695D01*
X165844748Y-115182750D01*
X165634345Y-115116366D01*
X164870711Y-115880000D01*
X164729289Y-115880000D01*
X163965655Y-115116366D01*
X163755252Y-115182750D01*
X163639299Y-115399967D01*
X163567951Y-115635632D01*
X163543951Y-115880689D01*
X163455914Y-115880689D01*
X163456049Y-115879311D01*
X163431780Y-115634282D01*
X163360174Y-115398695D01*
X163244748Y-115182750D01*
X163034345Y-115116366D01*
X162270711Y-115880000D01*
X162129289Y-115880000D01*
X161365655Y-115116366D01*
X161155252Y-115182750D01*
X161039299Y-115399967D01*
X160967951Y-115635632D01*
X160943951Y-115880689D01*
X153460677Y-115880689D01*
X154203315Y-113224401D01*
X154338680Y-113283540D01*
X154495739Y-113318072D01*
X154656514Y-113321440D01*
X154814881Y-113293515D01*
X154964809Y-113235362D01*
X155100585Y-113149196D01*
X155217040Y-113038298D01*
X155309736Y-112906892D01*
X155375143Y-112759985D01*
X155410771Y-112603171D01*
X155411417Y-112556927D01*
X157149772Y-111323211D01*
X156805024Y-111941728D01*
X156717860Y-111958356D01*
X156568759Y-112018597D01*
X156434199Y-112106650D01*
X156319304Y-112219164D01*
X156228451Y-112351850D01*
X156165101Y-112499657D01*
X156131667Y-112656953D01*
X156129422Y-112817748D01*
X156158451Y-112975916D01*
X156217649Y-113125434D01*
X156304762Y-113260606D01*
X156416470Y-113376283D01*
X156484367Y-113423473D01*
X156472201Y-113451857D01*
X156438767Y-113609153D01*
X156436522Y-113769948D01*
X156465551Y-113928116D01*
X156524749Y-114077634D01*
X156605223Y-114202505D01*
X156535351Y-114304550D01*
X156472001Y-114452357D01*
X156438567Y-114609653D01*
X156436322Y-114770448D01*
X156465351Y-114928616D01*
X156524549Y-115078134D01*
X156611662Y-115213306D01*
X156723370Y-115328983D01*
X156855419Y-115420760D01*
X157002780Y-115485140D01*
X157159839Y-115519672D01*
X157320614Y-115523040D01*
X157478981Y-115495115D01*
X157628909Y-115436962D01*
X157764685Y-115350796D01*
X157881140Y-115239898D01*
X157973836Y-115108492D01*
X158001812Y-115045655D01*
X161436366Y-115045655D01*
X162200000Y-115809289D01*
X162963634Y-115045655D01*
X164036366Y-115045655D01*
X164800000Y-115809289D01*
X165563634Y-115045655D01*
X165497250Y-114835252D01*
X165280033Y-114719299D01*
X165044368Y-114647951D01*
X164799311Y-114623951D01*
X164554282Y-114648220D01*
X164318695Y-114719826D01*
X164102750Y-114835252D01*
X164036366Y-115045655D01*
X162963634Y-115045655D01*
X162897250Y-114835252D01*
X162680033Y-114719299D01*
X162444368Y-114647951D01*
X162199311Y-114623951D01*
X161954282Y-114648220D01*
X161718695Y-114719826D01*
X161502750Y-114835252D01*
X161436366Y-115045655D01*
X158001812Y-115045655D01*
X158039243Y-114961585D01*
X158074871Y-114804771D01*
X158077436Y-114621095D01*
X158075313Y-114610373D01*
X158128873Y-114555785D01*
X158128876Y-114555781D01*
X158128914Y-114555743D01*
X158170114Y-114513743D01*
X158195143Y-114482669D01*
X158221436Y-114452689D01*
X158225626Y-114446761D01*
X158292827Y-114350261D01*
X158312489Y-114315154D01*
X158333550Y-114280894D01*
X158336685Y-114274345D01*
X158361711Y-114221117D01*
X158511178Y-113903853D01*
X158613919Y-113975260D01*
X158761280Y-114039640D01*
X158918339Y-114074172D01*
X159079114Y-114077540D01*
X159237481Y-114049615D01*
X159387409Y-113991462D01*
X159523185Y-113905296D01*
X159639640Y-113794398D01*
X159732336Y-113662992D01*
X159797743Y-113516085D01*
X159815398Y-113438377D01*
X161028462Y-113438377D01*
X161069882Y-113664056D01*
X161154348Y-113877392D01*
X161278642Y-114070259D01*
X161438031Y-114235311D01*
X161626442Y-114366260D01*
X161836701Y-114458120D01*
X162060797Y-114507391D01*
X162290196Y-114512196D01*
X162516159Y-114472353D01*
X162730079Y-114389378D01*
X162923809Y-114266434D01*
X163089970Y-114108201D01*
X163222231Y-113920708D01*
X163315557Y-113711096D01*
X163366391Y-113487349D01*
X163367074Y-113438377D01*
X163628462Y-113438377D01*
X163669882Y-113664056D01*
X163754348Y-113877392D01*
X163878642Y-114070259D01*
X164038031Y-114235311D01*
X164226442Y-114366260D01*
X164436701Y-114458120D01*
X164660797Y-114507391D01*
X164890196Y-114512196D01*
X165116159Y-114472353D01*
X165330079Y-114389378D01*
X165523809Y-114266434D01*
X165689970Y-114108201D01*
X165822231Y-113920708D01*
X165915557Y-113711096D01*
X165966391Y-113487349D01*
X165970050Y-113225276D01*
X165925483Y-113000197D01*
X165838047Y-112788061D01*
X165711072Y-112596948D01*
X165549395Y-112434138D01*
X165359173Y-112305831D01*
X165147652Y-112216916D01*
X164922890Y-112170779D01*
X164693447Y-112169178D01*
X164468062Y-112212172D01*
X164255321Y-112298125D01*
X164063326Y-112423763D01*
X163899391Y-112584300D01*
X163769760Y-112773621D01*
X163679371Y-112984516D01*
X163631666Y-113208950D01*
X163628462Y-113438377D01*
X163367074Y-113438377D01*
X163370050Y-113225276D01*
X163325483Y-113000197D01*
X163238047Y-112788061D01*
X163111072Y-112596948D01*
X162949395Y-112434138D01*
X162759173Y-112305831D01*
X162547652Y-112216916D01*
X162322890Y-112170779D01*
X162093447Y-112169178D01*
X161868062Y-112212172D01*
X161655321Y-112298125D01*
X161463326Y-112423763D01*
X161299391Y-112584300D01*
X161169760Y-112773621D01*
X161079371Y-112984516D01*
X161031666Y-113208950D01*
X161028462Y-113438377D01*
X159815398Y-113438377D01*
X159833371Y-113359271D01*
X159835936Y-113175595D01*
X159804701Y-113017847D01*
X159774931Y-112945619D01*
X161027968Y-110628668D01*
X161027968Y-111550000D01*
X161033302Y-111616883D01*
X161068432Y-111730325D01*
X161133776Y-111829488D01*
X161224159Y-111906521D01*
X161332425Y-111955323D01*
X161450000Y-111972032D01*
X162950000Y-111972032D01*
X163016883Y-111966698D01*
X163130325Y-111931568D01*
X163229488Y-111866224D01*
X163306521Y-111775841D01*
X163355323Y-111667575D01*
X163372032Y-111550000D01*
X163372032Y-110050000D01*
X163627968Y-110050000D01*
X163627968Y-111550000D01*
X163633302Y-111616883D01*
X163668432Y-111730325D01*
X163733776Y-111829488D01*
X163824159Y-111906521D01*
X163932425Y-111955323D01*
X164050000Y-111972032D01*
X165550000Y-111972032D01*
X165616883Y-111966698D01*
X165730325Y-111931568D01*
X165829488Y-111866224D01*
X165906521Y-111775841D01*
X165955323Y-111667575D01*
X165972032Y-111550000D01*
X165972032Y-110050000D01*
X165966698Y-109983117D01*
X165931568Y-109869675D01*
X165866224Y-109770512D01*
X165775841Y-109693479D01*
X165667575Y-109644677D01*
X165550000Y-109627968D01*
X164050000Y-109627968D01*
X163983117Y-109633302D01*
X163869675Y-109668432D01*
X163770512Y-109733776D01*
X163693479Y-109824159D01*
X163644677Y-109932425D01*
X163627968Y-110050000D01*
X163372032Y-110050000D01*
X163366698Y-109983117D01*
X163331568Y-109869675D01*
X163266224Y-109770512D01*
X163175841Y-109693479D01*
X163067575Y-109644677D01*
X162950000Y-109627968D01*
X161569159Y-109627968D01*
X162585331Y-107748998D01*
X162587151Y-107758916D01*
X162646349Y-107908434D01*
X162733462Y-108043606D01*
X162845170Y-108159283D01*
X162977219Y-108251060D01*
X163124580Y-108315440D01*
X163281639Y-108349972D01*
X163442414Y-108353340D01*
X163600781Y-108325415D01*
X163750709Y-108267262D01*
X163886485Y-108181096D01*
X163895591Y-108172424D01*
X168258935Y-109094599D01*
X168258949Y-109094634D01*
X168346062Y-109229806D01*
X168400000Y-109285660D01*
X168400000Y-119495210D01*
X158086158Y-126635562D01*
X158044854Y-126673787D01*
X158012734Y-126729775D01*
X156861400Y-129800000D01*
X143800000Y-129800000D01*
X143800000Y-129000000D01*
X143792082Y-128944281D01*
X143763101Y-128884251D01*
X139363101Y-122684251D01*
X139301404Y-122627613D01*
X135996095Y-120683314D01*
X135815689Y-115451534D01*
X146202161Y-123646062D01*
X146260549Y-123793534D01*
X146347662Y-123928706D01*
X146459370Y-124044383D01*
X146591419Y-124136160D01*
X146738780Y-124200540D01*
X146895839Y-124235072D01*
X147056614Y-124238440D01*
X147214981Y-124210515D01*
X147233693Y-124203257D01*
X149728567Y-125034980D01*
X149745662Y-125061506D01*
X149857370Y-125177183D01*
X149989419Y-125268960D01*
X150136780Y-125333340D01*
X150293839Y-125367872D01*
X150454614Y-125371240D01*
X150612981Y-125343315D01*
X150762909Y-125285162D01*
X150898685Y-125198996D01*
X151015140Y-125088098D01*
X151107836Y-124956692D01*
X151173243Y-124809785D01*
X151208871Y-124652971D01*
X151211436Y-124469295D01*
X151180201Y-124311547D01*
X151118921Y-124162870D01*
X151029929Y-124028928D01*
X150916617Y-123914822D01*
X150783299Y-123824898D01*
X150635054Y-123762581D01*
X150477528Y-123730246D01*
X150316722Y-123729123D01*
X150158760Y-123759256D01*
X150149758Y-123762893D01*
X147655305Y-122931311D01*
X147631929Y-122896128D01*
X147518617Y-122782022D01*
X147385299Y-122692098D01*
X147237054Y-122629781D01*
X147079528Y-122597446D01*
X147036064Y-122597142D01*
X132844696Y-111400698D01*
X132844639Y-111400662D01*
X132843762Y-111399962D01*
X132832312Y-111390961D01*
X132811613Y-111367841D01*
X132802811Y-111353744D01*
X131340620Y-109005641D01*
X133816609Y-108799309D01*
X133871478Y-108786791D01*
X133920687Y-108759483D01*
X133960339Y-108719546D01*
X133994029Y-108648507D01*
X134358865Y-107189162D01*
X134443481Y-107183118D01*
X138613990Y-110745014D01*
G36*
X152599419Y-106081360D02*
X152746780Y-106145740D01*
X152903839Y-106180272D01*
X152972784Y-106181716D01*
X155500842Y-108101885D01*
X153968502Y-110834756D01*
X153964717Y-110841496D01*
X153956923Y-110853176D01*
X153952530Y-110858730D01*
X153952522Y-110858742D01*
X153952402Y-110858892D01*
X153400602Y-111556892D01*
X153400592Y-111556908D01*
X153400409Y-111557136D01*
X153347809Y-111623736D01*
X153314652Y-111675381D01*
X153280883Y-111726611D01*
X153277210Y-111733700D01*
X153277164Y-111733771D01*
X153277136Y-111733842D01*
X153276579Y-111734917D01*
X153200179Y-111884917D01*
X153177810Y-111942023D01*
X153154745Y-111998863D01*
X153152515Y-112006598D01*
X153152486Y-112006671D01*
X153152474Y-112006740D01*
X153152153Y-112007852D01*
X153129153Y-112089751D01*
X153129144Y-112089800D01*
X153128943Y-112090501D01*
X152031651Y-116015323D01*
X151621858Y-116120554D01*
X151621853Y-116120556D01*
X151549880Y-116139023D01*
X151499050Y-116157514D01*
X151447628Y-116174272D01*
X151439085Y-116178085D01*
X151302285Y-116240285D01*
X151255460Y-116267374D01*
X151207734Y-116292871D01*
X151199988Y-116298118D01*
X151137888Y-116340818D01*
X151137860Y-116340841D01*
X151137329Y-116341202D01*
X150509972Y-116773509D01*
X150426122Y-116772923D01*
X150268160Y-116803056D01*
X150119059Y-116863297D01*
X149984499Y-116951350D01*
X149958639Y-116976674D01*
X148074775Y-117174203D01*
X148077236Y-116997995D01*
X148046001Y-116840247D01*
X148034838Y-116813162D01*
X148868352Y-115474209D01*
X148918985Y-115392917D01*
X148926358Y-115378010D01*
X148935625Y-115364198D01*
X148948804Y-115332628D01*
X148963978Y-115301949D01*
X148968318Y-115285884D01*
X148974721Y-115270545D01*
X148976803Y-115263590D01*
X149030903Y-115078090D01*
X149033983Y-115061728D01*
X149039182Y-115045912D01*
X149043347Y-115011973D01*
X149049675Y-114978355D01*
X149049518Y-114961700D01*
X149051545Y-114945181D01*
X149051672Y-114937922D01*
X149052672Y-114842022D01*
X149052672Y-114842021D01*
X149111914Y-109246793D01*
X149203239Y-109266872D01*
X149364014Y-109270240D01*
X149522381Y-109242315D01*
X149672309Y-109184162D01*
X149803532Y-109100886D01*
X149899319Y-109167460D01*
X150046680Y-109231840D01*
X150203739Y-109266372D01*
X150364514Y-109269740D01*
X150522881Y-109241815D01*
X150672809Y-109183662D01*
X150808585Y-109097496D01*
X150925040Y-108986598D01*
X151017736Y-108855192D01*
X151083143Y-108708285D01*
X151118771Y-108551471D01*
X151121336Y-108367795D01*
X151090101Y-108210047D01*
X151028821Y-108061370D01*
X150939829Y-107927428D01*
X150826517Y-107813322D01*
X150693199Y-107723398D01*
X150629962Y-107696816D01*
X150242772Y-106321631D01*
X150262314Y-106322040D01*
X150420681Y-106294115D01*
X150570609Y-106235962D01*
X150706385Y-106149796D01*
X150710299Y-106146069D01*
X152561012Y-106054666D01*
X152599419Y-106081360D01*
X152599419Y-106081360D01*
G37*
X152599419Y-106081360D02*
X152746780Y-106145740D01*
X152903839Y-106180272D01*
X152972784Y-106181716D01*
X155500842Y-108101885D01*
X153968502Y-110834756D01*
X153964717Y-110841496D01*
X153956923Y-110853176D01*
X153952530Y-110858730D01*
X153952522Y-110858742D01*
X153952402Y-110858892D01*
X153400602Y-111556892D01*
X153400592Y-111556908D01*
X153400409Y-111557136D01*
X153347809Y-111623736D01*
X153314652Y-111675381D01*
X153280883Y-111726611D01*
X153277210Y-111733700D01*
X153277164Y-111733771D01*
X153277136Y-111733842D01*
X153276579Y-111734917D01*
X153200179Y-111884917D01*
X153177810Y-111942023D01*
X153154745Y-111998863D01*
X153152515Y-112006598D01*
X153152486Y-112006671D01*
X153152474Y-112006740D01*
X153152153Y-112007852D01*
X153129153Y-112089751D01*
X153129144Y-112089800D01*
X153128943Y-112090501D01*
X152031651Y-116015323D01*
X151621858Y-116120554D01*
X151621853Y-116120556D01*
X151549880Y-116139023D01*
X151499050Y-116157514D01*
X151447628Y-116174272D01*
X151439085Y-116178085D01*
X151302285Y-116240285D01*
X151255460Y-116267374D01*
X151207734Y-116292871D01*
X151199988Y-116298118D01*
X151137888Y-116340818D01*
X151137860Y-116340841D01*
X151137329Y-116341202D01*
X150509972Y-116773509D01*
X150426122Y-116772923D01*
X150268160Y-116803056D01*
X150119059Y-116863297D01*
X149984499Y-116951350D01*
X149958639Y-116976674D01*
X148074775Y-117174203D01*
X148077236Y-116997995D01*
X148046001Y-116840247D01*
X148034838Y-116813162D01*
X148868352Y-115474209D01*
X148918985Y-115392917D01*
X148926358Y-115378010D01*
X148935625Y-115364198D01*
X148948804Y-115332628D01*
X148963978Y-115301949D01*
X148968318Y-115285884D01*
X148974721Y-115270545D01*
X148976803Y-115263590D01*
X149030903Y-115078090D01*
X149033983Y-115061728D01*
X149039182Y-115045912D01*
X149043347Y-115011973D01*
X149049675Y-114978355D01*
X149049518Y-114961700D01*
X149051545Y-114945181D01*
X149051672Y-114937922D01*
X149052672Y-114842022D01*
X149052672Y-114842021D01*
X149111914Y-109246793D01*
X149203239Y-109266872D01*
X149364014Y-109270240D01*
X149522381Y-109242315D01*
X149672309Y-109184162D01*
X149803532Y-109100886D01*
X149899319Y-109167460D01*
X150046680Y-109231840D01*
X150203739Y-109266372D01*
X150364514Y-109269740D01*
X150522881Y-109241815D01*
X150672809Y-109183662D01*
X150808585Y-109097496D01*
X150925040Y-108986598D01*
X151017736Y-108855192D01*
X151083143Y-108708285D01*
X151118771Y-108551471D01*
X151121336Y-108367795D01*
X151090101Y-108210047D01*
X151028821Y-108061370D01*
X150939829Y-107927428D01*
X150826517Y-107813322D01*
X150693199Y-107723398D01*
X150629962Y-107696816D01*
X150242772Y-106321631D01*
X150262314Y-106322040D01*
X150420681Y-106294115D01*
X150570609Y-106235962D01*
X150706385Y-106149796D01*
X150710299Y-106146069D01*
X152561012Y-106054666D01*
X152599419Y-106081360D01*
G36*
X148079644Y-108415974D02*
X148080336Y-108445776D01*
X148021202Y-114030863D01*
X147918328Y-114009746D01*
X147757522Y-114008623D01*
X147599560Y-114038756D01*
X147450459Y-114098997D01*
X147315899Y-114187050D01*
X147220551Y-114280422D01*
X146339472Y-114239765D01*
X146365371Y-114125771D01*
X146367936Y-113942095D01*
X146336701Y-113784347D01*
X146291205Y-113673966D01*
X146540744Y-113152593D01*
X146540872Y-113152241D01*
X146541068Y-113151916D01*
X146544147Y-113145341D01*
X146554447Y-113122941D01*
X146554942Y-113121510D01*
X146555697Y-113120201D01*
X146558646Y-113113566D01*
X146925146Y-112273167D01*
X146925146Y-112273166D01*
X146945045Y-112227599D01*
X146951261Y-112208456D01*
X146959687Y-112190189D01*
X146962023Y-112183314D01*
X146993523Y-112088415D01*
X146997941Y-112068909D01*
X147004634Y-112050075D01*
X147006337Y-112043018D01*
X147017937Y-111993418D01*
X147017941Y-111993387D01*
X147018043Y-111992963D01*
X147375354Y-110458946D01*
X147409454Y-110313046D01*
X147415825Y-110265013D01*
X147422618Y-110217086D01*
X147422781Y-110212568D01*
X147422798Y-110212441D01*
X147422790Y-110212318D01*
X147422880Y-110209831D01*
X147431680Y-109907531D01*
X147428355Y-109859158D01*
X147425464Y-109810842D01*
X147424729Y-109806408D01*
X147424720Y-109806284D01*
X147424689Y-109806169D01*
X147424276Y-109803680D01*
X147398476Y-109654680D01*
X147398473Y-109654669D01*
X147398458Y-109654579D01*
X146783058Y-106104679D01*
X146780472Y-106089733D01*
X146780318Y-106059428D01*
X146782720Y-106044914D01*
X146782722Y-106044885D01*
X146782790Y-106044489D01*
X147644923Y-100808853D01*
X148079644Y-108415974D01*
X148079644Y-108415974D01*
G37*
X148079644Y-108415974D02*
X148080336Y-108445776D01*
X148021202Y-114030863D01*
X147918328Y-114009746D01*
X147757522Y-114008623D01*
X147599560Y-114038756D01*
X147450459Y-114098997D01*
X147315899Y-114187050D01*
X147220551Y-114280422D01*
X146339472Y-114239765D01*
X146365371Y-114125771D01*
X146367936Y-113942095D01*
X146336701Y-113784347D01*
X146291205Y-113673966D01*
X146540744Y-113152593D01*
X146540872Y-113152241D01*
X146541068Y-113151916D01*
X146544147Y-113145341D01*
X146554447Y-113122941D01*
X146554942Y-113121510D01*
X146555697Y-113120201D01*
X146558646Y-113113566D01*
X146925146Y-112273167D01*
X146925146Y-112273166D01*
X146945045Y-112227599D01*
X146951261Y-112208456D01*
X146959687Y-112190189D01*
X146962023Y-112183314D01*
X146993523Y-112088415D01*
X146997941Y-112068909D01*
X147004634Y-112050075D01*
X147006337Y-112043018D01*
X147017937Y-111993418D01*
X147017941Y-111993387D01*
X147018043Y-111992963D01*
X147375354Y-110458946D01*
X147409454Y-110313046D01*
X147415825Y-110265013D01*
X147422618Y-110217086D01*
X147422781Y-110212568D01*
X147422798Y-110212441D01*
X147422790Y-110212318D01*
X147422880Y-110209831D01*
X147431680Y-109907531D01*
X147428355Y-109859158D01*
X147425464Y-109810842D01*
X147424729Y-109806408D01*
X147424720Y-109806284D01*
X147424689Y-109806169D01*
X147424276Y-109803680D01*
X147398476Y-109654680D01*
X147398473Y-109654669D01*
X147398458Y-109654579D01*
X146783058Y-106104679D01*
X146780472Y-106089733D01*
X146780318Y-106059428D01*
X146782720Y-106044914D01*
X146782722Y-106044885D01*
X146782790Y-106044489D01*
X147644923Y-100808853D01*
X148079644Y-108415974D01*
G36*
X144719331Y-109552302D02*
X144684651Y-109602950D01*
X144621301Y-109750757D01*
X144587867Y-109908053D01*
X144585622Y-110068848D01*
X144614651Y-110227016D01*
X144673849Y-110376534D01*
X144760962Y-110511706D01*
X144872670Y-110627383D01*
X145004719Y-110719160D01*
X145152080Y-110783540D01*
X145240946Y-110803079D01*
X145228478Y-110830594D01*
X145206660Y-110834756D01*
X145057559Y-110894997D01*
X144922999Y-110983050D01*
X144808104Y-111095564D01*
X144717251Y-111228250D01*
X144653901Y-111376057D01*
X144620467Y-111533353D01*
X144618222Y-111694148D01*
X144647251Y-111852316D01*
X144706449Y-112001834D01*
X144787311Y-112127307D01*
X144717851Y-112228750D01*
X144654501Y-112376557D01*
X144621067Y-112533853D01*
X144618822Y-112694648D01*
X144647851Y-112852816D01*
X144707049Y-113002334D01*
X144794162Y-113137506D01*
X144905870Y-113253183D01*
X145037919Y-113344960D01*
X145066560Y-113357473D01*
X145031599Y-113380350D01*
X144971171Y-113439525D01*
X144127104Y-112087433D01*
X144107798Y-112056483D01*
X144093336Y-112037674D01*
X144080918Y-112017471D01*
X144076491Y-112011716D01*
X144031291Y-111953816D01*
X144014903Y-111936593D01*
X144000399Y-111917767D01*
X143995392Y-111912510D01*
X143969791Y-111886010D01*
X143969790Y-111886009D01*
X143470811Y-111369101D01*
X143552285Y-111317396D01*
X143668740Y-111206498D01*
X143761436Y-111075092D01*
X143826843Y-110928185D01*
X143862471Y-110771371D01*
X143865036Y-110587695D01*
X143833801Y-110429947D01*
X143772521Y-110281270D01*
X143683529Y-110147328D01*
X143570217Y-110033222D01*
X143463123Y-109960986D01*
X142482109Y-103531745D01*
X142738363Y-103302465D01*
X144719331Y-109552302D01*
X144719331Y-109552302D01*
G37*
X144719331Y-109552302D02*
X144684651Y-109602950D01*
X144621301Y-109750757D01*
X144587867Y-109908053D01*
X144585622Y-110068848D01*
X144614651Y-110227016D01*
X144673849Y-110376534D01*
X144760962Y-110511706D01*
X144872670Y-110627383D01*
X145004719Y-110719160D01*
X145152080Y-110783540D01*
X145240946Y-110803079D01*
X145228478Y-110830594D01*
X145206660Y-110834756D01*
X145057559Y-110894997D01*
X144922999Y-110983050D01*
X144808104Y-111095564D01*
X144717251Y-111228250D01*
X144653901Y-111376057D01*
X144620467Y-111533353D01*
X144618222Y-111694148D01*
X144647251Y-111852316D01*
X144706449Y-112001834D01*
X144787311Y-112127307D01*
X144717851Y-112228750D01*
X144654501Y-112376557D01*
X144621067Y-112533853D01*
X144618822Y-112694648D01*
X144647851Y-112852816D01*
X144707049Y-113002334D01*
X144794162Y-113137506D01*
X144905870Y-113253183D01*
X145037919Y-113344960D01*
X145066560Y-113357473D01*
X145031599Y-113380350D01*
X144971171Y-113439525D01*
X144127104Y-112087433D01*
X144107798Y-112056483D01*
X144093336Y-112037674D01*
X144080918Y-112017471D01*
X144076491Y-112011716D01*
X144031291Y-111953816D01*
X144014903Y-111936593D01*
X144000399Y-111917767D01*
X143995392Y-111912510D01*
X143969791Y-111886010D01*
X143969790Y-111886009D01*
X143470811Y-111369101D01*
X143552285Y-111317396D01*
X143668740Y-111206498D01*
X143761436Y-111075092D01*
X143826843Y-110928185D01*
X143862471Y-110771371D01*
X143865036Y-110587695D01*
X143833801Y-110429947D01*
X143772521Y-110281270D01*
X143683529Y-110147328D01*
X143570217Y-110033222D01*
X143463123Y-109960986D01*
X142482109Y-103531745D01*
X142738363Y-103302465D01*
X144719331Y-109552302D01*
G36*
X141361117Y-108349188D02*
X141366999Y-108360900D01*
X141374975Y-108384571D01*
X141377270Y-108396838D01*
X141377275Y-108396854D01*
X141377310Y-108397050D01*
X141845363Y-110892800D01*
X141845366Y-110892815D01*
X141864166Y-110993315D01*
X141870098Y-111013740D01*
X141873672Y-111034701D01*
X141884216Y-111062347D01*
X141892472Y-111090774D01*
X141902260Y-111109661D01*
X141909836Y-111129525D01*
X141913118Y-111136001D01*
X142007317Y-111318701D01*
X142018819Y-111336497D01*
X142028219Y-111355484D01*
X142046300Y-111379014D01*
X142062406Y-111403934D01*
X142077143Y-111419155D01*
X142090054Y-111435957D01*
X142095055Y-111441220D01*
X142166555Y-111515420D01*
X142166576Y-111515438D01*
X142166873Y-111515750D01*
X142359662Y-111715466D01*
X139316956Y-109973522D01*
X139316937Y-109973514D01*
X139316592Y-109973313D01*
X139309237Y-109969111D01*
X139295881Y-109959704D01*
X139289410Y-109954186D01*
X135921264Y-107077562D01*
X137014249Y-106999492D01*
X137052623Y-106992953D01*
X139252623Y-106392953D01*
X139304295Y-106370653D01*
X139333359Y-106349048D01*
X140038798Y-105717866D01*
X141361117Y-108349188D01*
X141361117Y-108349188D01*
G37*
X141361117Y-108349188D02*
X141366999Y-108360900D01*
X141374975Y-108384571D01*
X141377270Y-108396838D01*
X141377275Y-108396854D01*
X141377310Y-108397050D01*
X141845363Y-110892800D01*
X141845366Y-110892815D01*
X141864166Y-110993315D01*
X141870098Y-111013740D01*
X141873672Y-111034701D01*
X141884216Y-111062347D01*
X141892472Y-111090774D01*
X141902260Y-111109661D01*
X141909836Y-111129525D01*
X141913118Y-111136001D01*
X142007317Y-111318701D01*
X142018819Y-111336497D01*
X142028219Y-111355484D01*
X142046300Y-111379014D01*
X142062406Y-111403934D01*
X142077143Y-111419155D01*
X142090054Y-111435957D01*
X142095055Y-111441220D01*
X142166555Y-111515420D01*
X142166576Y-111515438D01*
X142166873Y-111515750D01*
X142359662Y-111715466D01*
X139316956Y-109973522D01*
X139316937Y-109973514D01*
X139316592Y-109973313D01*
X139309237Y-109969111D01*
X139295881Y-109959704D01*
X139289410Y-109954186D01*
X135921264Y-107077562D01*
X137014249Y-106999492D01*
X137052623Y-106992953D01*
X139252623Y-106392953D01*
X139304295Y-106370653D01*
X139333359Y-106349048D01*
X140038798Y-105717866D01*
X141361117Y-108349188D01*
G36*
X158233590Y-103510940D02*
X158271085Y-103552909D01*
X158318789Y-103582770D01*
X158384362Y-103599388D01*
X159953467Y-103722455D01*
X157070886Y-110073794D01*
X157070878Y-110073817D01*
X157070760Y-110074073D01*
X157061002Y-110095608D01*
X157030671Y-110132437D01*
X157010948Y-110146439D01*
X157010944Y-110146442D01*
X155150295Y-111466951D01*
X156721778Y-108664270D01*
X156741909Y-108656462D01*
X156877685Y-108570296D01*
X156994140Y-108459398D01*
X157086836Y-108327992D01*
X157152243Y-108181085D01*
X157187871Y-108024271D01*
X157190436Y-107840595D01*
X157159201Y-107682847D01*
X157097921Y-107534170D01*
X157008929Y-107400228D01*
X156895617Y-107286122D01*
X156762299Y-107196198D01*
X156614054Y-107133881D01*
X156456528Y-107101546D01*
X156398698Y-107101142D01*
X155678408Y-106554051D01*
X155695985Y-106542896D01*
X155812440Y-106431998D01*
X155905136Y-106300592D01*
X155970543Y-106153685D01*
X156006171Y-105996871D01*
X156008736Y-105813195D01*
X155998948Y-105763764D01*
X157225651Y-104380784D01*
X157236818Y-104368245D01*
X157242285Y-104360744D01*
X157248880Y-104354207D01*
X157253473Y-104348585D01*
X157274174Y-104322885D01*
X157279959Y-104314061D01*
X157287032Y-104306242D01*
X157291313Y-104300378D01*
X157300493Y-104287618D01*
X158058038Y-103247612D01*
X158233590Y-103510940D01*
X158233590Y-103510940D01*
G37*
X158233590Y-103510940D02*
X158271085Y-103552909D01*
X158318789Y-103582770D01*
X158384362Y-103599388D01*
X159953467Y-103722455D01*
X157070886Y-110073794D01*
X157070878Y-110073817D01*
X157070760Y-110074073D01*
X157061002Y-110095608D01*
X157030671Y-110132437D01*
X157010948Y-110146439D01*
X157010944Y-110146442D01*
X155150295Y-111466951D01*
X156721778Y-108664270D01*
X156741909Y-108656462D01*
X156877685Y-108570296D01*
X156994140Y-108459398D01*
X157086836Y-108327992D01*
X157152243Y-108181085D01*
X157187871Y-108024271D01*
X157190436Y-107840595D01*
X157159201Y-107682847D01*
X157097921Y-107534170D01*
X157008929Y-107400228D01*
X156895617Y-107286122D01*
X156762299Y-107196198D01*
X156614054Y-107133881D01*
X156456528Y-107101546D01*
X156398698Y-107101142D01*
X155678408Y-106554051D01*
X155695985Y-106542896D01*
X155812440Y-106431998D01*
X155905136Y-106300592D01*
X155970543Y-106153685D01*
X156006171Y-105996871D01*
X156008736Y-105813195D01*
X155998948Y-105763764D01*
X157225651Y-104380784D01*
X157236818Y-104368245D01*
X157242285Y-104360744D01*
X157248880Y-104354207D01*
X157253473Y-104348585D01*
X157274174Y-104322885D01*
X157279959Y-104314061D01*
X157287032Y-104306242D01*
X157291313Y-104300378D01*
X157300493Y-104287618D01*
X158058038Y-103247612D01*
X158233590Y-103510940D01*
G36*
X156257480Y-100546775D02*
X157443184Y-102325330D01*
X156458884Y-103676640D01*
X156458822Y-103676746D01*
X156457087Y-103679122D01*
X156455352Y-103681534D01*
X156451617Y-103686170D01*
X156448782Y-103689354D01*
X156448744Y-103689406D01*
X156448082Y-103690142D01*
X155220806Y-105073769D01*
X155114022Y-105073023D01*
X154956060Y-105103156D01*
X154806959Y-105163397D01*
X154672399Y-105251450D01*
X154557504Y-105363964D01*
X154466651Y-105496650D01*
X154422347Y-105600019D01*
X153787759Y-105118022D01*
X153728921Y-104975270D01*
X153639929Y-104841328D01*
X153526617Y-104727222D01*
X153393299Y-104637298D01*
X153245054Y-104574981D01*
X153087528Y-104542646D01*
X152926722Y-104541523D01*
X152768760Y-104571656D01*
X152619659Y-104631897D01*
X152490334Y-104716524D01*
X150638838Y-104807966D01*
X150590999Y-104775698D01*
X150442754Y-104713381D01*
X150285228Y-104681046D01*
X150148332Y-104680090D01*
X150932799Y-99806449D01*
X151027585Y-99746296D01*
X151144040Y-99635398D01*
X151169010Y-99600000D01*
X154742640Y-99600000D01*
X156257480Y-100546775D01*
X156257480Y-100546775D01*
G37*
X156257480Y-100546775D02*
X157443184Y-102325330D01*
X156458884Y-103676640D01*
X156458822Y-103676746D01*
X156457087Y-103679122D01*
X156455352Y-103681534D01*
X156451617Y-103686170D01*
X156448782Y-103689354D01*
X156448744Y-103689406D01*
X156448082Y-103690142D01*
X155220806Y-105073769D01*
X155114022Y-105073023D01*
X154956060Y-105103156D01*
X154806959Y-105163397D01*
X154672399Y-105251450D01*
X154557504Y-105363964D01*
X154466651Y-105496650D01*
X154422347Y-105600019D01*
X153787759Y-105118022D01*
X153728921Y-104975270D01*
X153639929Y-104841328D01*
X153526617Y-104727222D01*
X153393299Y-104637298D01*
X153245054Y-104574981D01*
X153087528Y-104542646D01*
X152926722Y-104541523D01*
X152768760Y-104571656D01*
X152619659Y-104631897D01*
X152490334Y-104716524D01*
X150638838Y-104807966D01*
X150590999Y-104775698D01*
X150442754Y-104713381D01*
X150285228Y-104681046D01*
X150148332Y-104680090D01*
X150932799Y-99806449D01*
X151027585Y-99746296D01*
X151144040Y-99635398D01*
X151169010Y-99600000D01*
X154742640Y-99600000D01*
X156257480Y-100546775D01*
M02*
