M48
;DRILL file {KiCad (2015-08-16 BZR 6097, Git b384c94)-product} date 22.08.2015 13:39:44
;FORMAT={-:-/ absolute / metric / decimal}
FMAT,2
METRIC,TZ
T1C0.300
T2C0.900
T3C3.500
%
G90
G05
M71
T1
X123.175Y-113.013
X123.5Y-107.
X124.5Y-111.
X125.205Y-113.076
X125.5Y-101.5
X126.5Y-118.
X126.8Y-93.47
X127.Y-108.
X127.Y-112.
X127.Y-126.5
X127.5Y-90.
X128.Y-121.
X128.39Y-93.475
X128.5Y-101.5
X128.874Y-112.479
X130.Y-87.5
X130.Y-114.5
X130.101Y-91.619
X130.214Y-102.887
X130.227Y-108.486
X130.308Y-95.828
X130.5Y-119.
X130.5Y-123.5
X131.5Y-89.5
X131.5Y-101.
X132.469Y-96.8
X132.813Y-132.825
X132.957Y-111.259
X133.Y-85.5
X133.Y-120.5
X134.Y-99.5
X134.229Y-130.211
X134.5Y-88.5
X134.5Y-115.5
X134.5Y-123.5
X134.512Y-108.343
X134.565Y-94.508
X134.773Y-90.691
X135.Y-126.
X135.5Y-129.5
X135.727Y-90.993
X136.182Y-91.884
X136.55Y-88.326
X137.Y-127.
X137.403Y-99.509
X137.873Y-101.811
X137.899Y-87.572
X138.Y-105.5
X138.Y-123.5
X138.606Y-94.849
X138.648Y-90.015
X139.393Y-116.195
X139.407Y-109.817
X139.445Y-113.524
X139.5Y-133.5
X139.584Y-119.451
X139.604Y-87.47
X140.Y-107.5
X140.Y-128.
X140.111Y-131.194
X140.5Y-91.
X141.Y-103.
X141.075Y-97.755
X141.2Y-108.43
X141.446Y-92.757
X141.5Y-120.5
X141.5Y-131.
X141.667Y-94.662
X141.777Y-95.85
X142.Y-129.
X142.207Y-88.348
X142.327Y-100.283
X142.614Y-114.079
X143.045Y-110.668
X143.092Y-112.734
X143.5Y-108.
X143.5Y-119.
X143.558Y-126.32
X143.609Y-88.347
X143.775Y-117.505
X144.571Y-89.709
X144.844Y-91.653
X145.Y-120.5
X145.249Y-131.8
X145.388Y-90.286
X145.407Y-110.
X145.439Y-111.625
X145.44Y-112.626
X145.548Y-114.022
X146.113Y-84.011
X146.173Y-90.913
X146.187Y-81.225
X146.5Y-87.
X146.961Y-106.074
X146.993Y-123.417
X147.253Y-99.986
X147.257Y-117.078
X147.5Y-120.5
X147.5Y-125.5
X147.5Y-129.
X147.832Y-114.829
X147.899Y-132.8
X147.9Y-108.435
X147.963Y-93.606
X148.085Y-99.394
X148.241Y-94.781
X149.057Y-99.1
X149.139Y-116.472
X149.301Y-108.449
X150.Y-111.
X150.199Y-105.5
X150.247Y-127.163
X150.301Y-108.448
X150.36Y-91.91
X150.391Y-124.55
X150.5Y-87.
X150.501Y-117.593
X150.52Y-99.097
X150.814Y-109.813
X151.Y-113.
X151.382Y-101.092
X151.5Y-115.5
X152.Y-129.5
X152.Y-117.593
X152.113Y-93.577
X152.198Y-132.726
X152.46Y-126.05
X152.5Y-108.5
X153.001Y-105.362
X153.5Y-80.
X153.811Y-110.747
X154.Y-116.5
X154.285Y-95.232
X154.363Y-90.874
X154.481Y-86.849
X154.593Y-112.5
X154.751Y-131.8
X154.875Y-118.921
X155.189Y-105.894
X155.828Y-88.654
X156.082Y-125.19
X156.313Y-103.57
X156.37Y-107.921
X156.472Y-87.299
X156.508Y-121.748
X156.695Y-94.508
X156.906Y-109.999
X156.951Y-112.749
X156.993Y-98.989
X157.Y-119.
X157.257Y-114.701
X157.258Y-113.701
X158.Y-84.5
X158.Y-130.5
X158.423Y-88.67
X158.5Y-124.
X158.689Y-136.341
X158.881Y-99.835
X159.Y-128.
X159.016Y-113.256
X160.Y-102.
X160.463Y-93.093
X160.864Y-94.075
X161.5Y-122.5
X161.5Y-128.
X161.6Y-131.299
X161.773Y-95.141
X161.962Y-94.119
X162.243Y-109.214
X162.493Y-91.092
X162.802Y-94.662
X163.108Y-90.303
X163.154Y-97.928
X163.379Y-107.532
X163.48Y-93.072
X163.948Y-91.727
X163.991Y-89.779
X164.05Y-87.698
X164.359Y-101.047
X164.5Y-121.
X164.5Y-126.
X164.533Y-104.527
X165.394Y-87.821
X165.697Y-102.591
X166.439Y-95.725
X166.5Y-131.5
X167.Y-124.
X167.074Y-100.826
X167.5Y-86.
X167.5Y-89.5
X167.6Y-99.555
X168.813Y-101.409
X168.992Y-108.718
X169.Y-132.
X170.Y-122.5
X170.5Y-87.5
X170.5Y-113.5
X170.5Y-118.5
X170.661Y-98.345
X170.914Y-109.982
X171.Y-91.5
X171.18Y-123.401
X172.Y-105.5
X172.Y-108.5
X172.025Y-96.402
X173.425Y-125.187
X173.5Y-101.
X173.5Y-117.5
X174.Y-92.5
X174.5Y-111.5
X174.862Y-105.513
X175.5Y-108.5
X175.5Y-114.
X177.Y-109.5
X177.025Y-105.587
T2
X123.408Y-100.338
X123.6Y-118.2
X124.4Y-98.
X124.552Y-120.555
X137.4Y-135.
X138.645Y-83.552
X139.663Y-136.153
X141.Y-82.6
X159.062Y-82.608
X160.8Y-136.
X161.4Y-83.6
X162.2Y-110.8
X162.2Y-113.34
X162.2Y-115.88
X163.043Y-134.808
X164.8Y-110.8
X164.8Y-113.34
X164.8Y-115.88
X164.8Y-118.42
X175.4Y-120.4
X175.448Y-97.845
X176.392Y-118.062
X176.4Y-100.2
T3
X131.Y-128.
X150.Y-82.5
X169.Y-128.
T0
M30
